# Wavefront OBJ file
# Exported by Misfit Model 3D 1.3.8
# Mon Jan 12 21:55:16 2015

mtllib oldbookshelf.mtl

# 80 Vertices
v 10.749995 173.0625 -20.078125
v 10.749995 157.171875 -20.078125
v 30.499994 158.015625 -20.078125
v 30.499994 158.015625 -21.15625
v 30.499994 157.21875 -21.15625
v 10.749995 173.0625 -21.15625
v 27.468744 158.28125 -20.515625
v 11.687495 158.234375 -20.515625
v 11.687495 171.1875 -20.515625
v 10.749995 157.171875 -21.15625
v -11.10938 171.046875 -20.3125
v -11.10938 158.328125 -20.3125
v -26.390631 159.0 -20.3125
v -30.000006 158.015625 -20.078125
v -30.000004 157.21875 -20.078125
v -10.250005 173.0625 -20.078125
v -10.250005 157.171875 -20.078125
v -10.23438 173.0625 -21.15625
v -10.23438 157.171875 -21.15625
v -30.000006 158.015625 -21.15625
v -2.156255 161.84375 -20.1875
v -5.312505 157.703125 -20.1875
v 3.20312 161.84375 -20.1875
v 6.35937 157.703125 -20.1875
v 3.20312 161.84375 -20.96875
v 6.35937 157.703125 -20.96875
v -2.156255 161.84375 -20.96875
v -5.312505 157.703125 -20.96875
v -0.07813 176.71875 -20.96875
v -0.07813 176.71875 -20.1875
v 0.874995 176.71875 -20.96875
v 0.874995 176.71875 -20.1875
v -4.187505 165.96875 -20.96875
v -4.187505 165.96875 -20.1875
v 5.23437 165.96875 -20.96875
v 5.23437 165.96875 -20.1875
v -4.187505 171.46875 -20.96875
v -4.187505 171.46875 -20.1875
v 5.23437 171.46875 -20.96875
v 5.23437 171.46875 -20.1875
v 40.156246 158.34375 -22.250002
v 40.15625 0.406251 -22.250002
v -39.156254 158.34375 -22.249998
v -39.15625 0.406249 -22.249998
v -40.765629 154.828125 -19.765623
v -39.156254 158.34375 -22.249998
v -39.15625 0.406249 -22.249998
v -40.765625 4.734374 -19.765623
v 41.765625 5.156251 -19.828127
v 40.15625 0.406251 -22.250002
v 40.156246 158.34375 -22.250002
v 41.765621 153.203125 -19.828127
v 41.765621 153.203125 20.828123
v 41.765625 5.156251 20.828123
v 41.765621 153.203125 -19.828127
v 41.765625 5.156251 -19.828127
v -40.765629 154.828125 -19.765623
v -40.765625 4.734374 -19.765623
v -40.765629 154.828125 20.765627
v -40.765625 4.734374 20.765627
v -39.15625 0.406249 -22.249998
v -39.15625 0.406249 23.250002
v 40.15625 0.406251 23.249998
v 40.15625 0.406251 -22.250002
v -39.156254 158.34375 23.250002
v -39.15625 0.406249 23.250002
v 40.156246 158.34375 23.249998
v 40.15625 0.406251 23.249998
v -40.765625 4.734374 20.765627
v -40.765629 154.828125 20.765627
v 41.765621 153.203125 20.828123
v 41.765625 5.156251 20.828123
v -39.156254 158.34375 -22.249998
v -39.156254 158.34375 23.250002
v 40.156246 158.34375 -22.250002
v 40.156246 158.34375 23.249998
v -40.765629 154.828125 20.765627
v -40.765629 154.828125 -19.765623
v 41.765621 153.203125 -19.828127
v 41.765621 153.203125 20.828123

# 249 Texture Coordinates
vt 0.552074 0.926265
vt 0.705542 0.930798
vt 0.552074 0.98946
vt 0.705542 0.926525
vt 0.552074 0.98946
vt 0.705542 0.930798
vt 0.565788 0.931968
vt 0.565788 0.979434
vt 0.661917 0.932179
vt 0.552074 0.926265
vt 0.552074 0.98946
vt 0.552074 0.98946
vt 0.552074 0.926265
vt 0.552074 0.98946
vt 0.552074 0.926265
vt 0.552074 0.98946
vt 0.705542 0.930798
vt 0.552074 0.98946
vt 0.705542 0.930798
vt 0.705542 0.930798
vt 0.552074 0.98946
vt 0.422963 0.929703
vt 0.276215 0.926014
vt 0.432728 0.987826
vt 0.25679 0.920308
vt 0.437391 0.994266
vt 0.25679 0.922866
vt 0.427625 0.926012
vt 0.437391 0.994266
vt 0.25679 0.920308
vt 0.427625 0.926012
vt 0.437391 0.994266
vt 0.437391 0.994266
vt 0.427625 0.926012
vt 0.437391 0.994266
vt 0.427625 0.926012
vt 0.437391 0.994266
vt 0.25679 0.922866
vt 0.437391 0.994266
vt 0.25679 0.922866
vt 0.25679 0.922866
vt 0.437391 0.994266
vt 0.709039 0.084208
vt 0.779087 0.109531
vt 0.734931 0.109531
vt 0.804979 0.084208
vt 0.779087 0.109531
vt 0.709039 0.084208
vt 0.804979 0.084208
vt 0.779087 0.109531
vt 0.779087 0.109531
vt 0.804979 0.084208
vt 0.779087 0.109531
vt 0.804979 0.084208
vt 0.804979 0.084208
vt 0.734931 0.109531
vt 0.779087 0.109531
vt 0.709039 0.084208
vt 0.734931 0.109531
vt 0.804979 0.084208
vt 0.709039 0.084208
vt 0.734931 0.109531
vt 0.734931 0.109531
vt 0.709039 0.084208
vt 0.734931 0.109531
vt 0.709039 0.084208
vt 0.751963 0.200737
vt 0.760002 0.200737
vt 0.751963 0.200737
vt 0.760002 0.200737
vt 0.760002 0.200737
vt 0.751963 0.200737
vt 0.734931 0.109531
vt 0.734931 0.109531
vt 0.718209 0.134823
vt 0.734931 0.109531
vt 0.718209 0.134823
vt 0.718209 0.134823
vt 0.779087 0.109531
vt 0.734931 0.109531
vt 0.795808 0.134823
vt 0.734931 0.109531
vt 0.718209 0.134823
vt 0.795808 0.134823
vt 0.734931 0.109531
vt 0.779087 0.109531
vt 0.718209 0.134823
vt 0.779087 0.109531
vt 0.795808 0.134823
vt 0.718209 0.134823
vt 0.779087 0.109531
vt 0.779087 0.109531
vt 0.795808 0.134823
vt 0.779087 0.109531
vt 0.795808 0.134823
vt 0.795808 0.134823
vt 0.718209 0.134823
vt 0.718209 0.134823
vt 0.718209 0.168547
vt 0.718209 0.134823
vt 0.718209 0.168547
vt 0.718209 0.168547
vt 0.795808 0.134823
vt 0.718209 0.134823
vt 0.795808 0.168547
vt 0.718209 0.134823
vt 0.718209 0.168547
vt 0.795808 0.168547
vt 0.718209 0.134823
vt 0.795808 0.134823
vt 0.718209 0.168547
vt 0.795808 0.134823
vt 0.795808 0.168547
vt 0.718209 0.168547
vt 0.795808 0.134823
vt 0.795808 0.134823
vt 0.795808 0.168547
vt 0.795808 0.134823
vt 0.795808 0.168547
vt 0.795808 0.168547
vt 0.718209 0.168547
vt 0.718209 0.168547
vt 0.751963 0.200737
vt 0.718209 0.168547
vt 0.751963 0.200737
vt 0.751963 0.200737
vt 0.795808 0.168547
vt 0.718209 0.168547
vt 0.760002 0.200737
vt 0.718209 0.168547
vt 0.751963 0.200737
vt 0.760002 0.200737
vt 0.718209 0.168547
vt 0.795808 0.168547
vt 0.751963 0.200737
vt 0.795808 0.168547
vt 0.760002 0.200737
vt 0.751963 0.200737
vt 0.795808 0.168547
vt 0.795808 0.168547
vt 0.760002 0.200737
vt 0.795808 0.168547
vt 0.760002 0.200737
vt 0.760002 0.200737
vt 0.437391 0.994266
vt 0.427625 0.926012
vt 0.432728 0.987826
vt 0.427625 0.926012
vt 0.422963 0.929703
vt 0.432728 0.987826
vt 0.25679 0.922866
vt 0.276215 0.926014
vt 0.422963 0.929703
vt 0.25679 0.922866
vt 0.437391 0.994266
vt 0.276215 0.926014
vt 0.437391 0.994266
vt 0.432728 0.987826
vt 0.276215 0.926014
vt 0.552074 0.926265
vt 0.552074 0.98946
vt 0.565788 0.931968
vt 0.552074 0.98946
vt 0.565788 0.979434
vt 0.565788 0.931968
vt 0.552074 0.98946
vt 0.705542 0.926525
vt 0.565788 0.979434
vt 0.705542 0.926525
vt 0.661917 0.932179
vt 0.565788 0.979434
vt 0.013098 0.02365
vt 0.858268 0.838766
vt 0.003333 0.836813
vt 0.838737 0.008025
vt 0.858268 0.838766
vt 0.013098 0.02365
vt 0.373603 0.82724
vt 0.373603 0.810725
vt 0.378738 0.826872
vt 0.373603 0.810725
vt 0.378738 0.811177
vt 0.378738 0.826872
vt 0.373603 0.810725
vt 0.373603 0.82724
vt 0.378609 0.811221
vt 0.373603 0.82724
vt 0.378609 0.826702
vt 0.378609 0.811221
vt 0.98888 0.024454
vt 0.870475 0.273772
vt 0.98888 0.273772
vt 0.870475 0.024454
vt 0.870475 0.273772
vt 0.98888 0.024454
vt 0.870655 0.023744
vt 0.988702 0.276512
vt 0.870655 0.276512
vt 0.988702 0.023744
vt 0.988702 0.276512
vt 0.870655 0.023744
vt 0.863465 0.016464
vt 0.995895 0.016464
vt 0.870655 0.023744
vt 0.995895 0.016464
vt 0.988702 0.023744
vt 0.870655 0.023744
vt 0.995895 0.016464
vt 0.863465 0.016464
vt 0.98888 0.024454
vt 0.863465 0.016464
vt 0.870475 0.024454
vt 0.98888 0.024454
vt 0.661072 0.044718
vt 0.856077 0.239572
vt 0.661072 0.239572
vt 0.856077 0.044718
vt 0.856077 0.239572
vt 0.661072 0.044718
vt 0.661072 0.044718
vt 0.661072 0.239572
vt 0.657115 0.050058
vt 0.661072 0.239572
vt 0.657115 0.235235
vt 0.657115 0.050058
vt 0.856077 0.239572
vt 0.856077 0.044718
vt 0.860034 0.23323
vt 0.856077 0.044718
vt 0.860034 0.050578
vt 0.860034 0.23323
vt 0.664609 0.060048
vt 0.859219 0.231491
vt 0.664609 0.231491
vt 0.859219 0.060048
vt 0.859219 0.231491
vt 0.664609 0.060048
vt 0.664609 0.060048
vt 0.664609 0.231491
vt 0.66066 0.06941
vt 0.664609 0.231491
vt 0.66066 0.22213
vt 0.66066 0.06941
vt 0.859219 0.231491
vt 0.859219 0.060048
vt 0.863167 0.222365
vt 0.859219 0.060048
vt 0.863167 0.069174
vt 0.863167 0.222365

# 249 Vertex Normals
vn 0.0 0.0 1.0
vn 0.0 0.0 1.0
vn 0.0 0.0 1.0
vn -0.238631 -0.294834 -0.925272
vn 0.212565 -0.128966 -0.968599
vn 0.0 -0.000001 -1.0
vn 0.391606 0.0 -0.920133
vn -0.034597 -0.23635 -0.971052
vn -0.165424 -0.202274 -0.965257
vn -1.0 0.0 -0.0
vn -1.0 0.0 -0.0
vn -0.827467 -0.278246 -0.487726
vn -1.0 0.0 -0.0
vn -1.0 0.0 -0.0
vn -1.0 0.0 -0.0
vn 0.606024 0.795446 0.0
vn 0.606024 0.795446 0.0
vn 0.687323 0.315225 -0.654385
vn 0.606024 0.795446 0.0
vn 0.606024 0.795446 0.0
vn 0.606024 0.795446 0.0
vn -0.249483 0.221713 -0.942657
vn 0.206356 -0.088097 -0.974503
vn -0.293318 -0.145245 -0.944917
vn 0.0 0.0 1.0
vn 0.0 0.0 1.0
vn 0.0 0.000001 1.0
vn 0.0 0.0 1.0
vn 0.0 0.0 1.0
vn 0.0 0.0 1.0
vn 0.999895 0.0 0.014491
vn 0.826206 -0.276599 -0.490791
vn 0.999895 0.0 0.014491
vn 0.999895 0.0 0.014491
vn 0.826206 -0.276599 -0.490791
vn 0.999895 0.0 0.014491
vn -0.736585 0.614933 -0.281603
vn -0.605867 0.795554 -0.004391
vn -0.606001 0.795416 -0.008782
vn -0.339596 0.814016 -0.471225
vn -0.605867 0.795554 -0.004391
vn -0.736585 0.614933 -0.281603
vn 0.0 0.0 1.0
vn 0.0 0.0 1.0
vn 0.0 0.0 1.0
vn 0.0 0.0 1.0
vn 0.0 0.0 1.0
vn 0.0 0.0 1.0
vn 0.795294 0.606224 -0.0
vn 0.995312 0.096717 -0.0
vn 0.995312 0.096717 -0.0
vn 0.795294 0.606224 0.0
vn 0.995312 0.096717 -0.0
vn 0.795294 0.606224 -0.0
vn 0.0 -0.0 -1.0
vn 0.0 -0.0 -1.0
vn 0.0 -0.0 -1.0
vn 0.0 0.0 -1.0
vn 0.0 -0.0 -1.0
vn 0.0 -0.0 -1.0
vn -0.795294 0.606224 0.0
vn -0.995312 0.096716 0.0
vn -0.995312 0.096716 0.0
vn -0.795294 0.606224 0.0
vn -0.995312 0.096716 0.0
vn -0.795294 0.606224 0.0
vn -0.288202 0.95757 0.0
vn 0.279895 0.960031 0.0
vn -0.576404 0.817165 -0.0
vn 0.55979 0.828635 -0.0
vn 0.279895 0.960031 0.0
vn -0.288202 0.95757 0.0
vn -0.995312 0.096716 0.0
vn -0.995312 0.096716 0.0
vn -0.953471 -0.301485 0.000001
vn -0.995312 0.096716 0.0
vn -0.988573 -0.150742 0.0
vn -0.953471 -0.301485 0.000001
vn 0.0 -0.0 -1.0
vn 0.0 -0.0 -1.0
vn 0.0 -0.0 -1.0
vn 0.0 -0.0 -1.0
vn 0.0 -0.0 -1.0
vn 0.0 -0.0 -1.0
vn 0.0 0.0 1.0
vn 0.0 0.0 1.0
vn 0.0 0.0 1.0
vn 0.0 0.0 1.0
vn 0.0 0.0 1.0
vn 0.0 0.0 1.0
vn 0.995312 0.096717 -0.0
vn 0.995312 0.096717 -0.0
vn 0.953471 -0.301485 -0.0
vn 0.995312 0.096717 -0.0
vn 0.988573 -0.150742 -0.0
vn 0.953471 -0.301485 -0.0
vn -0.953471 -0.301485 0.000001
vn -0.988573 -0.150742 0.0
vn -0.976414 0.215908 0.0
vn -0.988573 -0.150742 0.0
vn -0.901962 0.431816 -0.0
vn -0.976414 0.215908 0.0
vn 0.0 -0.0 -1.0
vn 0.0 -0.0 -1.0
vn 0.0 0.0 -1.0
vn 0.0 -0.0 -1.0
vn 0.0 -0.0 -1.0
vn 0.0 0.0 -1.0
vn 0.0 0.0 1.0
vn 0.0 0.0 1.0
vn 0.0 0.0 1.0
vn 0.0 0.0 1.0
vn 0.0 -0.0 1.0
vn 0.0 0.0 1.0
vn 0.953471 -0.301485 -0.0
vn 0.988573 -0.150742 -0.0
vn 0.97441 0.224777 -0.0
vn 0.988573 -0.150742 -0.0
vn 0.893253 0.449553 -0.0
vn 0.97441 0.224777 -0.0
vn -0.976414 0.215908 0.0
vn -0.901962 0.431816 -0.0
vn -0.576404 0.817165 -0.0
vn -0.901962 0.431816 -0.0
vn -0.288202 0.95757 0.0
vn -0.576404 0.817165 -0.0
vn 0.0 0.0 -1.0
vn 0.0 -0.0 -1.0
vn 0.0 -0.0 -1.0
vn 0.0 -0.0 -1.0
vn 0.0 -0.0 -1.0
vn 0.0 -0.0 -1.0
vn 0.0 0.0 1.0
vn 0.0 -0.0 1.0
vn 0.0 -0.0 1.0
vn 0.0 -0.0 1.0
vn 0.0 -0.0 1.0
vn 0.0 -0.0 1.0
vn 0.97441 0.224777 -0.0
vn 0.893253 0.449553 -0.0
vn 0.55979 0.828635 -0.0
vn 0.893253 0.449553 -0.0
vn 0.279895 0.960031 0.0
vn 0.55979 0.828635 -0.0
vn -0.439538 0.250672 -0.862537
vn -0.694136 0.0 -0.719844
vn -0.293318 -0.145245 -0.944917
vn -0.694136 0.0 -0.719844
vn -0.249483 0.221713 -0.942657
vn -0.293318 -0.145245 -0.944917
vn -0.137376 0.503007 -0.853294
vn 0.206356 -0.088097 -0.974503
vn -0.249483 0.221713 -0.942657
vn 0.198368 0.107674 -0.974195
vn 0.626976 -0.282474 -0.726023
vn 0.206356 -0.088097 -0.974503
vn 0.626976 -0.282474 -0.726023
vn -0.293318 -0.145245 -0.944917
vn 0.206356 -0.088097 -0.974503
vn 0.564191 0.0 -0.825645
vn 0.365645 0.089728 -0.926419
vn 0.391606 0.0 -0.920133
vn 0.365645 0.089728 -0.926419
vn -0.034597 -0.23635 -0.971052
vn 0.391606 0.0 -0.920133
vn -0.068917 -0.131668 -0.988895
vn -0.238631 -0.294834 -0.925272
vn -0.034597 -0.23635 -0.971052
vn -0.238631 -0.294834 -0.925272
vn -0.165424 -0.202274 -0.965257
vn -0.034597 -0.23635 -0.971052
vn -0.0 0.0 -1.0
vn -0.0 0.0 -1.0
vn -0.0 0.0 -1.0
vn -0.0 -0.0 -1.0
vn -0.0 0.0 -1.0
vn -0.0 0.0 -1.0
vn -0.839287 -0.0 -0.543689
vn -0.839287 -0.0 -0.543689
vn -0.839287 -0.0 -0.543689
vn -0.839287 -0.0 -0.543689
vn -0.839287 -0.0 -0.543689
vn -0.839287 -0.0 -0.543689
vn 0.832876 0.0 -0.55346
vn 0.832876 0.0 -0.553459
vn 0.832876 0.0 -0.553459
vn 0.832876 0.0 -0.553459
vn 0.832876 0.0 -0.553459
vn 0.832876 0.0 -0.553459
vn 0.98669 -0.162613 -0.0
vn 1.0 0.0 -0.0
vn 1.0 0.0 -0.0
vn 0.98669 -0.162613 -0.0
vn 1.0 0.0 -0.0
vn 0.98669 -0.162613 -0.0
vn -0.9842 -0.177061 0.0
vn -1.0 -0.0 0.0
vn -1.0 -0.0 0.0
vn -0.9842 -0.177061 0.0
vn -1.0 -0.0 0.0
vn -0.9842 -0.177061 0.0
vn -0.937299 -0.348526 -0.0
vn -0.937299 -0.348526 0.0
vn -0.9842 -0.177061 0.0
vn -0.937299 -0.348526 0.0
vn -0.9842 -0.177061 0.0
vn -0.9842 -0.177061 0.0
vn 0.947114 -0.320897 -0.0
vn 0.947114 -0.320897 0.0
vn 0.98669 -0.162613 -0.0
vn 0.947114 -0.320897 0.0
vn 0.98669 -0.162613 -0.0
vn 0.98669 -0.162613 -0.0
vn -0.313333 -0.0 0.949643
vn 0.310097 0.0 0.950705
vn -0.626667 -0.0 0.779287
vn 0.620193 0.0 0.784449
vn 0.310097 0.0 0.950705
vn -0.313333 -0.0 0.949643
vn -0.313333 -0.0 0.949643
vn -0.626667 -0.0 0.779287
vn -0.839287 -0.0 0.543689
vn -0.626667 -0.0 0.779287
vn -0.839287 -0.0 0.543689
vn -0.839287 -0.0 0.543689
vn 0.310097 0.0 0.950705
vn 0.620193 0.0 0.784449
vn 0.832876 0.0 0.553459
vn 0.620193 0.0 0.784449
vn 0.832876 0.0 0.55346
vn 0.832876 0.0 0.553459
vn -0.352199 0.935925 -0.0
vn 0.383418 0.923575 0.0
vn -0.704397 0.709806 0.0
vn 0.766836 0.641842 -0.0
vn 0.383418 0.923575 0.0
vn -0.352199 0.935925 -0.0
vn -0.352199 0.935925 -0.0
vn -0.704397 0.709806 0.0
vn -0.909256 0.416237 0.0
vn -0.704397 0.709806 0.0
vn -0.909256 0.416237 0.0
vn -0.909256 0.416237 0.0
vn 0.383418 0.923575 0.0
vn 0.766836 0.641842 -0.0
vn 0.954325 0.29877 -0.0
vn 0.766836 0.641842 -0.0
vn 0.954325 0.29877 -0.0
vn 0.954325 0.29877 -0.0

# brnimrod3, 83 grouped triangles

usemtl br_nimrod3.jpg
o brnimrod3
g brnimrod3

f 2/1/1 3/2/2 1/3/3
f 5/4/4 6/5/5 4/6/6
f 8/7/7 9/8/8 7/9/9
f 10/10/10 1/11/11 6/12/12
f 2/13/13 1/14/14 10/15/15
f 1/16/16 4/17/17 6/18/18
f 3/19/19 4/20/20 1/21/21
f 12/22/22 13/23/23 11/24/24
f 15/25/25 16/26/26 14/27/27
f 17/28/28 16/29/29 15/30/30
f 17/31/31 18/32/32 16/33/33
f 19/34/34 18/35/35 17/36/36
f 18/37/37 14/38/38 16/39/39
f 20/40/40 14/41/41 18/42/42
f 22/43/43 23/44/44 21/45/45
f 24/46/46 23/47/47 22/48/48
f 24/49/49 25/50/50 23/51/51
f 26/52/52 25/53/53 24/54/54
f 26/55/55 27/56/56 25/57/57
f 28/58/58 27/59/59 26/60/60
f 28/61/61 21/62/62 27/63/63
f 22/64/64 21/65/65 28/66/66
f 30/67/67 31/68/68 29/69/69
f 32/70/70 31/71/71 30/72/72
f 27/73/73 21/74/74 33/75/75
f 21/76/76 34/77/77 33/78/78
f 25/79/79 27/80/80 35/81/81
f 27/82/82 33/83/83 35/84/84
f 21/85/85 23/86/86 34/87/87
f 23/88/88 36/89/89 34/90/90
f 23/91/91 25/92/92 36/93/93
f 25/94/94 35/95/95 36/96/96
f 33/97/97 34/98/98 37/99/99
f 34/100/100 38/101/101 37/102/102
f 35/103/103 33/104/104 39/105/105
f 33/106/106 37/107/107 39/108/108
f 34/109/109 36/110/110 38/111/111
f 36/112/112 40/113/113 38/114/114
f 36/115/115 35/116/116 40/117/117
f 35/118/118 39/119/119 40/120/120
f 37/121/121 38/122/122 29/123/123
f 38/124/124 30/125/125 29/126/126
f 39/127/127 37/128/128 31/129/129
f 37/130/130 29/131/131 31/132/132
f 38/133/133 40/134/134 30/135/135
f 40/136/136 32/137/137 30/138/138
f 40/139/139 39/140/140 32/141/141
f 39/142/142 31/143/143 32/144/144
f 18/145/145 19/146/146 11/147/147
f 19/148/148 12/149/149 11/150/150
f 20/151/151 13/152/152 12/153/153
f 20/154/154 18/155/155 13/156/156
f 18/157/157 11/158/158 13/159/159
f 10/160/160 6/161/161 8/162/162
f 6/163/163 9/164/164 8/165/165
f 6/166/166 5/167/167 9/168/168
f 5/169/169 7/170/170 9/171/171
f 42/172/172 43/173/173 41/174/174
f 44/175/175 43/176/176 42/177/177
f 46/178/178 47/179/179 45/180/180
f 47/181/181 48/182/182 45/183/183
f 50/184/184 51/185/185 49/186/186
f 51/187/187 52/188/188 49/189/189
f 54/190/190 55/191/191 53/192/192
f 56/193/193 55/194/194 54/195/195
f 58/196/196 59/197/197 57/198/198
f 60/199/199 59/200/200 58/201/201
f 61/202/202 62/203/203 58/204/204
f 62/205/205 60/206/206 58/207/207
f 63/208/208 64/209/209 54/210/210
f 64/211/211 56/212/212 54/213/213
f 66/214/214 67/215/215 65/216/216
f 68/217/217 67/218/218 66/219/219
f 66/220/220 65/221/221 69/222/222
f 65/223/223 70/224/224 69/225/225
f 67/226/226 68/227/227 71/228/228
f 68/229/229 72/230/230 71/231/231
f 74/232/232 75/233/233 73/234/234
f 76/235/235 75/236/236 74/237/237
f 74/238/238 73/239/239 77/240/240
f 73/241/241 78/242/242 77/243/243
f 75/244/244 76/245/245 79/246/246
f 76/247/247 80/248/248 79/249/249
