# Wavefront OBJ file
# Exported by Misfit Model 3D 1.3.8
# Mon Jan 12 21:55:34 2015

mtllib oldpainting.mtl

# 32 Vertices
v 8.0 17.03125 1.0
v 8.0 0.03125 1.0
v 8.0 17.03125 -0.0
v 8.0 0.03125 -0.0
v 8.0 17.03125 -0.0
v 8.0 0.03125 -0.0
v -8.0 17.03125 0.0
v -8.0 0.03125 0.0
v -8.0 17.03125 0.0
v -8.0 0.03125 0.0
v -8.0 17.03125 1.0
v -8.0 0.03125 1.0
v -8.0 17.03125 0.0
v -8.0 17.03125 1.0
v 8.0 17.03125 -0.0
v 8.0 17.03125 1.0
v -8.0 0.03125 1.0
v -8.0 0.03125 0.0
v 8.0 0.03125 1.0
v 8.0 0.03125 -0.0
v 7.0 16.109375 0.515625
v -8.0 17.03125 1.0
v -7.0 16.109375 0.515625
v -7.0 16.109375 0.515625
v -7.0 1.125 0.515625
v 7.0 16.109375 0.515625
v 7.0 1.125 0.515625
v -8.0 0.03125 1.0
v -7.0 1.125 0.515625
v 8.0 17.03125 1.0
v 8.0 0.03125 1.0
v 7.0 1.125 0.515625

# 60 Texture Coordinates
vt 0.837386 0.453305
vt 0.825873 0.453364
vt 0.825873 0.453364
vt 0.837386 0.453305
vt 0.825873 0.453364
vt 0.837386 0.453305
vt 0.837386 0.453305
vt 0.826202 0.517416
vt 0.825873 0.453364
vt 0.837715 0.517357
vt 0.826202 0.517416
vt 0.837386 0.453305
vt 0.837715 0.517357
vt 0.826202 0.517416
vt 0.826202 0.517416
vt 0.837715 0.517357
vt 0.826202 0.517416
vt 0.837715 0.517357
vt 0.826202 0.517416
vt 0.825873 0.453364
vt 0.826202 0.517416
vt 0.825873 0.453364
vt 0.825873 0.453364
vt 0.826202 0.517416
vt 0.837715 0.517357
vt 0.837386 0.453305
vt 0.837715 0.517357
vt 0.837386 0.453305
vt 0.837386 0.453305
vt 0.837715 0.517357
vt 0.005905 0.24395
vt 0.039893 0.224797
vt 0.336321 0.224797
vt 0.039893 0.015845
vt 0.336321 0.224797
vt 0.039893 0.224797
vt 0.337623 0.018449
vt 0.336321 0.224797
vt 0.039893 0.015845
vt 0.005905 0.24395
vt 0.00851 0.000597
vt 0.039893 0.224797
vt 0.00851 0.000597
vt 0.039893 0.015845
vt 0.039893 0.224797
vt 0.370308 0.24395
vt 0.005905 0.24395
vt 0.336321 0.224797
vt 0.00851 0.000597
vt 0.367704 0.005806
vt 0.039893 0.015845
vt 0.367704 0.005806
vt 0.337623 0.018449
vt 0.039893 0.015845
vt 0.367704 0.005806
vt 0.370308 0.24395
vt 0.337623 0.018449
vt 0.370308 0.24395
vt 0.336321 0.224797
vt 0.337623 0.018449

# 60 Vertex Normals
vn 1.0 0.0 -0.0
vn 1.0 0.0 -0.0
vn 1.0 0.0 -0.0
vn 1.0 0.0 0.0
vn 1.0 0.0 -0.0
vn 1.0 0.0 -0.0
vn -0.0 0.0 -1.0
vn -0.0 0.0 -1.0
vn -0.0 0.0 -1.0
vn -0.0 0.0 -1.0
vn -0.0 0.0 -1.0
vn -0.0 0.0 -1.0
vn -1.0 0.0 0.0
vn -1.0 0.0 0.0
vn -1.0 0.0 0.0
vn -1.0 0.0 0.0
vn -1.0 0.0 0.0
vn -1.0 0.0 0.0
vn -0.0 1.0 0.0
vn -0.0 1.0 0.0
vn 0.0 1.0 0.0
vn -0.0 1.0 0.0
vn -0.0 1.0 0.0
vn -0.0 1.0 0.0
vn 0.0 -1.0 0.0
vn 0.0 -1.0 0.0
vn 0.0 -1.0 0.0
vn 0.0 -1.0 0.0
vn 0.0 -1.0 0.0
vn 0.0 -1.0 0.0
vn 0.152356 -0.325121 0.933319
vn 0.304711 -0.162561 0.93847
vn -0.152355 -0.325121 0.933319
vn 0.0 0.0 1.0
vn 0.0 0.0 1.0
vn 0.0 0.0 1.0
vn 0.0 0.0 1.0
vn 0.0 0.0 1.0
vn 0.0 0.0 1.0
vn 0.152356 -0.325121 0.933319
vn 0.30278 0.140623 0.942629
vn 0.304711 -0.162561 0.93847
vn 0.30278 0.140623 0.942629
vn 0.15139 0.281246 0.947619
vn 0.304711 -0.162561 0.93847
vn -0.304711 -0.16256 0.93847
vn 0.152356 -0.325121 0.933319
vn -0.152355 -0.325121 0.933319
vn 0.30278 0.140623 0.942629
vn -0.15139 0.281246 0.947619
vn 0.15139 0.281246 0.947619
vn -0.15139 0.281246 0.947619
vn -0.302779 0.140623 0.942629
vn 0.15139 0.281246 0.947619
vn -0.15139 0.281246 0.947619
vn -0.304711 -0.16256 0.93847
vn -0.302779 0.140623 0.942629
vn -0.304711 -0.16256 0.93847
vn -0.152355 -0.325121 0.933319
vn -0.302779 0.140623 0.942629

# br_nimrod4, 20 grouped triangles

usemtl br_nimrod4.jpg
o br_nimrod4
g br_nimrod4

f 2/1/1 3/2/2 1/3/3
f 4/4/4 3/5/5 2/6/6
f 6/7/7 7/8/8 5/9/9
f 8/10/10 7/11/11 6/12/12
f 10/13/13 11/14/14 9/15/15
f 12/16/16 11/17/17 10/18/18
f 14/19/19 15/20/20 13/21/21
f 16/22/22 15/23/23 14/24/24
f 18/25/25 19/26/26 17/27/27
f 20/28/28 19/29/29 18/30/30
f 22/31/31 23/32/32 21/33/33
f 25/34/34 26/35/35 24/36/36
f 27/37/37 26/38/38 25/39/39
f 22/40/40 28/41/41 23/42/42
f 28/43/43 29/44/44 23/45/45
f 30/46/46 22/47/47 21/48/48
f 28/49/49 31/50/50 29/51/51
f 31/52/52 32/53/53 29/54/54
f 31/55/55 30/56/56 32/57/57
f 30/58/58 21/59/59 32/60/60
