# Wavefront OBJ file
# Exported by Misfit Model 3D 1.3.8
# Tue Jan 13 00:30:24 2015

mtllib washerdryer.mtl

# 56 Vertices
v 18.921875 50.5 17.921875
v 18.921875 0.000001 17.921875
v 18.921873 50.5 -16.421875
v 18.921875 0.000001 -16.421875
v -18.921877 50.5 -16.421875
v -18.921875 -0.000001 -16.421875
v -18.921875 50.5 17.921875
v -18.921875 -0.000001 17.921875
v -18.703129 92.90625 -16.296875
v -18.703127 53.40625 -16.296875
v -18.703127 53.40625 17.796875
v -18.703127 92.90625 17.796875
v 18.703121 92.90625 -16.296875
v 18.703123 53.40625 -16.296875
v 18.703123 92.90625 17.796875
v 18.703123 53.40625 17.796875
v -18.921875 50.5 17.921875
v -18.921875 -0.000001 17.921875
v 18.921875 50.5 17.921875
v 18.921875 0.000001 17.921875
v -18.703127 92.90625 17.796875
v -18.703127 53.40625 17.796875
v 18.703123 53.40625 17.796875
v 18.703123 92.90625 17.796875
v -17.531254 94.15625 -15.15625
v -17.531252 94.15625 16.65625
v 17.531246 94.15625 -15.15625
v 17.531248 94.15625 16.65625
v -18.703129 92.90625 -16.296875
v -18.703127 92.90625 17.796875
v 18.703121 92.90625 -16.296875
v 18.703123 92.90625 17.796875
v -17.593752 52.15625 -16.359375
v -18.921877 50.5 -16.421875
v -18.921875 50.5 17.921875
v -17.59375 52.15625 16.78125
v 17.59375 52.15625 16.78125
v 18.921875 50.5 17.921875
v 18.921873 50.5 -16.421875
v 17.593748 52.15625 -16.359375
v -18.703127 53.40625 -16.296875
v -18.703127 53.40625 17.796875
v 18.703123 53.40625 17.796875
v 18.703123 53.40625 -16.296875
v 17.593748 52.15625 -16.359375
v 18.921873 50.5 -16.421875
v -18.921877 50.5 -16.421875
v -17.59375 52.15625 16.78125
v -18.921875 50.5 17.921875
v 18.921875 50.5 17.921875
v -17.593752 52.15625 -16.359375
v 18.703123 53.40625 -16.296875
v -18.703127 53.40625 -16.296875
v 17.59375 52.15625 16.78125
v -18.703127 53.40625 17.796875
v 18.703123 53.40625 17.796875

# 126 Texture Coordinates
vt 0.31434 0.201967
vt 0.073821 0.314259
vt 0.31434 0.314259
vt 0.073821 0.201967
vt 0.073821 0.314259
vt 0.31434 0.201967
vt 0.073821 0.201967
vt 0.073821 0.314259
vt 0.073821 0.314259
vt 0.073821 0.201967
vt 0.073821 0.314259
vt 0.073821 0.201967
vt 0.073821 0.201967
vt 0.31434 0.314259
vt 0.073821 0.314259
vt 0.31434 0.201967
vt 0.31434 0.314259
vt 0.073821 0.201967
vt 0.074758 0.325933
vt 0.313402 0.325933
vt 0.074758 0.413764
vt 0.313402 0.325933
vt 0.313402 0.413764
vt 0.074758 0.413764
vt 0.074758 0.325933
vt 0.074758 0.325933
vt 0.074758 0.413764
vt 0.074758 0.325933
vt 0.074758 0.413764
vt 0.074758 0.413764
vt 0.313402 0.325933
vt 0.074758 0.325933
vt 0.313402 0.413764
vt 0.074758 0.325933
vt 0.074758 0.413764
vt 0.313402 0.413764
vt 0.026692 0.032877
vt 0.35772 0.529047
vt 0.026692 0.529047
vt 0.35772 0.032877
vt 0.35772 0.529047
vt 0.026692 0.032877
vt 0.028624 0.58063
vt 0.355788 0.58063
vt 0.028624 0.968723
vt 0.355788 0.58063
vt 0.355789 0.968723
vt 0.028624 0.968723
vt 0.081768 0.211136
vt 0.301925 0.410349
vt 0.081768 0.410349
vt 0.301925 0.211136
vt 0.301925 0.410349
vt 0.081768 0.211136
vt 0.074429 0.417406
vt 0.074429 0.204079
vt 0.081768 0.410349
vt 0.074429 0.204079
vt 0.081768 0.211136
vt 0.081768 0.410349
vt 0.309263 0.417406
vt 0.074429 0.417406
vt 0.301925 0.410349
vt 0.074429 0.417406
vt 0.081768 0.410349
vt 0.301925 0.410349
vt 0.309263 0.204079
vt 0.309263 0.417406
vt 0.301925 0.211136
vt 0.309263 0.417406
vt 0.301925 0.410349
vt 0.301925 0.211136
vt 0.074429 0.204079
vt 0.309263 0.204079
vt 0.081768 0.211136
vt 0.309263 0.204079
vt 0.301925 0.211136
vt 0.081768 0.211136
vt 0.044139 0.496323
vt 0.352513 0.496323
vt 0.044677 0.538755
vt 0.352513 0.496323
vt 0.342312 0.538755
vt 0.044677 0.538755
vt 0.352513 0.496323
vt 0.044139 0.496323
vt 0.342312 0.538755
vt 0.044139 0.496323
vt 0.044677 0.538755
vt 0.342312 0.538755
vt 0.044677 0.538755
vt 0.342312 0.538755
vt 0.045342 0.570578
vt 0.342312 0.538755
vt 0.351311 0.570578
vt 0.045342 0.570578
vt 0.342312 0.538755
vt 0.044677 0.538755
vt 0.351311 0.570578
vt 0.044677 0.538755
vt 0.045342 0.570578
vt 0.351311 0.570578
vt 0.345606 0.496963
vt 0.063201 0.496963
vt 0.335749 0.542796
vt 0.063201 0.496963
vt 0.345606 0.496963
vt 0.073058 0.542796
vt 0.063201 0.496963
vt 0.073058 0.542796
vt 0.335749 0.542796
vt 0.335749 0.542796
vt 0.073058 0.542796
vt 0.343958 0.577171
vt 0.073058 0.542796
vt 0.064849 0.577171
vt 0.343958 0.577171
vt 0.345606 0.496963
vt 0.335749 0.542796
vt 0.073058 0.542796
vt 0.073058 0.542796
vt 0.335749 0.542796
vt 0.064849 0.577171
vt 0.335749 0.542796
vt 0.343958 0.577171
vt 0.064849 0.577171

# 126 Vertex Normals
vn 1.0 0.0 -0.0
vn 1.0 0.0 -0.0
vn 1.0 0.0 -0.0
vn 1.0 0.0 0.0
vn 1.0 0.0 -0.0
vn 1.0 0.0 -0.0
vn 0.0 0.0 -1.0
vn 0.0 0.0 -1.0
vn 0.0 0.0 -1.0
vn 0.0 0.0 -1.0
vn 0.0 0.0 -1.0
vn 0.0 0.0 -1.0
vn -1.0 -0.0 0.0
vn -1.0 -0.0 0.0
vn -1.0 -0.0 0.0
vn -1.0 0.0 0.0
vn -1.0 -0.0 0.0
vn -1.0 -0.0 0.0
vn -1.0 -0.0 -0.0
vn -1.0 -0.0 0.0
vn -1.0 -0.0 0.0
vn -1.0 -0.0 0.0
vn -1.0 0.0 0.0
vn -1.0 -0.0 0.0
vn 0.0 0.0 -1.0
vn 0.0 0.0 -1.0
vn 0.0 0.0 -1.0
vn 0.0 0.0 -1.0
vn 0.0 0.0 -1.0
vn 0.0 0.0 -1.0
vn 1.0 0.0 -0.0
vn 1.0 0.0 -0.0
vn 1.0 0.0 -0.0
vn 1.0 0.0 -0.0
vn 1.0 0.0 -0.0
vn 1.0 0.0 -0.0
vn 0.0 0.0 1.0
vn 0.0 0.0 1.0
vn 0.0 0.0 1.0
vn 0.0 0.0 1.0
vn 0.0 0.0 1.0
vn 0.0 0.0 1.0
vn 0.0 0.0 1.0
vn 0.0 0.0 1.0
vn 0.0 0.0 1.0
vn 0.0 0.0 1.0
vn 0.0 0.0 1.0
vn 0.0 0.0 1.0
vn -0.16749 0.925691 0.33918
vn 0.16749 0.925691 -0.33918
vn -0.422469 0.88078 -0.213884
vn 0.422469 0.88078 0.213884
vn 0.16749 0.925691 -0.33918
vn -0.16749 0.925691 0.33918
vn -0.278863 0.776741 -0.56472
vn -0.557726 0.780522 0.28236
vn -0.422469 0.88078 -0.213884
vn -0.557726 0.780522 0.28236
vn -0.16749 0.925691 0.33918
vn -0.422469 0.88078 -0.213884
vn 0.557726 0.780522 -0.28236
vn -0.278863 0.776741 -0.56472
vn 0.16749 0.925691 -0.33918
vn -0.278863 0.776741 -0.56472
vn -0.422469 0.88078 -0.213884
vn 0.16749 0.925691 -0.33918
vn 0.278863 0.776741 0.56472
vn 0.557726 0.780522 -0.28236
vn 0.422469 0.88078 0.213884
vn 0.557726 0.780522 -0.28236
vn 0.16749 0.925691 -0.33918
vn 0.422469 0.88078 0.213884
vn -0.557726 0.780522 0.28236
vn 0.278863 0.776741 0.56472
vn -0.16749 0.925691 0.33918
vn 0.278863 0.776741 0.56472
vn 0.422469 0.88078 0.213884
vn -0.16749 0.925691 0.33918
vn -0.78015 0.625592 0.0
vn -0.78015 0.625592 0.0
vn -0.969112 0.246621 0.0
vn -0.78015 0.625592 0.0
vn -0.955582 -0.294725 0.0
vn -0.969112 0.246621 0.0
vn 0.78015 0.625592 -0.0
vn 0.78015 0.625592 -0.0
vn 0.969112 0.246621 -0.0
vn 0.78015 0.625592 -0.0
vn 0.955582 -0.294725 -0.0
vn 0.969112 0.246621 -0.0
vn -0.969112 0.246621 0.0
vn -0.955582 -0.294725 0.0
vn -0.747925 -0.663784 0.0
vn -0.955582 -0.294725 0.0
vn -0.747924 -0.663784 0.0
vn -0.747925 -0.663784 0.0
vn 0.969112 0.246621 -0.0
vn 0.955582 -0.294725 -0.0
vn 0.747925 -0.663783 -0.0
vn 0.955582 -0.294725 -0.0
vn 0.747925 -0.663783 0.0
vn 0.747925 -0.663783 -0.0
vn 0.0 0.037709 -0.999289
vn 0.0 0.037709 -0.999289
vn 0.0 0.041786 -0.999127
vn 0.0 0.567188 0.823588
vn 0.0 0.567188 0.823588
vn 0.0 0.20354 0.979067
vn 0.0 0.037709 -0.999289
vn 0.0 0.045862 -0.998948
vn 0.0 0.041786 -0.999127
vn 0.0 0.041786 -0.999127
vn 0.0 0.045862 -0.998948
vn 0.0 0.049938 -0.998752
vn 0.0 0.045862 -0.998948
vn 0.0 0.049938 -0.998752
vn 0.0 0.049938 -0.998752
vn 0.0 0.567188 0.823588
vn 0.0 -0.280391 0.959886
vn 0.0 0.20354 0.979067
vn 0.0 0.20354 0.979067
vn 0.0 -0.280391 0.959886
vn 0.0 -0.630593 0.776114
vn 0.0 -0.280391 0.959886
vn 0.0 -0.630593 0.776114
vn 0.0 -0.630593 0.776114

# br_dryer, 42 grouped triangles

usemtl br_dryer.jpg
o br_dryer
g br_dryer

f 2/1/1 3/2/2 1/3/3
f 4/4/4 3/5/5 2/6/6
f 4/7/7 5/8/8 3/9/9
f 6/10/10 5/11/11 4/12/12
f 6/13/13 7/14/14 5/15/15
f 8/16/16 7/17/17 6/18/18
f 10/19/19 11/20/20 9/21/21
f 11/22/22 12/23/23 9/24/24
f 14/25/25 10/26/26 13/27/27
f 10/28/28 9/29/29 13/30/30
f 16/31/31 14/32/32 15/33/33
f 14/34/34 13/35/35 15/36/36
f 18/37/37 19/38/38 17/39/39
f 20/40/40 19/41/41 18/42/42
f 22/43/43 23/44/44 21/45/45
f 23/46/46 24/47/47 21/48/48
f 26/49/49 27/50/50 25/51/51
f 28/52/52 27/53/53 26/54/54
f 29/55/55 30/56/56 25/57/57
f 30/58/58 26/59/59 25/60/60
f 31/61/61 29/62/62 27/63/63
f 29/64/64 25/65/65 27/66/66
f 32/67/67 31/68/68 28/69/69
f 31/70/70 27/71/71 28/72/72
f 30/73/73 32/74/74 26/75/75
f 32/76/76 28/77/77 26/78/78
f 34/79/79 35/80/80 33/81/81
f 35/82/82 36/83/83 33/84/84
f 38/85/85 39/86/86 37/87/87
f 39/88/88 40/89/89 37/90/90
f 33/91/91 36/92/92 41/93/93
f 36/94/94 42/95/95 41/96/96
f 37/97/97 40/98/98 43/99/99
f 40/100/100 44/101/101 43/102/102
f 46/103/103 47/104/104 45/105/105
f 49/106/106 50/107/107 48/108/108
f 47/109/109 51/110/110 45/111/111
f 45/112/112 51/113/113 52/114/114
f 51/115/115 53/116/116 52/117/117
f 50/118/118 54/119/119 48/120/120
f 48/121/121 54/122/122 55/123/123
f 54/124/124 56/125/125 55/126/126
