# Wavefront OBJ file
# Exported by Misfit Model 3D 1.3.8
# Thu Mar 05 18:13:32 2015

mtllib clue.mtl

# 16 Vertices
v -1.62097 0.251407 -2.079658
v 0.118622 0.251407 -2.079658
v -1.62097 -0.21827 -2.084442
v 0.118622 -0.218271 -2.084442
v 0.118622 0.21827 -0.619784
v -1.62097 0.218271 -0.619784
v 0.118622 -0.251408 -0.624568
v -1.62097 -0.251407 -0.624568
v -1.62097 -0.21827 -2.084442
v 0.118622 -0.251408 -0.624568
v -1.62097 -0.251407 -0.624568
v 0.118622 -0.218271 -2.084442
v 0.118622 0.251407 -2.079658
v -1.62097 0.218271 -0.619784
v 0.118622 0.21827 -0.619784
v -1.62097 0.251407 -2.079658

# 36 Texture Coordinates
vt 1.0 0.0
vt 0.0 0.0
vt 0.0 1.0
vt 1.0 0.0
vt 0.0 0.0
vt 0.0 1.0
vt 1.0 0.0
vt 0.0 0.0
vt 0.0 1.0
vt 1.0 0.0
vt 0.0 0.0
vt 0.0 1.0
vt 0.0 1.0
vt 0.0 0.0
vt 1.0 0.0
vt 0.0 1.0
vt 0.0 0.0
vt 1.0 0.0
vt 0.0 1.0
vt 0.0 0.0
vt 1.0 0.0
vt 0.0 1.0
vt 0.0 0.0
vt 1.0 0.0
vt 0.0 1.0
vt 1.0 0.0
vt 0.0 0.0
vt 0.0 1.0
vt 1.0 1.0
vt 1.0 0.0
vt 1.0 1.0
vt 0.0 0.0
vt 1.0 0.0
vt 1.0 1.0
vt 0.0 1.0
vt 0.0 0.0

# 36 Vertex Normals
vn 0.0 0.010185 -0.999948
vn 0.0 0.010185 -0.999948
vn 0.0 0.010185 -0.999948
vn 0.0 0.010185 -0.999948
vn 0.0 0.010185 -0.999948
vn 0.0 0.010185 -0.999948
vn -0.0 -0.010185 0.999948
vn -0.0 -0.010185 0.999948
vn -0.0 -0.010185 0.999948
vn -0.0 -0.010185 0.999948
vn -0.0 -0.010185 0.999948
vn -0.0 -0.010185 0.999948
vn -1.0 0.0 -0.0
vn -1.0 0.0 -0.0
vn -1.0 0.0 -0.0
vn -1.0 0.0 -0.0
vn -1.0 0.0 -0.0
vn -1.0 0.0 -0.0
vn 1.0 0.0 -0.0
vn 1.0 0.0 -0.0
vn 1.0 0.0 -0.0
vn 1.0 0.0 -0.0
vn 1.0 0.0 0.0
vn 1.0 0.0 -0.0
vn -0.000001 -0.999743 -0.022693
vn -0.000001 -0.999743 -0.022693
vn -0.000001 -0.999743 -0.022693
vn -0.000001 -0.999743 -0.022693
vn -0.000001 -0.999743 -0.022693
vn -0.000001 -0.999743 -0.022693
vn 0.0 0.999743 0.022692
vn 0.0 0.999743 0.022692
vn 0.000001 0.999743 0.022693
vn 0.0 0.999743 0.022692
vn 0.0 0.999743 0.022692
vn 0.0 0.999743 0.022692

# ungrouped, 8 grouped triangles

o ungrouped
g ungrouped

f 1/1/1 2/2/2 3/3/3
f 2/4/4 4/5/5 3/6/6
f 5/7/7 6/8/8 7/9/9
f 6/10/10 8/11/11 7/12/12
f 3/13/13 6/14/14 1/15/15
f 3/16/16 8/17/17 6/18/18
f 7/19/19 2/20/20 5/21/21
f 7/22/22 4/23/23 2/24/24
# body, 4 grouped triangles

usemtl skin
o body
g body

f 9/25/25 10/26/26 11/27/27
f 9/28/28 12/29/29 10/30/30
f 13/31/31 14/32/32 15/33/33
f 13/34/34 16/35/35 14/36/36
