# Wavefront OBJ file
# Exported by Misfit Model 3D 1.3.8
# Wed Jan 14 13:56:55 2015

mtllib rug.mtl

# 4 Vertices
v -24.651852 0.0 -13.511111
v -24.651852 -0.0 14.222222
v 22.992593 0.0 -13.511111
v 22.992593 -0.0 14.222222

# 6 Texture Coordinates
vt 0.0 1.0
vt 0.0 0.0
vt 1.0 0.0
vt 1.0 0.0
vt 1.0 1.0
vt 0.0 1.0

# 6 Vertex Normals
vn -0.0 1.0 0.0
vn -0.0 1.0 0.0
vn -0.0 1.0 0.0
vn -0.0 1.0 0.0
vn -0.0 1.0 0.0
vn -0.0 1.0 0.0

# body, 2 grouped triangles

usemtl skin
o body
g body

f 1/1/1 2/2/2 4/3/3
f 4/4/4 3/5/5 1/6/6
