# Wavefront OBJ file
# Exported by Misfit Model 3D 1.3.8
# Mon Jan 12 21:39:25 2015

mtllib basket2.mtl

# 94 Vertices
v 9.40625 0.0 5.359375
v 9.406249 44.484375 5.359375
v 5.437499 44.484375 9.34375
v 5.4375 0.0 9.34375
v 0.0 0.0 10.796875
v -0.000001 44.484375 10.796875
v -5.437501 44.484375 9.34375
v -5.4375 -0.0 9.34375
v -9.40625 -0.0 5.359375
v -9.406251 44.484375 5.359375
v -9.40625 -0.0 -5.5
v -9.406251 44.484375 -5.5
v -5.437501 44.484375 -9.46875
v -5.4375 -0.0 -9.46875
v -0.0 0.0 -10.9375
v -0.000001 44.484375 -10.9375
v 5.437499 44.484375 -9.46875
v 5.4375 0.0 -9.46875
v 9.40625 0.0 -5.5
v 9.406249 44.484375 -5.5
v 5.718749 45.484375 9.671875
v 9.921874 45.484375 5.546875
v 10.874999 44.484375 -0.0625
v 11.453124 45.484375 -0.0625
v -0.000001 45.484375 11.171875
v -5.718751 45.484375 9.671875
v -9.921876 45.484375 5.546875
v -11.453126 45.484375 -0.0625
v -10.875001 44.484375 -0.0625
v -9.921876 45.484375 -5.6875
v -5.718751 45.484375 -9.796875
v -0.000002 45.484375 -11.3125
v 5.718749 45.484375 -9.796875
v 9.921874 45.484375 -5.6875
v 5.718749 47.15625 9.671875
v 9.921874 47.15625 5.546875
v 11.453124 47.15625 -0.0625
v -0.000001 47.15625 11.171875
v -5.718751 47.15625 9.671875
v -9.921876 47.15625 5.546875
v -11.453126 47.15625 -0.0625
v -9.921876 47.15625 -5.6875
v -5.718751 47.15625 -9.796875
v -0.000002 47.15625 -11.3125
v 5.718749 47.15625 -9.796875
v 9.921874 47.15625 -5.6875
v 5.468749 48.40625 9.03125
v 9.468749 48.40625 5.1875
v 10.937499 48.40625 -0.0625
v -0.000001 48.40625 10.4375
v -5.468751 48.40625 9.03125
v -9.468751 48.40625 5.1875
v -10.937501 48.40625 -0.0625
v -9.468752 48.40625 -5.3125
v -5.468751 48.40625 -9.15625
v -0.000002 48.40625 -10.5625
v 5.468749 48.40625 -9.15625
v 9.468748 48.40625 -5.3125
v 10.875 0.0 -0.0625
v 9.40625 0.0 5.359375
v 5.4375 0.0 9.34375
v 10.937499 48.40625 -0.0625
v 5.468749 48.40625 9.03125
v 9.468749 48.40625 5.1875
v 0.0 0.0 10.796875
v -0.000001 48.40625 10.4375
v -5.4375 -0.0 9.34375
v -5.468751 48.40625 9.03125
v -9.40625 -0.0 5.359375
v -9.468751 48.40625 5.1875
v -10.875 -0.0 -0.0625
v -10.937501 48.40625 -0.0625
v -9.40625 -0.0 -5.5
v -9.468752 48.40625 -5.3125
v -5.4375 -0.0 -9.46875
v -5.468751 48.40625 -9.15625
v -0.0 0.0 -10.9375
v -0.000002 48.40625 -10.5625
v 5.4375 0.0 -9.46875
v 5.468749 48.40625 -9.15625
v 9.40625 0.0 -5.5
v 9.468748 48.40625 -5.3125
v 10.875 0.0 -0.0625
v 10.874999 44.484375 -0.0625
v 9.40625 0.0 5.359375
v 9.406249 44.484375 5.359375
v -9.40625 -0.0 5.359375
v -9.406251 44.484375 5.359375
v -10.875001 44.484375 -0.0625
v -10.875 -0.0 -0.0625
v -9.40625 -0.0 -5.5
v -9.406251 44.484375 -5.5
v 9.40625 0.0 -5.5
v 9.406249 44.484375 -5.5

# 348 Texture Coordinates
vt 0.965434 0.973062
vt 0.903299 0.973062
vt 0.965434 0.662069
vt 0.903299 0.973062
vt 0.903299 0.662069
vt 0.965434 0.662069
vt 0.903299 0.973062
vt 0.81842 0.662069
vt 0.903299 0.662069
vt 0.81842 0.973062
vt 0.81842 0.662069
vt 0.903299 0.973062
vt 0.81842 0.973062
vt 0.733541 0.973062
vt 0.81842 0.662069
vt 0.733541 0.973062
vt 0.733541 0.662069
vt 0.81842 0.662069
vt 0.733541 0.973062
vt 0.671406 0.662069
vt 0.733541 0.662069
vt 0.671406 0.973062
vt 0.671406 0.662069
vt 0.733541 0.973062
vt 0.671406 0.973062
vt 0.733541 0.973062
vt 0.671406 0.662069
vt 0.733541 0.973062
vt 0.733541 0.662069
vt 0.671406 0.662069
vt 0.733541 0.973062
vt 0.81842 0.662069
vt 0.733541 0.662069
vt 0.81842 0.973062
vt 0.81842 0.662069
vt 0.733541 0.973062
vt 0.81842 0.973062
vt 0.903299 0.973062
vt 0.81842 0.662069
vt 0.903299 0.973062
vt 0.903299 0.662069
vt 0.81842 0.662069
vt 0.903299 0.973062
vt 0.965434 0.662069
vt 0.903299 0.662069
vt 0.965434 0.973062
vt 0.965434 0.662069
vt 0.903299 0.973062
vt 0.903299 0.973062
vt 0.965434 0.973062
vt 0.907864 0.98005
vt 0.965434 0.973062
vt 0.973341 0.98005
vt 0.907864 0.98005
vt 0.965434 0.973062
vt 0.988178 0.973062
vt 0.973341 0.98005
vt 0.988178 0.973062
vt 0.997308 0.98005
vt 0.973341 0.98005
vt 0.81842 0.973062
vt 0.903299 0.973062
vt 0.81842 0.98005
vt 0.903299 0.973062
vt 0.907864 0.98005
vt 0.81842 0.98005
vt 0.733541 0.973062
vt 0.81842 0.973062
vt 0.728976 0.98005
vt 0.81842 0.973062
vt 0.81842 0.98005
vt 0.728976 0.98005
vt 0.671406 0.973062
vt 0.733541 0.973062
vt 0.663499 0.98005
vt 0.733541 0.973062
vt 0.728976 0.98005
vt 0.663499 0.98005
vt 0.648663 0.973062
vt 0.671406 0.973062
vt 0.639533 0.98005
vt 0.671406 0.973062
vt 0.663499 0.98005
vt 0.639533 0.98005
vt 0.671406 0.973062
vt 0.648663 0.973062
vt 0.663499 0.98005
vt 0.648663 0.973062
vt 0.639533 0.98005
vt 0.663499 0.98005
vt 0.733541 0.973062
vt 0.671406 0.973062
vt 0.728976 0.98005
vt 0.671406 0.973062
vt 0.663499 0.98005
vt 0.728976 0.98005
vt 0.81842 0.973062
vt 0.733541 0.973062
vt 0.81842 0.98005
vt 0.733541 0.973062
vt 0.728976 0.98005
vt 0.81842 0.98005
vt 0.903299 0.973062
vt 0.81842 0.973062
vt 0.907864 0.98005
vt 0.81842 0.973062
vt 0.81842 0.98005
vt 0.907864 0.98005
vt 0.988178 0.973062
vt 0.965434 0.973062
vt 0.997308 0.98005
vt 0.965434 0.973062
vt 0.973341 0.98005
vt 0.997308 0.98005
vt 0.965434 0.973062
vt 0.903299 0.973062
vt 0.973341 0.98005
vt 0.903299 0.973062
vt 0.907864 0.98005
vt 0.973341 0.98005
vt 0.907864 0.98005
vt 0.973341 0.98005
vt 0.907864 0.991698
vt 0.973341 0.98005
vt 0.973341 0.991698
vt 0.907864 0.991698
vt 0.973341 0.98005
vt 0.997308 0.98005
vt 0.973341 0.991698
vt 0.997308 0.98005
vt 0.997308 0.991698
vt 0.973341 0.991698
vt 0.81842 0.98005
vt 0.907864 0.98005
vt 0.81842 0.991698
vt 0.907864 0.98005
vt 0.907864 0.991698
vt 0.81842 0.991698
vt 0.728976 0.98005
vt 0.81842 0.98005
vt 0.728976 0.991698
vt 0.81842 0.98005
vt 0.81842 0.991698
vt 0.728976 0.991698
vt 0.663499 0.98005
vt 0.728976 0.98005
vt 0.6635 0.991698
vt 0.728976 0.98005
vt 0.728976 0.991698
vt 0.6635 0.991698
vt 0.639533 0.98005
vt 0.663499 0.98005
vt 0.639533 0.991698
vt 0.663499 0.98005
vt 0.6635 0.991698
vt 0.639533 0.991698
vt 0.663499 0.98005
vt 0.639533 0.98005
vt 0.6635 0.991698
vt 0.639533 0.98005
vt 0.639533 0.991698
vt 0.6635 0.991698
vt 0.728976 0.98005
vt 0.663499 0.98005
vt 0.728976 0.991698
vt 0.663499 0.98005
vt 0.6635 0.991698
vt 0.728976 0.991698
vt 0.81842 0.98005
vt 0.728976 0.98005
vt 0.81842 0.991698
vt 0.728976 0.98005
vt 0.728976 0.991698
vt 0.81842 0.991698
vt 0.907864 0.98005
vt 0.81842 0.98005
vt 0.907864 0.991698
vt 0.81842 0.98005
vt 0.81842 0.991698
vt 0.907864 0.991698
vt 0.997308 0.98005
vt 0.973341 0.98005
vt 0.997308 0.991698
vt 0.973341 0.98005
vt 0.973341 0.991698
vt 0.997308 0.991698
vt 0.973341 0.98005
vt 0.907864 0.98005
vt 0.973341 0.991698
vt 0.907864 0.98005
vt 0.907864 0.991698
vt 0.973341 0.991698
vt 0.907864 0.991698
vt 0.973341 0.991698
vt 0.903812 1.000433
vt 0.973341 0.991698
vt 0.966323 1.000433
vt 0.903812 1.000433
vt 0.973341 0.991698
vt 0.997308 0.991698
vt 0.966323 1.000433
vt 0.997308 0.991698
vt 0.989203 1.000433
vt 0.966323 1.000433
vt 0.81842 0.991698
vt 0.907864 0.991698
vt 0.81842 1.000433
vt 0.907864 0.991698
vt 0.903812 1.000433
vt 0.81842 1.000433
vt 0.728976 0.991698
vt 0.81842 0.991698
vt 0.733029 1.000433
vt 0.81842 0.991698
vt 0.81842 1.000433
vt 0.733029 1.000433
vt 0.6635 0.991698
vt 0.728976 0.991698
vt 0.670519 1.000433
vt 0.728976 0.991698
vt 0.733029 1.000433
vt 0.670519 1.000433
vt 0.639533 0.991698
vt 0.6635 0.991698
vt 0.647638 1.000433
vt 0.6635 0.991698
vt 0.670519 1.000433
vt 0.647638 1.000433
vt 0.6635 0.991698
vt 0.639533 0.991698
vt 0.670519 1.000433
vt 0.639533 0.991698
vt 0.647638 1.000433
vt 0.670519 1.000433
vt 0.728976 0.991698
vt 0.6635 0.991698
vt 0.733029 1.000433
vt 0.6635 0.991698
vt 0.670519 1.000433
vt 0.733029 1.000433
vt 0.81842 0.991698
vt 0.728976 0.991698
vt 0.81842 1.000433
vt 0.728976 0.991698
vt 0.733029 1.000433
vt 0.81842 1.000433
vt 0.907864 0.991698
vt 0.81842 0.991698
vt 0.903812 1.000433
vt 0.81842 0.991698
vt 0.81842 1.000433
vt 0.903812 1.000433
vt 0.997308 0.991698
vt 0.973341 0.991698
vt 0.989203 1.000433
vt 0.973341 0.991698
vt 0.966323 1.000433
vt 0.989203 1.000433
vt 0.973341 0.991698
vt 0.907864 0.991698
vt 0.966323 1.000433
vt 0.907864 0.991698
vt 0.903812 1.000433
vt 0.966323 1.000433
vt 0.914528 0.754084
vt 0.871127 0.713623
vt 0.930413 0.809355
vt 0.871485 0.716841
vt 0.915147 0.755942
vt 0.93113 0.809355
vt 0.871127 0.713623
vt 0.81184 0.698813
vt 0.930413 0.809355
vt 0.81184 0.702529
vt 0.871485 0.716841
vt 0.93113 0.809355
vt 0.81184 0.698813
vt 0.752553 0.713623
vt 0.930413 0.809355
vt 0.752195 0.716841
vt 0.81184 0.702529
vt 0.93113 0.809355
vt 0.752553 0.713623
vt 0.709151 0.754084
vt 0.930413 0.809355
vt 0.708532 0.755942
vt 0.752195 0.716841
vt 0.93113 0.809355
vt 0.709151 0.754084
vt 0.693266 0.809355
vt 0.930413 0.809355
vt 0.69255 0.809355
vt 0.708532 0.755942
vt 0.93113 0.809355
vt 0.693266 0.809355
vt 0.709151 0.864626
vt 0.930413 0.809355
vt 0.708532 0.862768
vt 0.69255 0.809355
vt 0.93113 0.809355
vt 0.709151 0.864626
vt 0.752553 0.905087
vt 0.930413 0.809355
vt 0.752195 0.901869
vt 0.708532 0.862768
vt 0.93113 0.809355
vt 0.752553 0.905087
vt 0.81184 0.919896
vt 0.930413 0.809355
vt 0.81184 0.91618
vt 0.752195 0.901869
vt 0.93113 0.809355
vt 0.81184 0.919896
vt 0.871127 0.905087
vt 0.930413 0.809355
vt 0.871485 0.901869
vt 0.81184 0.91618
vt 0.93113 0.809355
vt 0.871127 0.905087
vt 0.914528 0.864626
vt 0.930413 0.809355
vt 0.915147 0.862768
vt 0.871485 0.901869
vt 0.93113 0.809355
vt 0.934504 0.995048
vt 0.871786 0.661809
vt 0.934504 0.661809
vt 0.871786 0.995048
vt 0.871786 0.661809
vt 0.934504 0.995048
vt 0.871786 0.995048
vt 0.934504 0.995048
vt 0.871786 0.661809
vt 0.934504 0.995048
vt 0.934504 0.661809
vt 0.871786 0.661809
vt 0.934504 0.995048
vt 0.997222 0.661809
vt 0.934504 0.661809
vt 0.997222 0.995048
vt 0.997222 0.661809
vt 0.934504 0.995048
vt 0.997222 0.995048
vt 0.934504 0.995048
vt 0.997222 0.661809
vt 0.934504 0.995048
vt 0.934504 0.661809
vt 0.997222 0.661809

# 348 Vertex Normals
vn 0.738829 -0.343883 0.579549
vn 0.460499 -0.165156 0.872161
vn 0.708495 0.0 0.705716
vn 0.460499 -0.165156 0.872161
vn 0.500565 0.0 0.865699
vn 0.708495 0.0 0.705716
vn 0.460499 -0.165156 0.872161
vn 0.0 0.0 1.0
vn 0.500565 0.0 0.865699
vn -0.049527 -0.218922 0.974485
vn 0.0 0.0 1.0
vn 0.460499 -0.165156 0.872161
vn -0.049527 -0.218922 0.974485
vn -0.520586 -0.181678 0.834256
vn 0.0 0.0 1.0
vn -0.520586 -0.181678 0.834256
vn -0.500565 -0.0 0.865699
vn 0.0 0.0 1.0
vn -0.520586 -0.181678 0.834256
vn -0.708495 -0.0 0.705716
vn -0.500565 -0.0 0.865699
vn -0.798532 -0.372015 0.473235
vn -0.708495 -0.0 0.705716
vn -0.520586 -0.181678 0.834256
vn -0.738048 -0.343879 -0.580545
vn -0.461106 -0.165093 -0.871852
vn -0.707107 -0.0 -0.707107
vn -0.461106 -0.165093 -0.871852
vn -0.500874 -0.0 -0.86552
vn -0.707107 -0.0 -0.707107
vn -0.461106 -0.165093 -0.871852
vn 0.0 -0.0 -1.0
vn -0.500874 -0.0 -0.86552
vn 0.050033 -0.219062 -0.974427
vn 0.0 -0.0 -1.0
vn -0.461106 -0.165093 -0.871852
vn 0.050033 -0.219062 -0.974427
vn 0.52064 -0.18159 -0.834242
vn 0.0 -0.0 -1.0
vn 0.52064 -0.18159 -0.834242
vn 0.500874 0.0 -0.86552
vn 0.0 -0.0 -1.0
vn 0.52064 -0.18159 -0.834242
vn 0.707107 0.0 -0.707107
vn 0.500874 0.0 -0.86552
vn 0.798189 -0.372054 -0.473782
vn 0.707107 0.0 -0.707107
vn 0.52064 -0.18159 -0.834242
vn 0.460499 -0.165156 0.872161
vn 0.738829 -0.343883 0.579549
vn 0.479382 -0.211561 0.851725
vn 0.738829 -0.343883 0.579549
vn 0.831704 -0.250501 0.495497
vn 0.479382 -0.211561 0.851725
vn 0.738829 -0.343883 0.579549
vn 0.864485 -0.496396 0.079098
vn 0.831704 -0.250501 0.495497
vn 0.864485 -0.496396 0.079098
vn 0.965898 -0.258843 0.006381
vn 0.831704 -0.250501 0.495497
vn -0.049527 -0.218922 0.974485
vn 0.460499 -0.165156 0.872161
vn -0.002275 -0.182598 0.983185
vn 0.460499 -0.165156 0.872161
vn 0.479382 -0.211561 0.851725
vn -0.002275 -0.182598 0.983185
vn -0.520586 -0.181678 0.834256
vn -0.049527 -0.218922 0.974485
vn -0.486823 -0.19284 0.851949
vn -0.049527 -0.218922 0.974485
vn -0.002275 -0.182598 0.983185
vn -0.486823 -0.19284 0.851949
vn -0.798532 -0.372015 0.473235
vn -0.520586 -0.181678 0.834256
vn -0.840959 -0.233731 0.488015
vn -0.520586 -0.181678 0.834256
vn -0.486823 -0.19284 0.851949
vn -0.840959 -0.233731 0.488015
vn -0.864547 -0.496388 -0.078471
vn -0.798532 -0.372015 0.473235
vn -0.965901 -0.258847 -0.005693
vn -0.798532 -0.372015 0.473235
vn -0.840959 -0.233731 0.488015
vn -0.965901 -0.258847 -0.005693
vn -0.738048 -0.343879 -0.580545
vn -0.864547 -0.496388 -0.078471
vn -0.831381 -0.250533 -0.496023
vn -0.864547 -0.496388 -0.078471
vn -0.965901 -0.258847 -0.005693
vn -0.831381 -0.250533 -0.496023
vn -0.461106 -0.165093 -0.871852
vn -0.738048 -0.343879 -0.580545
vn -0.479716 -0.211461 -0.851561
vn -0.738048 -0.343879 -0.580545
vn -0.831381 -0.250533 -0.496023
vn -0.479716 -0.211461 -0.851561
vn 0.050033 -0.219062 -0.974427
vn -0.461106 -0.165093 -0.871852
vn 0.002293 -0.182713 -0.983164
vn -0.461106 -0.165093 -0.871852
vn -0.479716 -0.211461 -0.851561
vn 0.002293 -0.182713 -0.983164
vn 0.52064 -0.18159 -0.834242
vn 0.050033 -0.219062 -0.974427
vn 0.487113 -0.192774 -0.851798
vn 0.050033 -0.219062 -0.974427
vn 0.002293 -0.182713 -0.983164
vn 0.487113 -0.192774 -0.851798
vn 0.864485 -0.496396 0.079098
vn 0.798189 -0.372054 -0.473782
vn 0.965898 -0.258843 0.006381
vn 0.798189 -0.372054 -0.473782
vn 0.840663 -0.233751 -0.488514
vn 0.965898 -0.258843 0.006381
vn 0.798189 -0.372054 -0.473782
vn 0.52064 -0.18159 -0.834242
vn 0.840663 -0.233751 -0.488514
vn 0.52064 -0.18159 -0.834242
vn 0.487113 -0.192774 -0.851798
vn 0.840663 -0.233751 -0.488514
vn 0.479382 -0.211561 0.851725
vn 0.831704 -0.250501 0.495497
vn 0.482703 0.252964 0.838455
vn 0.831704 -0.250501 0.495497
vn 0.842818 0.222451 0.490075
vn 0.482703 0.252964 0.838455
vn 0.831704 -0.250501 0.495497
vn 0.965898 -0.258843 0.006381
vn 0.842818 0.222451 0.490075
vn 0.965898 -0.258843 0.006381
vn 0.980043 0.198772 -0.002341
vn 0.842818 0.222451 0.490075
vn -0.002275 -0.182598 0.983185
vn 0.479382 -0.211561 0.851725
vn 0.006255 0.260849 0.965359
vn 0.479382 -0.211561 0.851725
vn 0.482703 0.252964 0.838455
vn 0.006255 0.260849 0.965359
vn -0.486823 -0.19284 0.851949
vn -0.002275 -0.182598 0.983185
vn -0.474905 0.238757 0.84703
vn -0.002275 -0.182598 0.983185
vn 0.006255 0.260849 0.965359
vn -0.474905 0.238757 0.84703
vn -0.840959 -0.233731 0.488015
vn -0.486823 -0.19284 0.851949
vn -0.841817 0.207507 0.498282
vn -0.486823 -0.19284 0.851949
vn -0.474905 0.238757 0.84703
vn -0.841817 0.207507 0.498282
vn -0.965901 -0.258847 -0.005693
vn -0.840959 -0.233731 0.488015
vn -0.979951 0.199216 0.002972
vn -0.840959 -0.233731 0.488015
vn -0.841817 0.207507 0.498282
vn -0.979951 0.199216 0.002972
vn -0.831381 -0.250533 -0.496023
vn -0.965901 -0.258847 -0.005693
vn -0.842385 0.224259 -0.489996
vn -0.965901 -0.258847 -0.005693
vn -0.979951 0.199216 0.002972
vn -0.842385 0.224259 -0.489996
vn -0.479716 -0.211461 -0.851561
vn -0.831381 -0.250533 -0.496023
vn -0.482582 0.254357 -0.838103
vn -0.831381 -0.250533 -0.496023
vn -0.842385 0.224259 -0.489996
vn -0.482582 0.254357 -0.838103
vn 0.002293 -0.182713 -0.983164
vn -0.479716 -0.211461 -0.851561
vn -0.006702 0.263965 -0.964509
vn -0.479716 -0.211461 -0.851561
vn -0.482582 0.254357 -0.838103
vn -0.006702 0.263965 -0.964509
vn 0.487113 -0.192774 -0.851798
vn 0.002293 -0.182713 -0.983164
vn 0.475207 0.239883 -0.846542
vn 0.002293 -0.182713 -0.983164
vn -0.006702 0.263965 -0.964509
vn 0.475207 0.239883 -0.846542
vn 0.965898 -0.258843 0.006381
vn 0.840663 -0.233751 -0.488514
vn 0.980043 0.198772 -0.002341
vn 0.840663 -0.233751 -0.488514
vn 0.841176 0.209278 -0.498623
vn 0.980043 0.198772 -0.002341
vn 0.840663 -0.233751 -0.488514
vn 0.487113 -0.192774 -0.851798
vn 0.841176 0.209278 -0.498623
vn 0.487113 -0.192774 -0.851798
vn 0.475207 0.239883 -0.846542
vn 0.841176 0.209278 -0.498623
vn 0.482703 0.252964 0.838455
vn 0.842818 0.222451 0.490075
vn 0.503136 0.460127 0.731531
vn 0.842818 0.222451 0.490075
vn 0.826285 0.403256 0.393239
vn 0.503136 0.460127 0.731531
vn 0.842818 0.222451 0.490075
vn 0.980043 0.198772 -0.002341
vn 0.826285 0.403256 0.393239
vn 0.980043 0.198772 -0.002341
vn 0.917602 0.388803 -0.082692
vn 0.826285 0.403256 0.393239
vn 0.006255 0.260849 0.965359
vn 0.482703 0.252964 0.838455
vn 0.075854 0.500008 0.862693
vn 0.482703 0.252964 0.838455
vn 0.503136 0.460127 0.731531
vn 0.075854 0.500008 0.862693
vn -0.474905 0.238757 0.84703
vn 0.006255 0.260849 0.965359
vn -0.360407 0.48668 0.795769
vn 0.006255 0.260849 0.965359
vn 0.075854 0.500008 0.862693
vn -0.360407 0.48668 0.795769
vn -0.841817 0.207507 0.498282
vn -0.474905 0.238757 0.84703
vn -0.732177 0.431959 0.52662
vn -0.474905 0.238757 0.84703
vn -0.360407 0.48668 0.795769
vn -0.732177 0.431959 0.52662
vn -0.979951 0.199216 0.002972
vn -0.841817 0.207507 0.498282
vn -0.917955 0.387899 0.083017
vn -0.841817 0.207507 0.498282
vn -0.732177 0.431959 0.52662
vn -0.917955 0.387899 0.083017
vn -0.842385 0.224259 -0.489996
vn -0.979951 0.199216 0.002972
vn -0.825256 0.406403 -0.392159
vn -0.979951 0.199216 0.002972
vn -0.917955 0.387899 0.083017
vn -0.825256 0.406403 -0.392159
vn -0.482582 0.254357 -0.838103
vn -0.842385 0.224259 -0.489996
vn -0.50184 0.462425 -0.730972
vn -0.842385 0.224259 -0.489996
vn -0.825256 0.406403 -0.392159
vn -0.50184 0.462425 -0.730972
vn -0.006702 0.263965 -0.964509
vn -0.482582 0.254357 -0.838103
vn -0.076587 0.505285 -0.859547
vn -0.482582 0.254357 -0.838103
vn -0.50184 0.462425 -0.730972
vn -0.076587 0.505285 -0.859547
vn 0.475207 0.239883 -0.846542
vn -0.006702 0.263965 -0.964509
vn 0.360722 0.48936 -0.793981
vn -0.006702 0.263965 -0.964509
vn -0.076587 0.505285 -0.859547
vn 0.360722 0.48936 -0.793981
vn 0.980043 0.198772 -0.002341
vn 0.841176 0.209278 -0.498623
vn 0.917602 0.388803 -0.082692
vn 0.841176 0.209278 -0.498623
vn 0.730639 0.4351 -0.52617
vn 0.917602 0.388803 -0.082692
vn 0.841176 0.209278 -0.498623
vn 0.475207 0.239883 -0.846542
vn 0.730639 0.4351 -0.52617
vn 0.475207 0.239883 -0.846542
vn 0.360722 0.48936 -0.793981
vn 0.730639 0.4351 -0.52617
vn 0.0 -1.0 -0.0
vn 0.0 -1.0 -0.0
vn 0.0 -1.0 -0.0
vn -0.0 1.0 0.0
vn -0.0 1.0 0.0
vn -0.0 1.0 0.0
vn 0.0 -1.0 -0.0
vn 0.0 -1.0 -0.0
vn 0.0 -1.0 -0.0
vn -0.0 1.0 0.0
vn -0.0 1.0 0.0
vn -0.0 1.0 0.0
vn 0.0 -1.0 -0.0
vn 0.0 -1.0 -0.0
vn 0.0 -1.0 -0.0
vn -0.0 1.0 0.0
vn -0.0 1.0 0.0
vn -0.0 1.0 0.0
vn 0.0 -1.0 -0.0
vn 0.0 -1.0 -0.0
vn 0.0 -1.0 -0.0
vn -0.0 1.0 0.0
vn -0.0 1.0 0.0
vn -0.0 1.0 0.0
vn 0.0 -1.0 -0.0
vn 0.0 -1.0 -0.0
vn 0.0 -1.0 -0.0
vn -0.0 1.0 0.0
vn -0.0 1.0 0.0
vn -0.0 1.0 0.0
vn 0.0 -1.0 -0.0
vn 0.0 -1.0 -0.0
vn 0.0 -1.0 -0.0
vn -0.0 1.0 0.0
vn -0.0 1.0 0.0
vn -0.0 1.0 0.0
vn 0.0 -1.0 -0.0
vn 0.0 -1.0 0.0
vn 0.0 -1.0 -0.0
vn -0.0 1.0 0.0
vn -0.0 1.0 0.0
vn -0.0 1.0 0.0
vn 0.0 -1.0 0.0
vn 0.0 -1.0 -0.0
vn 0.0 -1.0 -0.0
vn -0.0 1.0 0.0
vn -0.0 1.0 0.0
vn -0.0 1.0 0.0
vn 0.0 -1.0 -0.0
vn 0.0 -1.0 0.0
vn 0.0 -1.0 -0.0
vn -0.0 1.0 0.0
vn -0.0 1.0 0.0
vn -0.0 1.0 0.0
vn 0.0 -1.0 0.0
vn 0.0 -1.0 0.0
vn 0.0 -1.0 -0.0
vn -0.000001 1.0 0.0
vn -0.0 1.0 0.0
vn -0.0 1.0 0.0
vn 1.0 0.0 0.000363
vn 0.965212 0.0 0.261469
vn 1.0 0.0 0.000363
vn 0.965212 0.0 0.261469
vn 0.965212 0.0 0.261469
vn 1.0 0.0 0.000363
vn -0.965212 -0.0 0.26147
vn -1.0 -0.0 0.000363
vn -0.965212 -0.0 0.261469
vn -1.0 -0.0 0.000363
vn -1.0 -0.0 0.000363
vn -0.965212 -0.0 0.261469
vn -1.0 -0.0 0.000363
vn -0.965401 -0.0 -0.260769
vn -1.0 -0.0 0.000363
vn -0.965401 -0.0 -0.260769
vn -0.965401 -0.0 -0.260769
vn -1.0 -0.0 0.000363
vn 0.965401 0.0 -0.260769
vn 1.0 0.0 0.000363
vn 0.965401 0.0 -0.260769
vn 1.0 0.0 0.000363
vn 1.0 0.0 0.000363
vn 0.965401 0.0 -0.260769

# Regroup02, 116 grouped triangles

usemtl br_baskets.jpg
o Regroup02
g Regroup02

f 2/1/1 3/2/2 1/3/3
f 3/4/4 4/5/5 1/6/6
f 3/7/7 5/8/8 4/9/9
f 6/10/10 5/11/11 3/12/12
f 6/13/13 7/14/14 5/15/15
f 7/16/16 8/17/17 5/18/18
f 7/19/19 9/20/20 8/21/21
f 10/22/22 9/23/23 7/24/24
f 12/25/25 13/26/26 11/27/27
f 13/28/28 14/29/29 11/30/30
f 13/31/31 15/32/32 14/33/33
f 16/34/34 15/35/35 13/36/36
f 16/37/37 17/38/38 15/39/39
f 17/40/40 18/41/41 15/42/42
f 17/43/43 19/44/44 18/45/45
f 20/46/46 19/47/47 17/48/48
f 3/49/49 2/50/50 21/51/51
f 2/52/52 22/53/53 21/54/54
f 2/55/55 23/56/56 22/57/57
f 23/58/58 24/59/59 22/60/60
f 6/61/61 3/62/62 25/63/63
f 3/64/64 21/65/65 25/66/66
f 7/67/67 6/68/68 26/69/69
f 6/70/70 25/71/71 26/72/72
f 10/73/73 7/74/74 27/75/75
f 7/76/76 26/77/77 27/78/78
f 29/79/79 10/80/80 28/81/81
f 10/82/82 27/83/83 28/84/84
f 12/85/85 29/86/86 30/87/87
f 29/88/88 28/89/89 30/90/90
f 13/91/91 12/92/92 31/93/93
f 12/94/94 30/95/95 31/96/96
f 16/97/97 13/98/98 32/99/99
f 13/100/100 31/101/101 32/102/102
f 17/103/103 16/104/104 33/105/105
f 16/106/106 32/107/107 33/108/108
f 23/109/109 20/110/110 24/111/111
f 20/112/112 34/113/113 24/114/114
f 20/115/115 17/116/116 34/117/117
f 17/118/118 33/119/119 34/120/120
f 21/121/121 22/122/122 35/123/123
f 22/124/124 36/125/125 35/126/126
f 22/127/127 24/128/128 36/129/129
f 24/130/130 37/131/131 36/132/132
f 25/133/133 21/134/134 38/135/135
f 21/136/136 35/137/137 38/138/138
f 26/139/139 25/140/140 39/141/141
f 25/142/142 38/143/143 39/144/144
f 27/145/145 26/146/146 40/147/147
f 26/148/148 39/149/149 40/150/150
f 28/151/151 27/152/152 41/153/153
f 27/154/154 40/155/155 41/156/156
f 30/157/157 28/158/158 42/159/159
f 28/160/160 41/161/161 42/162/162
f 31/163/163 30/164/164 43/165/165
f 30/166/166 42/167/167 43/168/168
f 32/169/169 31/170/170 44/171/171
f 31/172/172 43/173/173 44/174/174
f 33/175/175 32/176/176 45/177/177
f 32/178/178 44/179/179 45/180/180
f 24/181/181 34/182/182 37/183/183
f 34/184/184 46/185/185 37/186/186
f 34/187/187 33/188/188 46/189/189
f 33/190/190 45/191/191 46/192/192
f 35/193/193 36/194/194 47/195/195
f 36/196/196 48/197/197 47/198/198
f 36/199/199 37/200/200 48/201/201
f 37/202/202 49/203/203 48/204/204
f 38/205/205 35/206/206 50/207/207
f 35/208/208 47/209/209 50/210/210
f 39/211/211 38/212/212 51/213/213
f 38/214/214 50/215/215 51/216/216
f 40/217/217 39/218/218 52/219/219
f 39/220/220 51/221/221 52/222/222
f 41/223/223 40/224/224 53/225/225
f 40/226/226 52/227/227 53/228/228
f 42/229/229 41/230/230 54/231/231
f 41/232/232 53/233/233 54/234/234
f 43/235/235 42/236/236 55/237/237
f 42/238/238 54/239/239 55/240/240
f 44/241/241 43/242/242 56/243/243
f 43/244/244 55/245/245 56/246/246
f 45/247/247 44/248/248 57/249/249
f 44/250/250 56/251/251 57/252/252
f 37/253/253 46/254/254 49/255/255
f 46/256/256 58/257/257 49/258/258
f 46/259/259 45/260/260 58/261/261
f 45/262/262 57/263/263 58/264/264
f 60/265/265 61/266/266 59/267/267
f 63/268/268 64/269/269 62/270/270
f 61/271/271 65/272/272 59/273/273
f 66/274/274 63/275/275 62/276/276
f 65/277/277 67/278/278 59/279/279
f 68/280/280 66/281/281 62/282/282
f 67/283/283 69/284/284 59/285/285
f 70/286/286 68/287/287 62/288/288
f 69/289/289 71/290/290 59/291/291
f 72/292/292 70/293/293 62/294/294
f 71/295/295 73/296/296 59/297/297
f 74/298/298 72/299/299 62/300/300
f 73/301/301 75/302/302 59/303/303
f 76/304/304 74/305/305 62/306/306
f 75/307/307 77/308/308 59/309/309
f 78/310/310 76/311/311 62/312/312
f 77/313/313 79/314/314 59/315/315
f 80/316/316 78/317/317 62/318/318
f 79/319/319 81/320/320 59/321/321
f 82/322/322 80/323/323 62/324/324
f 84/325/325 85/326/326 83/327/327
f 86/328/328 85/329/329 84/330/330
f 88/331/331 89/332/332 87/333/333
f 89/334/334 90/335/335 87/336/336
f 89/337/337 91/338/338 90/339/339
f 92/340/340 91/341/341 89/342/342
f 94/343/343 84/344/344 93/345/345
f 84/346/346 83/347/347 93/348/348
