# Wavefront OBJ file
# Exported by Misfit Model 3D 1.3.8
# Mon Jan 12 21:39:08 2015

mtllib basket1.mtl

# 84 Vertices
v 10.875 0.0 -0.0625
v 10.874999 44.484375 -0.0625
v 9.40625 0.0 5.359375
v 9.406249 44.484375 5.359375
v 5.437499 44.484375 9.34375
v 5.4375 0.0 9.34375
v 0.0 0.0 10.796875
v -0.000001 44.484375 10.796875
v -5.437501 44.484375 9.34375
v -5.4375 -0.0 9.34375
v -9.40625 -0.0 5.359375
v -9.406251 44.484375 5.359375
v -10.875001 44.484375 -0.0625
v -10.875 -0.0 -0.0625
v -9.40625 -0.0 -5.5
v -9.406251 44.484375 -5.5
v -5.437501 44.484375 -9.46875
v -5.4375 -0.0 -9.46875
v -0.0 0.0 -10.9375
v -0.000001 44.484375 -10.9375
v 5.437499 44.484375 -9.46875
v 5.4375 0.0 -9.46875
v 9.40625 0.0 -5.5
v 9.406249 44.484375 -5.5
v 5.718749 45.484375 9.671875
v 9.921874 45.484375 5.546875
v 11.453124 45.484375 -0.0625
v -0.000001 45.484375 11.171875
v -5.718751 45.484375 9.671875
v -9.921876 45.484375 5.546875
v -11.453126 45.484375 -0.0625
v -9.921876 45.484375 -5.6875
v -5.718751 45.484375 -9.796875
v -0.000002 45.484375 -11.3125
v 5.718749 45.484375 -9.796875
v 9.921874 45.484375 -5.6875
v 5.718749 47.15625 9.671875
v 9.921874 47.15625 5.546875
v 11.453124 47.15625 -0.0625
v -0.000001 47.15625 11.171875
v -5.718751 47.15625 9.671875
v -9.921876 47.15625 5.546875
v -11.453126 47.15625 -0.0625
v -9.921876 47.15625 -5.6875
v -5.718751 47.15625 -9.796875
v -0.000002 47.15625 -11.3125
v 5.718749 47.15625 -9.796875
v 9.921874 47.15625 -5.6875
v 5.468749 48.40625 9.03125
v 9.468749 48.40625 5.1875
v 10.937499 48.40625 -0.0625
v -0.000001 48.40625 10.4375
v -5.468751 48.40625 9.03125
v -9.468751 48.40625 5.1875
v -10.937501 48.40625 -0.0625
v -9.468752 48.40625 -5.3125
v -5.468751 48.40625 -9.15625
v -0.000002 48.40625 -10.5625
v 5.468749 48.40625 -9.15625
v 9.468748 48.40625 -5.3125
v 10.875 0.0 -0.0625
v 9.40625 0.0 5.359375
v 5.4375 0.0 9.34375
v 10.937499 48.40625 -0.0625
v 5.468749 48.40625 9.03125
v 9.468749 48.40625 5.1875
v 0.0 0.0 10.796875
v -0.000001 48.40625 10.4375
v -5.4375 -0.0 9.34375
v -5.468751 48.40625 9.03125
v -9.40625 -0.0 5.359375
v -9.468751 48.40625 5.1875
v -10.875 -0.0 -0.0625
v -10.937501 48.40625 -0.0625
v -9.40625 -0.0 -5.5
v -9.468752 48.40625 -5.3125
v -5.4375 -0.0 -9.46875
v -5.468751 48.40625 -9.15625
v -0.0 0.0 -10.9375
v -0.000002 48.40625 -10.5625
v 5.4375 0.0 -9.46875
v 5.468749 48.40625 -9.15625
v 9.40625 0.0 -5.5
v 9.468748 48.40625 -5.3125

# 348 Texture Coordinates
vt 0.285903 0.968676
vt 0.267427 0.667819
vt 0.285903 0.667819
vt 0.267427 0.968676
vt 0.267427 0.667819
vt 0.285903 0.968676
vt 0.267427 0.968676
vt 0.216951 0.968676
vt 0.267427 0.667819
vt 0.216951 0.968676
vt 0.216951 0.667819
vt 0.267427 0.667819
vt 0.216951 0.968676
vt 0.148 0.667819
vt 0.216951 0.667819
vt 0.148 0.968676
vt 0.148 0.667819
vt 0.216951 0.968676
vt 0.148 0.968676
vt 0.079048 0.968676
vt 0.148 0.667819
vt 0.079048 0.968676
vt 0.079048 0.667819
vt 0.148 0.667819
vt 0.079048 0.968676
vt 0.028573 0.667819
vt 0.079048 0.667819
vt 0.028573 0.968676
vt 0.028573 0.667819
vt 0.079048 0.968676
vt 0.028573 0.968676
vt 0.010098 0.968676
vt 0.028573 0.667819
vt 0.010098 0.968676
vt 0.010098 0.667819
vt 0.028573 0.667819
vt 0.010098 0.968676
vt 0.028573 0.667819
vt 0.010098 0.667819
vt 0.028573 0.968676
vt 0.028573 0.667819
vt 0.010098 0.968676
vt 0.028573 0.968676
vt 0.079048 0.968676
vt 0.028573 0.667819
vt 0.079048 0.968676
vt 0.079048 0.667819
vt 0.028573 0.667819
vt 0.079048 0.968676
vt 0.148 0.667819
vt 0.079048 0.667819
vt 0.148 0.968676
vt 0.148 0.667819
vt 0.079048 0.968676
vt 0.148 0.968676
vt 0.216951 0.968676
vt 0.148 0.667819
vt 0.216951 0.968676
vt 0.216951 0.667819
vt 0.148 0.667819
vt 0.216951 0.968676
vt 0.267427 0.667819
vt 0.216951 0.667819
vt 0.267427 0.968676
vt 0.267427 0.667819
vt 0.216951 0.968676
vt 0.267427 0.968676
vt 0.285903 0.968676
vt 0.267427 0.667819
vt 0.285903 0.968676
vt 0.285903 0.667819
vt 0.267427 0.667819
vt 0.216951 0.968676
vt 0.267427 0.968676
vt 0.220659 0.975437
vt 0.267427 0.968676
vt 0.27385 0.975437
vt 0.220659 0.975437
vt 0.267427 0.968676
vt 0.285903 0.968676
vt 0.27385 0.975437
vt 0.285903 0.968676
vt 0.29332 0.975437
vt 0.27385 0.975437
vt 0.148 0.968676
vt 0.216951 0.968676
vt 0.148 0.975437
vt 0.216951 0.968676
vt 0.220659 0.975437
vt 0.148 0.975437
vt 0.079048 0.968676
vt 0.148 0.968676
vt 0.07534 0.975437
vt 0.148 0.968676
vt 0.148 0.975437
vt 0.07534 0.975437
vt 0.028573 0.968676
vt 0.079048 0.968676
vt 0.022149 0.975437
vt 0.079048 0.968676
vt 0.07534 0.975437
vt 0.022149 0.975437
vt 0.010098 0.968676
vt 0.028573 0.968676
vt 0.00268 0.975437
vt 0.028573 0.968676
vt 0.022149 0.975437
vt 0.00268 0.975437
vt 0.028573 0.968676
vt 0.010098 0.968676
vt 0.022149 0.975437
vt 0.010098 0.968676
vt 0.00268 0.975437
vt 0.022149 0.975437
vt 0.079048 0.968676
vt 0.028573 0.968676
vt 0.07534 0.975437
vt 0.028573 0.968676
vt 0.022149 0.975437
vt 0.07534 0.975437
vt 0.148 0.968676
vt 0.079048 0.968676
vt 0.148 0.975437
vt 0.079048 0.968676
vt 0.07534 0.975437
vt 0.148 0.975437
vt 0.216951 0.968676
vt 0.148 0.968676
vt 0.220659 0.975437
vt 0.148 0.968676
vt 0.148 0.975437
vt 0.220659 0.975437
vt 0.285903 0.968676
vt 0.267427 0.968676
vt 0.29332 0.975437
vt 0.267427 0.968676
vt 0.27385 0.975437
vt 0.29332 0.975437
vt 0.267427 0.968676
vt 0.216951 0.968676
vt 0.27385 0.975437
vt 0.216951 0.968676
vt 0.220659 0.975437
vt 0.27385 0.975437
vt 0.220659 0.975437
vt 0.27385 0.975437
vt 0.22066 0.986705
vt 0.27385 0.975437
vt 0.27385 0.986705
vt 0.22066 0.986705
vt 0.27385 0.975437
vt 0.29332 0.975437
vt 0.27385 0.986705
vt 0.29332 0.975437
vt 0.29332 0.986705
vt 0.27385 0.986705
vt 0.148 0.975437
vt 0.220659 0.975437
vt 0.148 0.986705
vt 0.220659 0.975437
vt 0.22066 0.986705
vt 0.148 0.986705
vt 0.07534 0.975437
vt 0.148 0.975437
vt 0.075339 0.986705
vt 0.148 0.975437
vt 0.148 0.986705
vt 0.075339 0.986705
vt 0.022149 0.975437
vt 0.07534 0.975437
vt 0.02215 0.986705
vt 0.07534 0.975437
vt 0.075339 0.986705
vt 0.02215 0.986705
vt 0.00268 0.975437
vt 0.022149 0.975437
vt 0.00268 0.986705
vt 0.022149 0.975437
vt 0.02215 0.986705
vt 0.00268 0.986705
vt 0.022149 0.975437
vt 0.00268 0.975437
vt 0.02215 0.986705
vt 0.00268 0.975437
vt 0.00268 0.986705
vt 0.02215 0.986705
vt 0.07534 0.975437
vt 0.022149 0.975437
vt 0.075339 0.986705
vt 0.022149 0.975437
vt 0.02215 0.986705
vt 0.075339 0.986705
vt 0.148 0.975437
vt 0.07534 0.975437
vt 0.148 0.986705
vt 0.07534 0.975437
vt 0.075339 0.986705
vt 0.148 0.986705
vt 0.220659 0.975437
vt 0.148 0.975437
vt 0.22066 0.986705
vt 0.148 0.975437
vt 0.148 0.986705
vt 0.22066 0.986705
vt 0.29332 0.975437
vt 0.27385 0.975437
vt 0.29332 0.986705
vt 0.27385 0.975437
vt 0.27385 0.986705
vt 0.29332 0.986705
vt 0.27385 0.975437
vt 0.220659 0.975437
vt 0.27385 0.986705
vt 0.220659 0.975437
vt 0.22066 0.986705
vt 0.27385 0.986705
vt 0.22066 0.986705
vt 0.27385 0.986705
vt 0.217368 0.995156
vt 0.27385 0.986705
vt 0.268149 0.995156
vt 0.217368 0.995156
vt 0.27385 0.986705
vt 0.29332 0.986705
vt 0.268149 0.995156
vt 0.29332 0.986705
vt 0.286735 0.995156
vt 0.268149 0.995156
vt 0.148 0.986705
vt 0.22066 0.986705
vt 0.148 0.995156
vt 0.22066 0.986705
vt 0.217368 0.995156
vt 0.148 0.995156
vt 0.075339 0.986705
vt 0.148 0.986705
vt 0.078632 0.995156
vt 0.148 0.986705
vt 0.148 0.995156
vt 0.078632 0.995156
vt 0.02215 0.986705
vt 0.075339 0.986705
vt 0.027852 0.995156
vt 0.075339 0.986705
vt 0.078632 0.995156
vt 0.027852 0.995156
vt 0.00268 0.986705
vt 0.02215 0.986705
vt 0.009265 0.995156
vt 0.02215 0.986705
vt 0.027852 0.995156
vt 0.009265 0.995156
vt 0.02215 0.986705
vt 0.00268 0.986705
vt 0.027852 0.995156
vt 0.00268 0.986705
vt 0.009265 0.995156
vt 0.027852 0.995156
vt 0.075339 0.986705
vt 0.02215 0.986705
vt 0.078632 0.995156
vt 0.02215 0.986705
vt 0.027852 0.995156
vt 0.078632 0.995156
vt 0.148 0.986705
vt 0.075339 0.986705
vt 0.148 0.995156
vt 0.075339 0.986705
vt 0.078632 0.995156
vt 0.148 0.995156
vt 0.22066 0.986705
vt 0.148 0.986705
vt 0.217368 0.995156
vt 0.148 0.986705
vt 0.148 0.995156
vt 0.217368 0.995156
vt 0.29332 0.986705
vt 0.27385 0.986705
vt 0.286735 0.995156
vt 0.27385 0.986705
vt 0.268149 0.995156
vt 0.286735 0.995156
vt 0.27385 0.986705
vt 0.22066 0.986705
vt 0.268149 0.995156
vt 0.22066 0.986705
vt 0.217368 0.995156
vt 0.268149 0.995156
vt 0.550218 0.849271
vt 0.51491 0.814229
vt 0.563141 0.897138
vt 0.515202 0.817016
vt 0.550722 0.85088
vt 0.563723 0.897138
vt 0.51491 0.814229
vt 0.466679 0.801403
vt 0.563141 0.897138
vt 0.466679 0.804621
vt 0.515202 0.817016
vt 0.563723 0.897138
vt 0.466679 0.801403
vt 0.418449 0.814229
vt 0.563141 0.897138
vt 0.418157 0.817016
vt 0.466679 0.804621
vt 0.563723 0.897138
vt 0.418449 0.814229
vt 0.383141 0.849271
vt 0.563141 0.897138
vt 0.382637 0.85088
vt 0.418157 0.817016
vt 0.563723 0.897138
vt 0.383141 0.849271
vt 0.370218 0.897138
vt 0.563141 0.897138
vt 0.369636 0.897138
vt 0.382637 0.85088
vt 0.563723 0.897138
vt 0.370218 0.897138
vt 0.383141 0.945005
vt 0.563141 0.897138
vt 0.382637 0.943396
vt 0.369636 0.897138
vt 0.563723 0.897138
vt 0.383141 0.945005
vt 0.418449 0.980046
vt 0.563141 0.897138
vt 0.418157 0.97726
vt 0.382637 0.943396
vt 0.563723 0.897138
vt 0.418449 0.980046
vt 0.466679 0.992872
vt 0.563141 0.897138
vt 0.466679 0.989654
vt 0.418157 0.97726
vt 0.563723 0.897138
vt 0.466679 0.992872
vt 0.51491 0.980046
vt 0.563141 0.897138
vt 0.515202 0.97726
vt 0.466679 0.989654
vt 0.563723 0.897138
vt 0.51491 0.980046
vt 0.550218 0.945005
vt 0.563141 0.897138
vt 0.550722 0.943396
vt 0.515202 0.97726
vt 0.563723 0.897138

# 348 Vertex Normals
vn 0.974483 -0.221632 0.035529
vn 0.86583 0.0 0.500338
vn 1.0 0.0 0.000363
vn 0.80369 -0.279032 0.52557
vn 0.86583 0.0 0.500338
vn 0.974483 -0.221632 0.035529
vn 0.80369 -0.279032 0.52557
vn 0.460499 -0.165156 0.872161
vn 0.86583 0.0 0.500338
vn 0.460499 -0.165156 0.872161
vn 0.500565 0.0 0.865699
vn 0.86583 0.0 0.500338
vn 0.460499 -0.165156 0.872161
vn 0.0 0.0 1.0
vn 0.500565 0.0 0.865699
vn -0.049527 -0.218922 0.974485
vn 0.0 0.0 1.0
vn 0.460499 -0.165156 0.872161
vn -0.049527 -0.218922 0.974485
vn -0.520586 -0.181678 0.834256
vn 0.0 0.0 1.0
vn -0.520586 -0.181678 0.834256
vn -0.500565 -0.0 0.865699
vn 0.0 0.0 1.0
vn -0.520586 -0.181678 0.834256
vn -0.86583 -0.0 0.500338
vn -0.500565 -0.0 0.865699
vn -0.848176 -0.299729 0.436762
vn -0.86583 -0.0 0.500338
vn -0.520586 -0.181678 0.834256
vn -0.848176 -0.299729 0.436762
vn -0.974509 -0.221628 -0.034822
vn -0.86583 -0.0 0.500338
vn -0.974509 -0.221628 -0.034822
vn -1.0 -0.0 0.000363
vn -0.86583 -0.0 0.500338
vn -0.974509 -0.221628 -0.034822
vn -0.86552 -0.0 -0.500874
vn -1.0 -0.0 0.000363
vn -0.803211 -0.279054 -0.526289
vn -0.86552 -0.0 -0.500874
vn -0.974509 -0.221628 -0.034822
vn -0.803211 -0.279054 -0.526289
vn -0.461106 -0.165093 -0.871852
vn -0.86552 -0.0 -0.500874
vn -0.461106 -0.165093 -0.871852
vn -0.500874 -0.0 -0.86552
vn -0.86552 -0.0 -0.500874
vn -0.461106 -0.165093 -0.871852
vn 0.0 -0.0 -1.0
vn -0.500874 -0.0 -0.86552
vn 0.050033 -0.219062 -0.974427
vn 0.0 -0.0 -1.0
vn -0.461106 -0.165093 -0.871852
vn 0.050033 -0.219062 -0.974427
vn 0.52064 -0.18159 -0.834242
vn 0.0 -0.0 -1.0
vn 0.52064 -0.18159 -0.834242
vn 0.500874 0.0 -0.86552
vn 0.0 -0.0 -1.0
vn 0.52064 -0.18159 -0.834242
vn 0.86552 0.0 -0.500874
vn 0.500874 0.0 -0.86552
vn 0.848004 -0.299762 -0.437072
vn 0.86552 0.0 -0.500874
vn 0.52064 -0.18159 -0.834242
vn 0.848004 -0.299762 -0.437072
vn 0.974483 -0.221632 0.035529
vn 0.86552 0.0 -0.500874
vn 0.974483 -0.221632 0.035529
vn 1.0 0.0 0.000363
vn 0.86552 0.0 -0.500874
vn 0.460499 -0.165156 0.872161
vn 0.80369 -0.279032 0.52557
vn 0.479382 -0.211561 0.851725
vn 0.80369 -0.279032 0.52557
vn 0.831704 -0.250501 0.495497
vn 0.479382 -0.211561 0.851725
vn 0.80369 -0.279032 0.52557
vn 0.974483 -0.221632 0.035529
vn 0.831704 -0.250501 0.495497
vn 0.974483 -0.221632 0.035529
vn 0.965898 -0.258843 0.006381
vn 0.831704 -0.250501 0.495497
vn -0.049527 -0.218922 0.974485
vn 0.460499 -0.165156 0.872161
vn -0.002275 -0.182598 0.983185
vn 0.460499 -0.165156 0.872161
vn 0.479382 -0.211561 0.851725
vn -0.002275 -0.182598 0.983185
vn -0.520586 -0.181678 0.834256
vn -0.049527 -0.218922 0.974485
vn -0.486823 -0.19284 0.851949
vn -0.049527 -0.218922 0.974485
vn -0.002275 -0.182598 0.983185
vn -0.486823 -0.19284 0.851949
vn -0.848176 -0.299729 0.436762
vn -0.520586 -0.181678 0.834256
vn -0.840959 -0.233731 0.488015
vn -0.520586 -0.181678 0.834256
vn -0.486823 -0.19284 0.851949
vn -0.840959 -0.233731 0.488015
vn -0.974509 -0.221628 -0.034822
vn -0.848176 -0.299729 0.436762
vn -0.965901 -0.258847 -0.005693
vn -0.848176 -0.299729 0.436762
vn -0.840959 -0.233731 0.488015
vn -0.965901 -0.258847 -0.005693
vn -0.803211 -0.279054 -0.526289
vn -0.974509 -0.221628 -0.034822
vn -0.831381 -0.250533 -0.496023
vn -0.974509 -0.221628 -0.034822
vn -0.965901 -0.258847 -0.005693
vn -0.831381 -0.250533 -0.496023
vn -0.461106 -0.165093 -0.871852
vn -0.803211 -0.279054 -0.526289
vn -0.479716 -0.211461 -0.851561
vn -0.803211 -0.279054 -0.526289
vn -0.831381 -0.250533 -0.496023
vn -0.479716 -0.211461 -0.851561
vn 0.050033 -0.219062 -0.974427
vn -0.461106 -0.165093 -0.871852
vn 0.002293 -0.182713 -0.983164
vn -0.461106 -0.165093 -0.871852
vn -0.479716 -0.211461 -0.851561
vn 0.002293 -0.182713 -0.983164
vn 0.52064 -0.18159 -0.834242
vn 0.050033 -0.219062 -0.974427
vn 0.487113 -0.192774 -0.851798
vn 0.050033 -0.219062 -0.974427
vn 0.002293 -0.182713 -0.983164
vn 0.487113 -0.192774 -0.851798
vn 0.974483 -0.221632 0.035529
vn 0.848004 -0.299762 -0.437072
vn 0.965898 -0.258843 0.006381
vn 0.848004 -0.299762 -0.437072
vn 0.840663 -0.233751 -0.488514
vn 0.965898 -0.258843 0.006381
vn 0.848004 -0.299762 -0.437072
vn 0.52064 -0.18159 -0.834242
vn 0.840663 -0.233751 -0.488514
vn 0.52064 -0.18159 -0.834242
vn 0.487113 -0.192774 -0.851798
vn 0.840663 -0.233751 -0.488514
vn 0.479382 -0.211561 0.851725
vn 0.831704 -0.250501 0.495497
vn 0.482703 0.252964 0.838455
vn 0.831704 -0.250501 0.495497
vn 0.842818 0.222451 0.490075
vn 0.482703 0.252964 0.838455
vn 0.831704 -0.250501 0.495497
vn 0.965898 -0.258843 0.006381
vn 0.842818 0.222451 0.490075
vn 0.965898 -0.258843 0.006381
vn 0.980043 0.198772 -0.002341
vn 0.842818 0.222451 0.490075
vn -0.002275 -0.182598 0.983185
vn 0.479382 -0.211561 0.851725
vn 0.006255 0.260849 0.965359
vn 0.479382 -0.211561 0.851725
vn 0.482703 0.252964 0.838455
vn 0.006255 0.260849 0.965359
vn -0.486823 -0.19284 0.851949
vn -0.002275 -0.182598 0.983185
vn -0.474905 0.238757 0.84703
vn -0.002275 -0.182598 0.983185
vn 0.006255 0.260849 0.965359
vn -0.474905 0.238757 0.84703
vn -0.840959 -0.233731 0.488015
vn -0.486823 -0.19284 0.851949
vn -0.841817 0.207507 0.498282
vn -0.486823 -0.19284 0.851949
vn -0.474905 0.238757 0.84703
vn -0.841817 0.207507 0.498282
vn -0.965901 -0.258847 -0.005693
vn -0.840959 -0.233731 0.488015
vn -0.979951 0.199216 0.002972
vn -0.840959 -0.233731 0.488015
vn -0.841817 0.207507 0.498282
vn -0.979951 0.199216 0.002972
vn -0.831381 -0.250533 -0.496023
vn -0.965901 -0.258847 -0.005693
vn -0.842385 0.224259 -0.489996
vn -0.965901 -0.258847 -0.005693
vn -0.979951 0.199216 0.002972
vn -0.842385 0.224259 -0.489996
vn -0.479716 -0.211461 -0.851561
vn -0.831381 -0.250533 -0.496023
vn -0.482582 0.254357 -0.838103
vn -0.831381 -0.250533 -0.496023
vn -0.842385 0.224259 -0.489996
vn -0.482582 0.254357 -0.838103
vn 0.002293 -0.182713 -0.983164
vn -0.479716 -0.211461 -0.851561
vn -0.006702 0.263965 -0.964509
vn -0.479716 -0.211461 -0.851561
vn -0.482582 0.254357 -0.838103
vn -0.006702 0.263965 -0.964509
vn 0.487113 -0.192774 -0.851798
vn 0.002293 -0.182713 -0.983164
vn 0.475207 0.239883 -0.846542
vn 0.002293 -0.182713 -0.983164
vn -0.006702 0.263965 -0.964509
vn 0.475207 0.239883 -0.846542
vn 0.965898 -0.258843 0.006381
vn 0.840663 -0.233751 -0.488514
vn 0.980043 0.198772 -0.002341
vn 0.840663 -0.233751 -0.488514
vn 0.841176 0.209278 -0.498623
vn 0.980043 0.198772 -0.002341
vn 0.840663 -0.233751 -0.488514
vn 0.487113 -0.192774 -0.851798
vn 0.841176 0.209278 -0.498623
vn 0.487113 -0.192774 -0.851798
vn 0.475207 0.239883 -0.846542
vn 0.841176 0.209278 -0.498623
vn 0.482703 0.252964 0.838455
vn 0.842818 0.222451 0.490075
vn 0.503136 0.460127 0.731531
vn 0.842818 0.222451 0.490075
vn 0.826285 0.403256 0.393239
vn 0.503136 0.460127 0.731531
vn 0.842818 0.222451 0.490075
vn 0.980043 0.198772 -0.002341
vn 0.826285 0.403256 0.393239
vn 0.980043 0.198772 -0.002341
vn 0.917602 0.388803 -0.082692
vn 0.826285 0.403256 0.393239
vn 0.006255 0.260849 0.965359
vn 0.482703 0.252964 0.838455
vn 0.075854 0.500008 0.862693
vn 0.482703 0.252964 0.838455
vn 0.503136 0.460127 0.731531
vn 0.075854 0.500008 0.862693
vn -0.474905 0.238757 0.84703
vn 0.006255 0.260849 0.965359
vn -0.360407 0.48668 0.795769
vn 0.006255 0.260849 0.965359
vn 0.075854 0.500008 0.862693
vn -0.360407 0.48668 0.795769
vn -0.841817 0.207507 0.498282
vn -0.474905 0.238757 0.84703
vn -0.732177 0.431959 0.52662
vn -0.474905 0.238757 0.84703
vn -0.360407 0.48668 0.795769
vn -0.732177 0.431959 0.52662
vn -0.979951 0.199216 0.002972
vn -0.841817 0.207507 0.498282
vn -0.917955 0.387899 0.083017
vn -0.841817 0.207507 0.498282
vn -0.732177 0.431959 0.52662
vn -0.917955 0.387899 0.083017
vn -0.842385 0.224259 -0.489996
vn -0.979951 0.199216 0.002972
vn -0.825256 0.406403 -0.392159
vn -0.979951 0.199216 0.002972
vn -0.917955 0.387899 0.083017
vn -0.825256 0.406403 -0.392159
vn -0.482582 0.254357 -0.838103
vn -0.842385 0.224259 -0.489996
vn -0.50184 0.462425 -0.730972
vn -0.842385 0.224259 -0.489996
vn -0.825256 0.406403 -0.392159
vn -0.50184 0.462425 -0.730972
vn -0.006702 0.263965 -0.964509
vn -0.482582 0.254357 -0.838103
vn -0.076587 0.505285 -0.859547
vn -0.482582 0.254357 -0.838103
vn -0.50184 0.462425 -0.730972
vn -0.076587 0.505285 -0.859547
vn 0.475207 0.239883 -0.846542
vn -0.006702 0.263965 -0.964509
vn 0.360722 0.48936 -0.793981
vn -0.006702 0.263965 -0.964509
vn -0.076587 0.505285 -0.859547
vn 0.360722 0.48936 -0.793981
vn 0.980043 0.198772 -0.002341
vn 0.841176 0.209278 -0.498623
vn 0.917602 0.388803 -0.082692
vn 0.841176 0.209278 -0.498623
vn 0.730639 0.4351 -0.52617
vn 0.917602 0.388803 -0.082692
vn 0.841176 0.209278 -0.498623
vn 0.475207 0.239883 -0.846542
vn 0.730639 0.4351 -0.52617
vn 0.475207 0.239883 -0.846542
vn 0.360722 0.48936 -0.793981
vn 0.730639 0.4351 -0.52617
vn 0.0 -1.0 -0.0
vn 0.0 -1.0 -0.0
vn 0.0 -1.0 -0.0
vn -0.0 1.0 0.0
vn -0.0 1.0 0.0
vn -0.0 1.0 0.0
vn 0.0 -1.0 -0.0
vn 0.0 -1.0 -0.0
vn 0.0 -1.0 -0.0
vn -0.0 1.0 0.0
vn -0.0 1.0 0.0
vn -0.0 1.0 0.0
vn 0.0 -1.0 -0.0
vn 0.0 -1.0 -0.0
vn 0.0 -1.0 -0.0
vn -0.0 1.0 0.0
vn -0.0 1.0 0.0
vn -0.0 1.0 0.0
vn 0.0 -1.0 -0.0
vn 0.0 -1.0 -0.0
vn 0.0 -1.0 -0.0
vn -0.0 1.0 0.0
vn -0.0 1.0 0.0
vn -0.0 1.0 0.0
vn 0.0 -1.0 -0.0
vn 0.0 -1.0 -0.0
vn 0.0 -1.0 -0.0
vn -0.0 1.0 0.0
vn -0.0 1.0 0.0
vn -0.0 1.0 0.0
vn 0.0 -1.0 -0.0
vn 0.0 -1.0 -0.0
vn 0.0 -1.0 -0.0
vn -0.0 1.0 0.0
vn -0.0 1.0 0.0
vn -0.0 1.0 0.0
vn 0.0 -1.0 -0.0
vn 0.0 -1.0 0.0
vn 0.0 -1.0 -0.0
vn -0.0 1.0 0.0
vn -0.0 1.0 0.0
vn -0.0 1.0 0.0
vn 0.0 -1.0 0.0
vn 0.0 -1.0 -0.0
vn 0.0 -1.0 -0.0
vn -0.0 1.0 0.0
vn -0.0 1.0 0.0
vn -0.0 1.0 0.0
vn 0.0 -1.0 -0.0
vn 0.0 -1.0 0.0
vn 0.0 -1.0 -0.0
vn -0.0 1.0 0.0
vn -0.0 1.0 0.0
vn -0.0 1.0 0.0
vn 0.0 -1.0 0.0
vn 0.0 -1.0 0.0
vn 0.0 -1.0 -0.0
vn -0.000001 1.0 0.0
vn -0.0 1.0 0.0
vn -0.0 1.0 0.0

# Regroup02, 116 grouped triangles

usemtl br_baskets.jpg
o Regroup02
g Regroup02

f 2/1/1 3/2/2 1/3/3
f 4/4/4 3/5/5 2/6/6
f 4/7/7 5/8/8 3/9/9
f 5/10/10 6/11/11 3/12/12
f 5/13/13 7/14/14 6/15/15
f 8/16/16 7/17/17 5/18/18
f 8/19/19 9/20/20 7/21/21
f 9/22/22 10/23/23 7/24/24
f 9/25/25 11/26/26 10/27/27
f 12/28/28 11/29/29 9/30/30
f 12/31/31 13/32/32 11/33/33
f 13/34/34 14/35/35 11/36/36
f 13/37/37 15/38/38 14/39/39
f 16/40/40 15/41/41 13/42/42
f 16/43/43 17/44/44 15/45/45
f 17/46/46 18/47/47 15/48/48
f 17/49/49 19/50/50 18/51/51
f 20/52/52 19/53/53 17/54/54
f 20/55/55 21/56/56 19/57/57
f 21/58/58 22/59/59 19/60/60
f 21/61/61 23/62/62 22/63/63
f 24/64/64 23/65/65 21/66/66
f 24/67/67 2/68/68 23/69/69
f 2/70/70 1/71/71 23/72/72
f 5/73/73 4/74/74 25/75/75
f 4/76/76 26/77/77 25/78/78
f 4/79/79 2/80/80 26/81/81
f 2/82/82 27/83/83 26/84/84
f 8/85/85 5/86/86 28/87/87
f 5/88/88 25/89/89 28/90/90
f 9/91/91 8/92/92 29/93/93
f 8/94/94 28/95/95 29/96/96
f 12/97/97 9/98/98 30/99/99
f 9/100/100 29/101/101 30/102/102
f 13/103/103 12/104/104 31/105/105
f 12/106/106 30/107/107 31/108/108
f 16/109/109 13/110/110 32/111/111
f 13/112/112 31/113/113 32/114/114
f 17/115/115 16/116/116 33/117/117
f 16/118/118 32/119/119 33/120/120
f 20/121/121 17/122/122 34/123/123
f 17/124/124 33/125/125 34/126/126
f 21/127/127 20/128/128 35/129/129
f 20/130/130 34/131/131 35/132/132
f 2/133/133 24/134/134 27/135/135
f 24/136/136 36/137/137 27/138/138
f 24/139/139 21/140/140 36/141/141
f 21/142/142 35/143/143 36/144/144
f 25/145/145 26/146/146 37/147/147
f 26/148/148 38/149/149 37/150/150
f 26/151/151 27/152/152 38/153/153
f 27/154/154 39/155/155 38/156/156
f 28/157/157 25/158/158 40/159/159
f 25/160/160 37/161/161 40/162/162
f 29/163/163 28/164/164 41/165/165
f 28/166/166 40/167/167 41/168/168
f 30/169/169 29/170/170 42/171/171
f 29/172/172 41/173/173 42/174/174
f 31/175/175 30/176/176 43/177/177
f 30/178/178 42/179/179 43/180/180
f 32/181/181 31/182/182 44/183/183
f 31/184/184 43/185/185 44/186/186
f 33/187/187 32/188/188 45/189/189
f 32/190/190 44/191/191 45/192/192
f 34/193/193 33/194/194 46/195/195
f 33/196/196 45/197/197 46/198/198
f 35/199/199 34/200/200 47/201/201
f 34/202/202 46/203/203 47/204/204
f 27/205/205 36/206/206 39/207/207
f 36/208/208 48/209/209 39/210/210
f 36/211/211 35/212/212 48/213/213
f 35/214/214 47/215/215 48/216/216
f 37/217/217 38/218/218 49/219/219
f 38/220/220 50/221/221 49/222/222
f 38/223/223 39/224/224 50/225/225
f 39/226/226 51/227/227 50/228/228
f 40/229/229 37/230/230 52/231/231
f 37/232/232 49/233/233 52/234/234
f 41/235/235 40/236/236 53/237/237
f 40/238/238 52/239/239 53/240/240
f 42/241/241 41/242/242 54/243/243
f 41/244/244 53/245/245 54/246/246
f 43/247/247 42/248/248 55/249/249
f 42/250/250 54/251/251 55/252/252
f 44/253/253 43/254/254 56/255/255
f 43/256/256 55/257/257 56/258/258
f 45/259/259 44/260/260 57/261/261
f 44/262/262 56/263/263 57/264/264
f 46/265/265 45/266/266 58/267/267
f 45/268/268 57/269/269 58/270/270
f 47/271/271 46/272/272 59/273/273
f 46/274/274 58/275/275 59/276/276
f 39/277/277 48/278/278 51/279/279
f 48/280/280 60/281/281 51/282/282
f 48/283/283 47/284/284 60/285/285
f 47/286/286 59/287/287 60/288/288
f 62/289/289 63/290/290 61/291/291
f 65/292/292 66/293/293 64/294/294
f 63/295/295 67/296/296 61/297/297
f 68/298/298 65/299/299 64/300/300
f 67/301/301 69/302/302 61/303/303
f 70/304/304 68/305/305 64/306/306
f 69/307/307 71/308/308 61/309/309
f 72/310/310 70/311/311 64/312/312
f 71/313/313 73/314/314 61/315/315
f 74/316/316 72/317/317 64/318/318
f 73/319/319 75/320/320 61/321/321
f 76/322/322 74/323/323 64/324/324
f 75/325/325 77/326/326 61/327/327
f 78/328/328 76/329/329 64/330/330
f 77/331/331 79/332/332 61/333/333
f 80/334/334 78/335/335 64/336/336
f 79/337/337 81/338/338 61/339/339
f 82/340/340 80/341/341 64/342/342
f 81/343/343 83/344/344 61/345/345
f 84/346/346 82/347/347 64/348/348
