# Wavefront OBJ file
# Exported by Misfit Model 3D 1.3.8
# Tue Jan 13 16:50:14 2015

mtllib pot2.mtl

# 66 Vertices
v -8.79651 -5.081724 0.880456
v -6.423579 -5.087009 6.892178
v -0.494734 -5.093157 9.46519
v 5.516989 -5.096568 7.092256
v 8.090003 -5.095242 1.163409
v 5.717073 -5.089957 -4.848313
v -0.211772 -5.083808 -7.421326
v -6.223495 -5.080398 -5.048392
v -8.785494 8.844196 0.88835
v -6.412563 8.838911 6.900073
v -0.483718 8.832762 9.473085
v 5.528005 8.829352 7.100151
v 8.101019 8.830677 1.171304
v 5.728089 8.835963 -4.840419
v -0.200756 8.842111 -7.413431
v -6.212479 8.845522 -5.040498
v -0.288475 7.982576 -9.140555
v -7.514605 8.155619 -6.146535
v -10.507767 8.227296 1.081667
v -7.514605 8.155619 8.30987
v -0.288475 7.982576 11.30389
v 6.937656 7.809533 8.30987
v 9.930818 7.737856 1.081668
v 6.937657 7.809533 -6.146535
v -0.196261 11.833324 -9.140555
v -7.422392 12.006367 -6.146535
v -10.415553 12.078044 1.081667
v -7.422392 12.006367 8.30987
v -0.196261 11.833324 11.30389
v 7.02987 11.660281 8.30987
v 10.023032 11.588604 1.081668
v 7.029871 11.660281 -6.146535
v -3.809327 11.919846 9.80688
v 3.324591 7.896055 9.80688
v 3.416804 11.746803 9.80688
v 8.434237 7.773695 4.695769
v -3.90154 8.069098 2.578677
v -0.288474 5.371697 0.880831
v 1.208106 7.946738 -2.532434
v -3.809327 11.919846 -0.415342
v -0.196261 9.222445 0.880831
v 3.416804 11.746803 -0.415342
v -15.949022 30.884241 0.853556
v -15.949022 7.319387 0.853556
v 15.703554 30.884241 0.853556
v 15.703554 7.319387 0.853556
v -0.476275 30.88424 16.675895
v -0.476275 7.319386 16.675895
v 0.230807 30.884241 -14.968782
v 0.230808 7.319387 -14.968782
v 12.47307 30.88424 10.435682
v 12.47307 7.319386 10.43568
v -12.718538 30.88424 -8.728567
v -12.718538 7.319387 -8.728569
v 11.955989 30.884241 -9.372676
v 11.955988 7.319387 -9.372677
v -12.201455 30.88424 11.07979
v -12.201457 7.319386 11.079789
v 5.391957 30.88424 -13.980849
v 5.391955 7.319387 -13.980849
v -5.637422 30.88424 15.687962
v -5.637424 7.319386 15.687962
v -7.410636 30.88424 -13.194855
v -7.410636 7.319386 -13.194854
v 7.165169 30.88424 14.901967
v 7.165168 7.319387 14.901968

# 264 Texture Coordinates
vt 0.172633 0.107822
vt 0.263445 0.10758
vt 0.173054 0.744913
vt 0.263445 0.10758
vt 0.263866 0.744671
vt 0.173054 0.744913
vt 0.263445 0.10758
vt 0.490342 0.107299
vt 0.263866 0.744671
vt 0.490342 0.107299
vt 0.490764 0.74439
vt 0.263866 0.744671
vt 0.490342 0.107299
vt 0.720411 0.107143
vt 0.490764 0.74439
vt 0.720411 0.107143
vt 0.720832 0.744234
vt 0.490764 0.74439
vt 0.720411 0.107143
vt 0.81888 0.107203
vt 0.720832 0.744234
vt 0.81888 0.107203
vt 0.819302 0.744295
vt 0.720832 0.744234
vt 0.81888 0.107203
vt 0.728068 0.107445
vt 0.819302 0.744295
vt 0.728068 0.107445
vt 0.72849 0.744536
vt 0.819302 0.744295
vt 0.728068 0.107445
vt 0.501171 0.107727
vt 0.72849 0.744536
vt 0.501171 0.107727
vt 0.501592 0.744818
vt 0.72849 0.744536
vt 0.501171 0.107727
vt 0.271102 0.107883
vt 0.501592 0.744818
vt 0.271102 0.107883
vt 0.271524 0.744974
vt 0.501592 0.744818
vt 0.271102 0.107883
vt 0.172633 0.107822
vt 0.271524 0.744974
vt 0.172633 0.107822
vt 0.173054 0.744913
vt 0.271524 0.744974
vt 0.263445 0.10758
vt 0.720411 0.107143
vt 0.490342 0.107299
vt 0.263445 0.10758
vt 0.81888 0.107203
vt 0.720411 0.107143
vt 0.263445 0.10758
vt 0.728068 0.107445
vt 0.81888 0.107203
vt 0.263445 0.10758
vt 0.501171 0.107727
vt 0.728068 0.107445
vt 0.263445 0.10758
vt 0.271102 0.107883
vt 0.501171 0.107727
vt 0.263445 0.10758
vt 0.172633 0.107822
vt 0.271102 0.107883
vt 0.173054 0.744913
vt 0.263866 0.744671
vt 0.490764 0.74439
vt 0.173054 0.744913
vt 0.490764 0.74439
vt 0.720832 0.744234
vt 0.173054 0.744913
vt 0.720832 0.744234
vt 0.819302 0.744295
vt 0.173054 0.744913
vt 0.819302 0.744295
vt 0.72849 0.744536
vt 0.173054 0.744913
vt 0.72849 0.744536
vt 0.501592 0.744818
vt 0.173054 0.744913
vt 0.501592 0.744818
vt 0.271524 0.744974
vt 0.221691 0.713412
vt 0.359963 0.709454
vt 0.221691 0.713412
vt 0.221691 0.713412
vt 0.498235 0.586051
vt 0.359963 0.709454
vt 0.221691 0.713412
vt 0.55551 0.703856
vt 0.498235 0.586051
vt 0.501764 0.881662
vt 0.110672 0.892857
vt 0.363492 0.88562
vt 0.501764 0.881662
vt 0.363492 0.88562
vt 0.501764 0.762218
vt 0.501764 0.881662
vt 0.501764 0.762218
vt 0.640037 0.877703
vt 0.501764 0.881662
vt 0.498235 0.705495
vt 0.221691 0.713412
vt 0.22522 0.889578
vt 0.501764 0.881662
vt 0.221691 0.713412
vt 0.22522 0.889578
vt 0.221691 0.713412
vt 0.107143 0.716691
vt 0.110672 0.892857
vt 0.22522 0.889578
vt 0.107143 0.716691
vt 0.110672 0.892857
vt 0.107143 0.716691
vt 0.221691 0.713412
vt 0.110672 0.892857
vt 0.221691 0.713412
vt 0.22522 0.889578
vt 0.22522 0.889578
vt 0.221691 0.713412
vt 0.498235 0.705495
vt 0.501764 0.881662
vt 0.363492 0.88562
vt 0.498235 0.705495
vt 0.22522 0.889578
vt 0.498235 0.705495
vt 0.363492 0.88562
vt 0.501764 0.881662
vt 0.498235 0.705495
vt 0.636508 0.701537
vt 0.778309 0.873745
vt 0.640037 0.877703
vt 0.77478 0.697579
vt 0.501764 0.881662
vt 0.636508 0.701537
vt 0.640037 0.877703
vt 0.77478 0.697579
vt 0.640037 0.877703
vt 0.636508 0.701537
vt 0.778309 0.873745
vt 0.77478 0.697579
vt 0.832054 0.695939
vt 0.778309 0.873745
vt 0.832054 0.695939
vt 0.892857 0.870466
vt 0.889328 0.6943
vt 0.892857 0.870466
vt 0.832054 0.695939
vt 0.892857 0.870466
vt 0.889328 0.6943
vt 0.77478 0.697579
vt 0.892857 0.870466
vt 0.77478 0.697579
vt 0.778309 0.873745
vt 0.498235 0.705495
vt 0.778309 0.873745
vt 0.77478 0.697579
vt 0.498235 0.705495
vt 0.501764 0.881662
vt 0.778309 0.873745
vt 0.221691 0.713412
vt 0.107143 0.716691
vt 0.221691 0.713412
vt 0.359963 0.709454
vt 0.498235 0.705495
vt 0.221691 0.713412
vt 0.77478 0.697579
vt 0.636508 0.701537
vt 0.498235 0.586051
vt 0.498235 0.705495
vt 0.359963 0.709454
vt 0.636508 0.701537
vt 0.498235 0.586051
vt 0.636508 0.701537
vt 0.359963 0.709454
vt 0.889328 0.6943
vt 0.832054 0.695939
vt 0.55551 0.703856
vt 0.77478 0.697579
vt 0.498235 0.586051
vt 0.832054 0.695939
vt 0.55551 0.703856
vt 0.832054 0.695939
vt 0.498235 0.586051
vt 0.889328 0.6943
vt 0.55551 0.703856
vt 0.77478 0.697579
vt 0.221691 0.713412
vt 0.77478 0.697579
vt 0.55551 0.703856
vt 0.77478 0.697579
vt 0.221691 0.713412
vt 0.498235 0.705495
vt 0.501764 0.881662
vt 0.22522 0.889578
vt 0.110672 0.892857
vt 0.110672 0.892857
vt 0.22522 0.889578
vt 0.363492 0.88562
vt 0.22522 0.889578
vt 0.363492 0.88562
vt 0.363492 0.88562
vt 0.501764 0.881662
vt 0.501764 0.762218
vt 0.363492 0.88562
vt 0.363492 0.88562
vt 0.363492 0.88562
vt 0.501764 0.762218
vt 0.501764 0.881662
vt 0.640037 0.877703
vt 0.501764 0.762218
vt 0.778309 0.873745
vt 0.640037 0.877703
vt 0.640037 0.877703
vt 0.501764 0.762218
vt 0.640037 0.877703
vt 0.640037 0.877703
vt 0.778309 0.873745
vt 0.892857 0.870466
vt 0.640037 0.877703
vt 0.640037 0.877703
vt 0.892857 0.870466
vt 0.501764 0.881662
vt 0.892857 0.870466
vt 0.778309 0.873745
vt 0.501764 0.881662
vt 0.0 1.0
vt 0.0 0.0
vt 1.0 0.0
vt 0.0 1.0
vt 0.0 0.0
vt 1.0 0.0
vt 0.0 1.0
vt 0.0 0.0
vt 1.0 0.0
vt 0.0 1.0
vt 0.0 0.0
vt 1.0 0.0
vt 0.0 1.0
vt 0.0 0.0
vt 1.0 0.0
vt 0.0 1.0
vt 0.0 0.0
vt 1.0 0.0
vt 0.0 1.0
vt 0.0 0.0
vt 1.0 0.0
vt 0.0 1.0
vt 0.0 0.0
vt 1.0 0.0
vt 0.0 1.0
vt 0.0 0.0
vt 1.0 0.0
vt 0.0 1.0
vt 0.0 0.0
vt 1.0 0.0
vt 0.0 1.0
vt 0.0 0.0
vt 1.0 0.0
vt 0.0 1.0
vt 0.0 0.0
vt 1.0 0.0

# 264 Vertex Normals
vn -0.930791 -0.335739 -0.144596
vn -0.341854 -0.906174 0.248967
vn -0.41885 0.906605 0.051296
vn -0.341854 -0.906174 0.248967
vn -0.580758 0.336596 0.741231
vn -0.41885 0.906605 0.051296
vn -0.341854 -0.906174 0.248967
vn -0.144671 -0.33697 0.930334
vn -0.580758 0.336596 0.741231
vn -0.144671 -0.33697 0.930334
vn 0.098212 0.580987 0.807966
vn -0.580758 0.336596 0.741231
vn -0.144671 -0.33697 0.930334
vn 0.479773 -0.582274 0.656334
vn 0.098212 0.580987 0.807966
vn 0.479773 -0.582274 0.656334
vn 0.640666 0.580731 0.502293
vn 0.098212 0.580987 0.807966
vn 0.479773 -0.582274 0.656334
vn 0.803447 -0.582229 0.124426
vn 0.640666 0.580731 0.502293
vn 0.803447 -0.582229 0.124426
vn 0.808096 0.580939 -0.097423
vn 0.640666 0.580731 0.502293
vn 0.803447 -0.582229 0.124426
vn 0.656204 -0.581769 -0.480563
vn 0.808096 0.580939 -0.097423
vn 0.656204 -0.581769 -0.480563
vn 0.502424 0.581488 -0.639876
vn 0.808096 0.580939 -0.097423
vn 0.656204 -0.581769 -0.480563
vn 0.124296 -0.581165 -0.804237
vn 0.502424 0.581488 -0.639876
vn 0.124296 -0.581165 -0.804237
vn -0.097292 0.582057 -0.807306
vn 0.502424 0.581488 -0.639876
vn 0.124296 -0.581165 -0.804237
vn -0.480693 -0.58077 -0.656994
vn -0.097292 0.582057 -0.807306
vn -0.480693 -0.58077 -0.656994
vn -0.740773 0.337472 -0.580833
vn -0.097292 0.582057 -0.807306
vn -0.480693 -0.58077 -0.656994
vn -0.930791 -0.335739 -0.144596
vn -0.740773 0.337472 -0.580833
vn -0.930791 -0.335739 -0.144596
vn -0.41885 0.906605 0.051296
vn -0.740773 0.337472 -0.580833
vn -0.341854 -0.906174 0.248967
vn 0.479773 -0.582274 0.656334
vn -0.144671 -0.33697 0.930334
vn -0.341854 -0.906174 0.248967
vn 0.803447 -0.582229 0.124426
vn 0.479773 -0.582274 0.656334
vn -0.341854 -0.906174 0.248967
vn 0.656204 -0.581769 -0.480563
vn 0.803447 -0.582229 0.124426
vn -0.341854 -0.906174 0.248967
vn 0.124296 -0.581165 -0.804237
vn 0.656204 -0.581769 -0.480563
vn -0.341854 -0.906174 0.248967
vn -0.480693 -0.58077 -0.656994
vn 0.124296 -0.581165 -0.804237
vn -0.341854 -0.906174 0.248967
vn -0.930791 -0.335739 -0.144596
vn -0.480693 -0.58077 -0.656994
vn -0.41885 0.906605 0.051296
vn -0.580758 0.336596 0.741231
vn 0.098212 0.580987 0.807966
vn -0.41885 0.906605 0.051296
vn 0.098212 0.580987 0.807966
vn 0.640666 0.580731 0.502293
vn -0.41885 0.906605 0.051296
vn 0.640666 0.580731 0.502293
vn 0.808096 0.580939 -0.097423
vn -0.41885 0.906605 0.051296
vn 0.808096 0.580939 -0.097423
vn 0.502424 0.581488 -0.639876
vn -0.41885 0.906605 0.051296
vn 0.502424 0.581488 -0.639876
vn -0.097292 0.582057 -0.807306
vn -0.41885 0.906605 0.051296
vn -0.097292 0.582057 -0.807306
vn -0.740773 0.337472 -0.580833
vn -0.323115 -0.861196 -0.39235
vn -0.211402 -0.969127 0.126892
vn -0.561064 -0.71808 0.411786
vn -0.323115 -0.861196 -0.39235
vn -0.005938 -0.999981 -0.001715
vn -0.211402 -0.969127 0.126892
vn -0.323115 -0.861196 -0.39235
vn 0.113164 -0.972829 -0.201983
vn -0.005938 -0.999981 -0.001715
vn -0.042067 0.923288 -0.381799
vn -0.657938 0.747272 0.093286
vn 0.252071 0.96668 0.044607
vn 0.08919 0.992232 -0.086727
vn 0.252071 0.96668 0.044607
vn 0.019238 0.999764 -0.01013
vn -0.108937 0.964388 -0.241017
vn 0.019238 0.999764 -0.01013
vn -0.211119 0.976394 0.045642
vn -0.143193 0.875417 -0.461671
vn 0.120701 -0.339544 -0.932814
vn -0.323115 -0.861196 -0.39235
vn -0.742398 0.354431 -0.568527
vn -0.143193 0.875417 -0.461671
vn -0.323115 -0.861196 -0.39235
vn -0.742398 0.354431 -0.568527
vn -0.323115 -0.861196 -0.39235
vn -0.940604 -0.314129 -0.128795
vn -0.657938 0.747272 0.093286
vn -0.742398 0.354431 -0.568527
vn -0.940604 -0.314129 -0.128795
vn -0.657938 0.747272 0.093286
vn -0.940604 -0.314129 -0.128795
vn -0.561064 -0.71808 0.411786
vn -0.657938 0.747272 0.093286
vn -0.561064 -0.71808 0.411786
vn -0.477105 0.593114 0.648526
vn -0.477105 0.593114 0.648526
vn -0.561064 -0.71808 0.411786
vn -0.190354 -0.463835 0.86523
vn 0.141922 0.636394 0.758196
vn -0.006227 0.865952 0.500088
vn -0.190354 -0.463835 0.86523
vn -0.477105 0.593114 0.648526
vn -0.190354 -0.463835 0.86523
vn -0.006227 0.865952 0.500088
vn 0.141922 0.636394 0.758196
vn -0.190354 -0.463835 0.86523
vn 0.173969 -0.625629 0.760476
vn 0.662262 0.56583 0.491167
vn 0.138047 0.73007 0.669284
vn 0.52236 -0.519393 0.676292
vn 0.141922 0.636394 0.758196
vn 0.173969 -0.625629 0.760476
vn 0.138047 0.73007 0.669284
vn 0.52236 -0.519393 0.676292
vn 0.138047 0.73007 0.669284
vn 0.173969 -0.625629 0.760476
vn 0.662262 0.56583 0.491167
vn 0.52236 -0.519393 0.676292
vn 0.752424 -0.632767 0.182934
vn 0.662262 0.56583 0.491167
vn 0.752424 -0.632767 0.182934
vn 0.791248 0.611495 0.0
vn 0.66082 -0.750545 0.0
vn 0.791248 0.611495 0.0
vn 0.752424 -0.632767 0.182934
vn 0.791248 0.611495 0.0
vn 0.66082 -0.750545 0.0
vn 0.526049 -0.744114 -0.411786
vn 0.791248 0.611495 0.0
vn 0.526049 -0.744114 -0.411786
vn 0.576422 0.32285 -0.75067
vn 0.120701 -0.339544 -0.932814
vn 0.576422 0.32285 -0.75067
vn 0.526049 -0.744114 -0.411786
vn 0.120701 -0.339544 -0.932814
vn 0.045253 0.882613 -0.467917
vn 0.576422 0.32285 -0.75067
vn -0.561064 -0.71808 0.411786
vn -0.940604 -0.314129 -0.128795
vn -0.323115 -0.861196 -0.39235
vn -0.211402 -0.969127 0.126892
vn -0.190354 -0.463835 0.86523
vn -0.561064 -0.71808 0.411786
vn 0.52236 -0.519393 0.676292
vn 0.173969 -0.625629 0.760476
vn -0.005938 -0.999981 -0.001715
vn -0.190354 -0.463835 0.86523
vn -0.211402 -0.969127 0.126892
vn 0.173969 -0.625629 0.760476
vn -0.005938 -0.999981 -0.001715
vn 0.173969 -0.625629 0.760476
vn -0.211402 -0.969127 0.126892
vn 0.66082 -0.750545 0.0
vn 0.752424 -0.632767 0.182934
vn 0.113164 -0.972829 -0.201983
vn 0.52236 -0.519393 0.676292
vn -0.005938 -0.999981 -0.001715
vn 0.752424 -0.632767 0.182934
vn 0.113164 -0.972829 -0.201983
vn 0.752424 -0.632767 0.182934
vn -0.005938 -0.999981 -0.001715
vn 0.66082 -0.750545 0.0
vn 0.113164 -0.972829 -0.201983
vn 0.526049 -0.744114 -0.411786
vn -0.323115 -0.861196 -0.39235
vn 0.526049 -0.744114 -0.411786
vn 0.113164 -0.972829 -0.201983
vn 0.526049 -0.744114 -0.411786
vn -0.323115 -0.861196 -0.39235
vn 0.120701 -0.339544 -0.932814
vn -0.042067 0.923288 -0.381799
vn -0.742398 0.354431 -0.568527
vn -0.657938 0.747272 0.093286
vn -0.657938 0.747272 0.093286
vn -0.477105 0.593114 0.648526
vn 0.252071 0.96668 0.044607
vn -0.477105 0.593114 0.648526
vn -0.006227 0.865952 0.500088
vn 0.252071 0.96668 0.044607
vn 0.141922 0.636394 0.758196
vn 0.019238 0.999764 -0.01013
vn -0.006227 0.865952 0.500088
vn 0.252071 0.96668 0.044607
vn -0.006227 0.865952 0.500088
vn 0.019238 0.999764 -0.01013
vn 0.141922 0.636394 0.758196
vn 0.138047 0.73007 0.669284
vn 0.019238 0.999764 -0.01013
vn 0.662262 0.56583 0.491167
vn -0.211119 0.976394 0.045642
vn 0.138047 0.73007 0.669284
vn 0.019238 0.999764 -0.01013
vn 0.138047 0.73007 0.669284
vn -0.211119 0.976394 0.045642
vn 0.662262 0.56583 0.491167
vn 0.791248 0.611495 0.0
vn -0.211119 0.976394 0.045642
vn -0.211119 0.976394 0.045642
vn 0.791248 0.611495 0.0
vn -0.042067 0.923288 -0.381799
vn 0.791248 0.611495 0.0
vn 0.576422 0.32285 -0.75067
vn -0.042067 0.923288 -0.381799
vn 0.0 0.0 1.0
vn 0.0 0.0 1.0
vn 0.0 0.0 1.0
vn 0.0 0.0 1.0
vn 0.0 0.0 1.0
vn 0.0 0.0 1.0
vn 0.99975 0.0 0.022339
vn 0.99975 0.0 0.022339
vn 0.99975 0.0 0.022339
vn 0.99975 0.0 0.022339
vn 0.99975 0.0 0.022339
vn 0.99975 0.0 0.022339
vn 0.605456 0.0 -0.795879
vn 0.605456 0.0 -0.795879
vn 0.605456 0.0 -0.795879
vn 0.605456 0.0 -0.795879
vn 0.605456 0.0 -0.795879
vn 0.605456 0.0 -0.795879
vn -0.646155 0.0 -0.763206
vn -0.646155 0.0 -0.763206
vn -0.646155 0.0 -0.763206
vn -0.646155 0.0 -0.763206
vn -0.646155 0.0 -0.763206
vn -0.646155 0.0 -0.763206
vn -0.937327 0.0 -0.348451
vn -0.937327 0.0 -0.348451
vn -0.937327 0.0 -0.348451
vn -0.937327 0.0 -0.348451
vn -0.937327 0.0 -0.348451
vn -0.937327 0.0 -0.348451
vn -0.887663 0.0 0.460494
vn -0.887663 0.0 0.460494
vn -0.887663 0.0 0.460494
vn -0.887663 0.0 0.460494
vn -0.887663 0.0 0.460494
vn -0.887663 0.0 0.460494

# body, 76 grouped triangles

usemtl skin
o body
g body

f 1/1/1 2/2/2 9/3/3
f 2/4/4 10/5/5 9/6/6
f 2/7/7 3/8/8 10/9/9
f 3/10/10 11/11/11 10/12/12
f 3/13/13 4/14/14 11/15/15
f 4/16/16 12/17/17 11/18/18
f 4/19/19 5/20/20 12/21/21
f 5/22/22 13/23/23 12/24/24
f 5/25/25 6/26/26 13/27/27
f 6/28/28 14/29/29 13/30/30
f 6/31/31 7/32/32 14/33/33
f 7/34/34 15/35/35 14/36/36
f 7/37/37 8/38/38 15/39/39
f 8/40/40 16/41/41 15/42/42
f 8/43/43 1/44/44 16/45/45
f 1/46/46 9/47/47 16/48/48
f 2/49/49 4/50/50 3/51/51
f 2/52/52 5/53/53 4/54/54
f 2/55/55 6/56/56 5/57/57
f 2/58/58 7/59/59 6/60/60
f 2/61/61 8/62/62 7/63/63
f 2/64/64 1/65/65 8/66/66
f 9/67/67 10/68/68 11/69/69
f 9/70/70 11/71/71 12/72/72
f 9/73/73 12/74/74 13/75/75
f 9/76/76 13/77/77 14/78/78
f 9/79/79 14/80/80 15/81/81
f 9/82/82 15/83/83 16/84/84
f 18/85/85 37/86/86 20/87/87
f 18/88/88 38/89/89 37/90/90
f 18/91/91 39/92/92 38/93/93
f 25/94/94 27/95/95 40/96/96
f 25/97/97 40/98/98 41/99/99
f 25/100/100 41/101/101 42/102/102
f 25/103/103 17/104/104 18/105/105
f 26/106/106 25/107/107 18/108/108
f 26/109/109 18/110/110 19/111/111
f 27/112/112 26/113/113 19/114/114
f 27/115/115 19/116/116 20/117/117
f 27/118/118 20/119/119 28/120/120
f 28/121/121 20/122/122 21/123/123
f 29/124/124 33/125/125 21/126/126
f 28/127/127 21/128/128 33/129/129
f 29/130/130 21/131/131 34/132/132
f 30/133/133 35/134/134 22/135/135
f 29/136/136 34/137/137 35/138/138
f 22/139/139 35/140/140 34/141/141
f 30/142/142 22/143/143 36/144/144
f 30/145/145 36/146/146 31/147/147
f 23/148/148 31/149/149 36/150/150
f 31/151/151 23/152/152 24/153/153
f 31/154/154 24/155/155 32/156/156
f 17/157/157 32/158/158 24/159/159
f 17/160/160 25/161/161 32/162/162
f 20/163/163 19/164/164 18/165/165
f 37/166/166 21/167/167 20/168/168
f 22/169/169 34/170/170 38/171/171
f 21/172/172 37/173/173 34/174/174
f 38/175/175 34/176/176 37/177/177
f 23/178/178 36/179/179 39/180/180
f 22/181/181 38/182/182 36/183/183
f 39/184/184 36/185/185 38/186/186
f 23/187/187 39/188/188 24/189/189
f 18/190/190 24/191/191 39/192/192
f 24/193/193 18/194/194 17/195/195
f 25/196/196 26/197/197 27/198/198
f 27/199/199 28/200/200 40/201/201
f 28/202/202 33/203/203 40/204/204
f 29/205/205 41/206/206 33/207/207
f 40/208/208 33/209/209 41/210/210
f 29/211/211 35/212/212 41/213/213
f 30/214/214 42/215/215 35/216/216
f 41/217/217 35/218/218 42/219/219
f 30/220/220 31/221/221 42/222/222
f 42/223/223 31/224/224 25/225/225
f 31/226/226 32/227/227 25/228/228
# plant, 12 grouped triangles

usemtl plant
o plant
g plant

f 43/229/229 44/230/230 46/231/231
f 46/232/232 45/233/233 43/234/234
f 47/235/235 48/236/236 50/237/237
f 50/238/238 49/239/239 47/240/240
f 51/241/241 52/242/242 54/243/243
f 54/244/244 53/245/245 51/246/246
f 55/247/247 56/248/248 58/249/249
f 58/250/250 57/251/251 55/252/252
f 59/253/253 60/254/254 62/255/255
f 62/256/256 61/257/257 59/258/258
f 63/259/259 64/260/260 66/261/261
f 66/262/262 65/263/263 63/264/264
