# Wavefront OBJ file
# Exported by Misfit Model 3D 1.3.8
# Mon Mar 31 07:30:42 2014

mtllib struik.mtl

# 96 Vertices
v -37.8708 105.860001 -47.6721
v -58.117802 68.241798 -51.598499
v -27.272301 68.241798 11.6484
v -14.5491 107.483002 -4.13477
v 29.5924 68.241798 71.163498
v 18.7805 105.818001 31.0341
v -80.725601 19.312099 -55.3703
v -42.367199 19.312099 22.0592
v 29.938 19.312099 82.7052
v -48.251499 -15.504 -53.690201
v -18.5061 -15.504 8.01759
v 27.569901 -15.504 57.2756
v -58.548698 105.860001 -6.57171
v -76.756897 68.241798 3.11447
v -12.9899 68.241798 32.8699
v -13.0299 107.483002 12.5971
v 63.693298 68.241798 52.331501
v 35.002998 105.818001 18.9648
v -96.702797 19.312201 14.406
v -18.173401 19.312099 50.459
v 76.183701 19.312099 52.109001
v -71.186996 -15.5039 0.888931
v -9.24347 -15.5039 30.1402
v 57.5611 -15.504 39.440201
v 44.9841 105.860001 41.0275
v 65.598099 68.241798 41.676998
v 25.0674 68.241798 -15.8458
v 15.022 107.483002 1.76333
v -40.555302 68.241798 -65.537903
v -23.4863 105.818001 -27.644501
v 88.518097 19.312099 41.797798
v 38.310299 19.312099 -28.5291
v -42.735802 19.312099 -76.877098
v 56.1912 -15.504 45.3144
v 16.9918 -15.504 -10.8644
v -36.345299 -15.504 -52.149899
v 63.805099 103.852997 -17.801399
v 77.529099 65.573799 -18.095301
v 18.6887 66.797699 20.4783
v 23.8608 105.341003 11.2551
v -34.731899 57.129799 82.3526
v -8.15001 98.2397 46.9673
v 80.556 29.663099 -43.828201
v 8.56281 30.929899 3.94273
v -44.868 15.4973 80.185501
v 63.222801 -6.05181 -39.2449
v 5.78978 -4.72184 -1.93108
v -38.493301 -12.3394 48.3713
v -54.754601 105.860001 -30.9608
v -71.810699 68.241798 -19.3657
v -5.20429 68.241798 3.33217
v -7.43252 107.483002 -16.8179
v 71.618698 68.241798 -13.1
v 41.007099 105.818001 -15.6725
v -90.421204 19.312099 -5.987
v -8.4587 19.312099 21.378
v 83.546402 19.312099 -1.48759
v -71.432297 -15.5039 -10.913
v -0.509848 -15.504 17.0902
v 60.725101 -15.504 13.5145
v -53.697201 105.860001 46.238499
v -84.135002 68.241798 34.529598
v -20.586599 68.241798 4.31039
v -36.243198 107.483002 -8.56813
v 39.4874 68.241898 -51.963699
v -0.74688 105.818001 -41.548698
v -92.300598 19.312099 22.852699
v -10.3254 19.312099 19.507401
v 47.107899 19.312099 -65.0131
v -77.965599 -15.504 40.320202
v -15.2344 -15.504 19.5023
v 33.743801 -15.5039 -34.401299
v 28.9403 105.860001 -55.102798
v 16.9123 68.241798 -71.856499
v -4.07303 68.241798 -4.69081
v 16.013399 107.483002 -7.43416
v -3.576 68.241798 77.622002
v 16.1085 105.818001 41.018902
v 3.06146 19.312099 -90.118301
v -22.196301 19.312099 -7.48216
v -11.2476 19.312099 86.252098
v 8.47191 -15.504 -71.261703
v -12.2569 -15.504 -5.97039
v -12.5644 -15.504 61.477699
v 16.3675 105.258003 57.612099
v 36.8755 67.640198 59.798901
v 0.752696 67.640099 -0.589364
v -10.5794 106.880997 16.2206
v -45.896301 67.639999 -57.0476
v -46.784599 105.216003 -15.9802
v 59.722599 18.710501 61.6306
v 14.9056 18.7104 -12.2486
v -62.304501 18.7103 -66.512604
v 42.0536 -16.1056 53.107101
v 7.15798 -16.1057 -5.84147
v -42.9478 -16.105801 -50.993999

# 288 Texture Coordinates
vt 0.097584 0.641261
vt 0.501232 0.613749
vt 0.108197 0.911955
vt 0.097584 0.641261
vt 0.49441 0.252466
vt 0.501232 0.613749
vt 0.501232 0.613749
vt 0.517182 0.925081
vt 0.108197 0.911955
vt 0.501232 0.613749
vt 0.965367 0.648994
vt 0.517182 0.925081
vt 0.501232 0.613749
vt 0.928906 0.27103
vt 0.965367 0.648994
vt 0.965367 0.648994
vt 0.732045 0.972087
vt 0.517182 0.925081
vt 0.033735 0.27528
vt 0.49441 0.252466
vt 0.097584 0.641261
vt 0.033735 0.27528
vt 0.503185 0.028912
vt 0.49441 0.252466
vt 0.49441 0.252466
vt 0.928906 0.27103
vt 0.501232 0.613749
vt 0.49441 0.252466
vt 0.895238 0.048982
vt 0.928906 0.27103
vt 0.084302 0.070484
vt 0.503185 0.028912
vt 0.033735 0.27528
vt 0.503185 0.028912
vt 0.895238 0.048982
vt 0.49441 0.252466
vt 0.084731 0.647765
vt 0.501561 0.619354
vt 0.095691 0.927299
vt 0.084731 0.647765
vt 0.494516 0.246274
vt 0.501561 0.619354
vt 0.501561 0.619354
vt 0.518032 0.940854
vt 0.095691 0.927299
vt 0.501561 0.619354
vt 0.980854 0.65575
vt 0.518032 0.940854
vt 0.501561 0.619354
vt 0.943202 0.265443
vt 0.980854 0.65575
vt 0.980854 0.65575
vt 0.739911 0.989395
vt 0.518032 0.940854
vt 0.018797 0.269832
vt 0.494516 0.246274
vt 0.084731 0.647765
vt 0.018797 0.269832
vt 0.503577 0.015419
vt 0.494516 0.246274
vt 0.494516 0.246274
vt 0.943202 0.265443
vt 0.501561 0.619354
vt 0.494516 0.246274
vt 0.908435 0.036144
vt 0.943202 0.265443
vt 0.071016 0.058348
vt 0.503577 0.015419
vt 0.018797 0.269832
vt 0.503577 0.015419
vt 0.908435 0.036144
vt 0.494516 0.246274
vt 0.097584 0.641261
vt 0.501232 0.613749
vt 0.108197 0.911955
vt 0.097584 0.641261
vt 0.49441 0.252466
vt 0.501232 0.613749
vt 0.501232 0.613749
vt 0.517182 0.925081
vt 0.108197 0.911955
vt 0.501232 0.613749
vt 0.965367 0.648994
vt 0.517182 0.925081
vt 0.501232 0.613749
vt 0.928906 0.27103
vt 0.965367 0.648994
vt 0.965367 0.648994
vt 0.732045 0.972087
vt 0.517182 0.925081
vt 0.033735 0.27528
vt 0.49441 0.252466
vt 0.097584 0.641261
vt 0.033735 0.27528
vt 0.503185 0.028912
vt 0.49441 0.252466
vt 0.49441 0.252466
vt 0.928906 0.27103
vt 0.501232 0.613749
vt 0.49441 0.252466
vt 0.895238 0.048982
vt 0.928906 0.27103
vt 0.084302 0.070484
vt 0.503185 0.028912
vt 0.033735 0.27528
vt 0.503185 0.028912
vt 0.895238 0.048982
vt 0.49441 0.252466
vt 0.091235 0.650016
vt 0.493405 0.622604
vt 0.101809 0.919718
vt 0.091235 0.650016
vt 0.486608 0.262644
vt 0.493405 0.622604
vt 0.493405 0.622604
vt 0.509297 0.932797
vt 0.101809 0.919718
vt 0.493405 0.622604
vt 0.955841 0.65772
vt 0.509297 0.932797
vt 0.493405 0.622604
vt 0.919514 0.281139
vt 0.955841 0.65772
vt 0.955841 0.65772
vt 0.723373 0.979631
vt 0.509297 0.932797
vt 0.027619 0.285374
vt 0.486608 0.262644
vt 0.091235 0.650016
vt 0.027619 0.285374
vt 0.495351 0.039908
vt 0.486608 0.262644
vt 0.486608 0.262644
vt 0.919514 0.281139
vt 0.493405 0.622604
vt 0.486608 0.262644
vt 0.885969 0.059904
vt 0.919514 0.281139
vt 0.078002 0.081328
vt 0.495351 0.039908
vt 0.027619 0.285374
vt 0.495351 0.039908
vt 0.885969 0.059904
vt 0.486608 0.262644
vt 0.091931 0.645924
vt 0.501488 0.618009
vt 0.1027 0.920581
vt 0.091931 0.645924
vt 0.494567 0.251437
vt 0.501488 0.618009
vt 0.501488 0.618009
vt 0.517672 0.9339
vt 0.1027 0.920581
vt 0.501488 0.618009
vt 0.972419 0.65377
vt 0.517672 0.9339
vt 0.501488 0.618009
vt 0.935424 0.270272
vt 0.972419 0.65377
vt 0.972419 0.65377
vt 0.73568 0.981594
vt 0.517672 0.9339
vt 0.027147 0.274585
vt 0.494567 0.251437
vt 0.091931 0.645924
vt 0.027147 0.274585
vt 0.50347 0.02461
vt 0.494567 0.251437
vt 0.494567 0.251437
vt 0.935424 0.270272
vt 0.501488 0.618009
vt 0.494567 0.251437
vt 0.901264 0.044973
vt 0.935424 0.270272
vt 0.078455 0.06679
vt 0.50347 0.02461
vt 0.027147 0.274585
vt 0.50347 0.02461
vt 0.901264 0.044973
vt 0.494567 0.251437
vt 0.078127 0.644108
vt 0.496823 0.61557
vt 0.089136 0.924894
vt 0.078127 0.644108
vt 0.489747 0.240818
vt 0.496823 0.61557
vt 0.496823 0.61557
vt 0.513368 0.93851
vt 0.089136 0.924894
vt 0.496823 0.61557
vt 0.978263 0.652129
vt 0.513368 0.93851
vt 0.496823 0.61557
vt 0.940443 0.260074
vt 0.978263 0.652129
vt 0.978263 0.652129
vt 0.736242 0.987268
vt 0.513368 0.93851
vt 0.011897 0.264483
vt 0.489747 0.240818
vt 0.078127 0.644108
vt 0.011897 0.264483
vt 0.498849 0.008929
vt 0.489747 0.240818
vt 0.489747 0.240818
vt 0.940443 0.260074
vt 0.496823 0.61557
vt 0.489747 0.240818
vt 0.90552 0.029747
vt 0.940443 0.260074
vt 0.06435 0.052051
vt 0.498849 0.008929
vt 0.011897 0.264483
vt 0.498849 0.008929
vt 0.90552 0.029747
vt 0.489747 0.240818
vt 0.079967 0.652054
vt 0.496912 0.623636
vt 0.09093 0.931665
vt 0.079967 0.652054
vt 0.489865 0.250452
vt 0.496912 0.623636
vt 0.496912 0.623636
vt 0.513388 0.945224
vt 0.09093 0.931665
vt 0.496912 0.623636
vt 0.976337 0.660042
vt 0.513388 0.945224
vt 0.496912 0.623636
vt 0.938674 0.269627
vt 0.976337 0.660042
vt 0.976337 0.660042
vt 0.735328 0.993778
vt 0.513388 0.945224
vt 0.014015 0.274017
vt 0.489865 0.250452
vt 0.079967 0.652054
vt 0.014015 0.274017
vt 0.498929 0.019534
vt 0.489865 0.250452
vt 0.489865 0.250452
vt 0.938674 0.269627
vt 0.496912 0.623636
vt 0.489865 0.250452
vt 0.903898 0.040264
vt 0.938674 0.269627
vt 0.066248 0.062475
vt 0.498929 0.019534
vt 0.014015 0.274017
vt 0.498929 0.019534
vt 0.903898 0.040264
vt 0.489865 0.250452
vt 0.082886 0.643984
vt 0.501308 0.615465
vt 0.093888 0.924586
vt 0.082886 0.643984
vt 0.494237 0.240959
vt 0.501308 0.615465
vt 0.501308 0.615465
vt 0.517843 0.938193
vt 0.093888 0.924586
vt 0.501308 0.615465
vt 0.982432 0.652
vt 0.517843 0.938193
vt 0.501308 0.615465
vt 0.944636 0.260202
vt 0.982432 0.652
vt 0.982432 0.652
vt 0.74057 0.986919
vt 0.517843 0.938193
vt 0.0167 0.264608
vt 0.494237 0.240959
vt 0.082886 0.643984
vt 0.0167 0.264608
vt 0.503333 0.009223
vt 0.494237 0.240959
vt 0.494237 0.240959
vt 0.944636 0.260202
vt 0.501308 0.615465
vt 0.494237 0.240959
vt 0.909737 0.030026
vt 0.944636 0.260202
vt 0.069118 0.052316
vt 0.503333 0.009223
vt 0.0167 0.264608
vt 0.503333 0.009223
vt 0.909737 0.030026
vt 0.494237 0.240959

# 288 Vertex Normals
vn -0.834872 0.368032 0.409317
vn -0.752373 0.361195 0.550883
vn -0.813536 0.414289 0.408073
vn -0.834872 0.368032 0.409317
vn -0.792489 -0.124704 0.597001
vn -0.752373 0.361195 0.550883
vn -0.752373 0.361195 0.550883
vn -0.6966 0.457272 0.552857
vn -0.813536 0.414289 0.408073
vn -0.752373 0.361195 0.550883
vn -0.669386 0.367648 0.645567
vn -0.6966 0.457272 0.552857
vn -0.752373 0.361195 0.550883
vn -0.67169 0.013227 0.740714
vn -0.669386 0.367648 0.645567
vn -0.669386 0.367648 0.645567
vn -0.626227 0.477772 0.616096
vn -0.6966 0.457272 0.552857
vn -0.844168 -0.339732 0.414685
vn -0.792489 -0.124704 0.597001
vn -0.834872 0.368032 0.409317
vn -0.844168 -0.339732 0.414685
vn -0.662641 -0.626555 0.410287
vn -0.792489 -0.124704 0.597001
vn -0.792489 -0.124704 0.597001
vn -0.67169 0.013227 0.740714
vn -0.752373 0.361195 0.550883
vn -0.792489 -0.124704 0.597001
vn -0.577206 -0.538742 0.613669
vn -0.67169 0.013227 0.740714
vn -0.696818 -0.633736 0.335892
vn -0.662641 -0.626555 0.410287
vn -0.844168 -0.339732 0.414685
vn -0.662641 -0.626555 0.410287
vn -0.577206 -0.538742 0.613669
vn -0.792489 -0.124704 0.597001
vn -0.391425 0.368034 0.843408
vn -0.278853 0.324494 0.90385
vn -0.375623 0.41429 0.829018
vn -0.391425 0.368034 0.843408
vn -0.240375 -0.065679 0.968456
vn -0.278853 0.324494 0.90385
vn -0.278853 0.324494 0.90385
vn -0.224175 0.506221 0.832758
vn -0.375623 0.41429 0.829018
vn -0.278853 0.324494 0.90385
vn -0.191775 0.353388 0.915609
vn -0.224175 0.506221 0.832758
vn -0.278853 0.324494 0.90385
vn -0.097192 -0.021429 0.995035
vn -0.191775 0.353388 0.915609
vn -0.191775 0.353388 0.915609
vn -0.081053 0.626481 0.775211
vn -0.224175 0.506221 0.832758
vn -0.404607 -0.271161 0.873364
vn -0.240375 -0.065679 0.968456
vn -0.391425 0.368034 0.843408
vn -0.404607 -0.271161 0.873364
vn -0.277003 -0.541695 0.793622
vn -0.240375 -0.065679 0.968456
vn -0.240375 -0.065679 0.968456
vn -0.097192 -0.021429 0.995035
vn -0.278853 0.324494 0.90385
vn -0.240375 -0.065679 0.968456
vn -0.067476 -0.431487 0.899592
vn -0.097192 -0.021429 0.995035
vn -0.355728 -0.553167 0.753302
vn -0.277003 -0.541695 0.793622
vn -0.404607 -0.271161 0.873364
vn -0.277003 -0.541695 0.793622
vn -0.067476 -0.431487 0.899592
vn -0.240375 -0.065679 0.968456
vn 0.758971 0.368033 -0.537137
vn 0.654965 0.361196 -0.663746
vn 0.738104 0.414291 -0.532508
vn 0.758971 0.368033 -0.537137
vn 0.687219 -0.124704 -0.715667
vn 0.654965 0.361196 -0.663746
vn 0.654965 0.361196 -0.663746
vn 0.59959 0.457272 -0.656806
vn 0.738104 0.414291 -0.532508
vn 0.654965 0.361196 -0.663746
vn 0.557949 0.367649 -0.743994
vn 0.59959 0.457272 -0.656806
vn 0.654965 0.361196 -0.663746
vn 0.545061 0.013227 -0.838292
vn 0.557949 0.367649 -0.743994
vn 0.557949 0.367649 -0.743994
vn 0.520041 0.477769 -0.708021
vn 0.59959 0.457272 -0.656806
vn 0.767292 -0.339733 -0.543916
vn 0.687219 -0.124704 -0.715667
vn 0.758971 0.368033 -0.537137
vn 0.767292 -0.339733 -0.543916
vn 0.588786 -0.626555 -0.510646
vn 0.687219 -0.124704 -0.715667
vn 0.687219 -0.124704 -0.715667
vn 0.545061 0.013227 -0.838292
vn 0.654965 0.361196 -0.663746
vn 0.687219 -0.124704 -0.715667
vn 0.472032 -0.538742 -0.697813
vn 0.545061 0.013227 -0.838292
vn 0.634382 -0.633736 -0.442648
vn 0.588786 -0.626555 -0.510646
vn 0.767292 -0.339733 -0.543916
vn 0.588786 -0.626555 -0.510646
vn 0.472032 -0.538742 -0.697813
vn 0.687219 -0.124704 -0.715667
vn -0.525503 0.271668 -0.806253
vn -0.682324 0.134237 -0.718619
vn -0.564802 -0.150523 -0.811383
vn -0.525503 0.271668 -0.806253
vn -0.655111 0.360329 -0.664072
vn -0.682324 0.134237 -0.718619
vn -0.682324 0.134237 -0.718619
vn -0.692737 -0.093611 -0.715089
vn -0.564802 -0.150523 -0.811383
vn -0.682324 0.134237 -0.718619
vn -0.753311 0.016745 -0.657451
vn -0.692737 -0.093611 -0.715089
vn -0.682324 0.134237 -0.718619
vn -0.78118 0.340904 -0.523012
vn -0.753311 0.016745 -0.657451
vn -0.753311 0.016745 -0.657451
vn -0.729169 -0.109907 -0.67545
vn -0.692737 -0.093611 -0.715089
vn -0.52523 0.275466 -0.805141
vn -0.655111 0.360329 -0.664072
vn -0.525503 0.271668 -0.806253
vn -0.52523 0.275466 -0.805141
vn -0.615749 0.16639 -0.770174
vn -0.655111 0.360329 -0.664072
vn -0.655111 0.360329 -0.664072
vn -0.78118 0.340904 -0.523012
vn -0.682324 0.134237 -0.718619
vn -0.655111 0.360329 -0.664072
vn -0.780281 0.268641 -0.564796
vn -0.78118 0.340904 -0.523012
vn -0.535847 0.153513 -0.830242
vn -0.615749 0.16639 -0.770174
vn -0.52523 0.275466 -0.805141
vn -0.615749 0.16639 -0.770174
vn -0.780281 0.268641 -0.564796
vn -0.655111 0.360329 -0.664072
vn -0.298092 0.368033 0.880735
vn -0.043941 0.384475 0.922089
vn -0.283935 0.41429 0.864722
vn -0.298092 0.368033 0.880735
vn -0.068972 0.173786 0.982365
vn -0.043941 0.384475 0.922089
vn -0.043941 0.384475 0.922089
vn -0.037453 0.323731 0.945408
vn -0.283935 0.41429 0.864722
vn -0.043941 0.384475 0.922089
vn 0.124366 0.265487 0.956059
vn -0.037453 0.323731 0.945408
vn -0.043941 0.384475 0.922089
vn 0.221101 0.282695 0.93338
vn 0.124366 0.265487 0.956059
vn 0.124366 0.265487 0.956059
vn -0.021873 0.050538 0.998483
vn -0.037453 0.323731 0.945408
vn -0.333106 -0.050804 0.94152
vn -0.068972 0.173786 0.982365
vn -0.298092 0.368033 0.880735
vn -0.333106 -0.050804 0.94152
vn -0.205039 -0.207776 0.956446
vn -0.068972 0.173786 0.982365
vn -0.068972 0.173786 0.982365
vn 0.221101 0.282695 0.93338
vn -0.043941 0.384475 0.922089
vn -0.068972 0.173786 0.982365
vn 0.148761 0.072868 0.986185
vn 0.221101 0.282695 0.93338
vn -0.348555 -0.315005 0.882769
vn -0.205039 -0.207776 0.956446
vn -0.333106 -0.050804 0.94152
vn -0.205039 -0.207776 0.956446
vn 0.148761 0.072868 0.986185
vn -0.068972 0.173786 0.982365
vn 0.294381 -0.154482 0.94312
vn 0.685579 0.175794 0.706455
vn 0.756154 -0.060677 0.651574
vn 0.294381 -0.154482 0.94312
vn 0.522198 0.093159 0.847721
vn 0.685579 0.175794 0.706455
vn 0.685579 0.175794 0.706455
vn 0.705864 0.465908 0.533559
vn 0.756154 -0.060677 0.651574
vn 0.685579 0.175794 0.706455
vn 0.656966 0.292584 0.694831
vn 0.705864 0.465908 0.533559
vn 0.685579 0.175794 0.706455
vn 0.774716 0.141167 0.61635
vn 0.656966 0.292584 0.694831
vn 0.656966 0.292584 0.694831
vn 0.60988 0.477773 0.632281
vn 0.705864 0.465908 0.533559
vn 0.124179 0.097311 0.987477
vn 0.522198 0.093159 0.847721
vn 0.294381 -0.154482 0.94312
vn 0.124179 0.097311 0.987477
vn 0.38434 0.15002 0.910921
vn 0.522198 0.093159 0.847721
vn 0.522198 0.093159 0.847721
vn 0.774716 0.141167 0.61635
vn 0.685579 0.175794 0.706455
vn 0.522198 0.093159 0.847721
vn 0.784844 0.035482 0.618677
vn 0.774716 0.141167 0.61635
vn 0.269384 0.518173 0.811744
vn 0.38434 0.15002 0.910921
vn 0.124179 0.097311 0.987477
vn 0.38434 0.15002 0.910921
vn 0.784844 0.035482 0.618677
vn 0.522198 0.093159 0.847721
vn -0.888077 0.368033 -0.275447
vn -0.925262 0.361197 -0.115872
vn -0.871707 0.414291 -0.261705
vn -0.888077 0.368033 -0.275447
vn -0.990917 0.079316 -0.108595
vn -0.925262 0.361197 -0.115872
vn -0.925262 0.361197 -0.115872
vn -0.88606 0.457273 -0.076151
vn -0.871707 0.414291 -0.261705
vn -0.925262 0.361197 -0.115872
vn -0.929911 0.36765 0.009947
vn -0.88606 0.457273 -0.076151
vn -0.925262 0.361197 -0.115872
vn -0.98523 0.152394 0.07809
vn -0.929911 0.36765 0.009947
vn -0.929911 0.36765 0.009947
vn -0.878296 0.477772 0.018142
vn -0.88606 0.457273 -0.076151
vn -0.952497 -0.076069 -0.294896
vn -0.990917 0.079316 -0.108595
vn -0.888077 0.368033 -0.275447
vn -0.952497 -0.076069 -0.294896
vn -0.938853 -0.285011 -0.193193
vn -0.990917 0.079316 -0.108595
vn -0.990917 0.079316 -0.108595
vn -0.98523 0.152394 0.07809
vn -0.925262 0.361197 -0.115872
vn -0.990917 0.079316 -0.108595
vn -0.985319 -0.161196 0.05624
vn -0.98523 0.152394 0.07809
vn -0.909861 -0.297844 -0.288864
vn -0.938853 -0.285011 -0.193193
vn -0.952497 -0.076069 -0.294896
vn -0.938853 -0.285011 -0.193193
vn -0.985319 -0.161196 0.05624
vn -0.990917 0.079316 -0.108595
vn 0.796955 0.368034 -0.478972
vn 0.747836 0.313737 -0.585073
vn 0.775801 0.414294 -0.475913
vn 0.796955 0.368034 -0.478972
vn 0.740993 0.079315 -0.666812
vn 0.747836 0.313737 -0.585073
vn 0.747836 0.313737 -0.585073
vn 0.656821 0.513375 -0.552297
vn 0.775801 0.414294 -0.475913
vn 0.747836 0.313737 -0.585073
vn 0.692212 0.341483 -0.635792
vn 0.656821 0.513375 -0.552297
vn 0.747836 0.313737 -0.585073
vn 0.645433 0.055215 -0.761819
vn 0.692212 0.341483 -0.635792
vn 0.692212 0.341483 -0.635792
vn 0.488797 0.648871 -0.583133
vn 0.656821 0.513375 -0.552297
vn 0.854369 -0.076068 -0.51407
vn 0.740993 0.079315 -0.666812
vn 0.796955 0.368034 -0.478972
vn 0.854369 -0.076068 -0.51407
vn 0.76942 -0.28501 -0.571631
vn 0.740993 0.079315 -0.666812
vn 0.740993 0.079315 -0.666812
vn 0.645433 0.055215 -0.761819
vn 0.747836 0.313737 -0.585073
vn 0.740993 0.079315 -0.666812
vn 0.614312 -0.161197 -0.772422
vn 0.645433 0.055215 -0.761819
vn 0.821472 -0.297844 -0.486284
vn 0.76942 -0.28501 -0.571631
vn 0.854369 -0.076068 -0.51407
vn 0.76942 -0.28501 -0.571631
vn 0.614312 -0.161197 -0.772422
vn 0.740993 0.079315 -0.666812

# str8_1, 96 grouped triangles

usemtl tex
o str8_1
g str8_1

f 2/1/1 3/2/2 1/3/3
f 2/4/4 8/5/5 3/6/6
f 3/7/7 4/8/8 1/9/9
f 3/10/10 5/11/11 4/12/12
f 3/13/13 9/14/14 5/15/15
f 5/16/16 6/17/17 4/18/18
f 7/19/19 8/20/20 2/21/21
f 7/22/22 11/23/23 8/24/24
f 8/25/25 9/26/26 3/27/27
f 8/28/28 12/29/29 9/30/30
f 10/31/31 11/32/32 7/33/33
f 11/34/34 12/35/35 8/36/36
f 14/37/37 15/38/38 13/39/39
f 14/40/40 20/41/41 15/42/42
f 15/43/43 16/44/44 13/45/45
f 15/46/46 17/47/47 16/48/48
f 15/49/49 21/50/50 17/51/51
f 17/52/52 18/53/53 16/54/54
f 19/55/55 20/56/56 14/57/57
f 19/58/58 23/59/59 20/60/60
f 20/61/61 21/62/62 15/63/63
f 20/64/64 24/65/65 21/66/66
f 22/67/67 23/68/68 19/69/69
f 23/70/70 24/71/71 20/72/72
f 26/73/73 27/74/74 25/75/75
f 26/76/76 32/77/77 27/78/78
f 27/79/79 28/80/80 25/81/81
f 27/82/82 29/83/83 28/84/84
f 27/85/85 33/86/86 29/87/87
f 29/88/88 30/89/89 28/90/90
f 31/91/91 32/92/92 26/93/93
f 31/94/94 35/95/95 32/96/96
f 32/97/97 33/98/98 27/99/99
f 32/100/100 36/101/101 33/102/102
f 34/103/103 35/104/104 31/105/105
f 35/106/106 36/107/107 32/108/108
f 38/109/109 39/110/110 37/111/111
f 38/112/112 44/113/113 39/114/114
f 39/115/115 40/116/116 37/117/117
f 39/118/118 41/119/119 40/120/120
f 39/121/121 45/122/122 41/123/123
f 41/124/124 42/125/125 40/126/126
f 43/127/127 44/128/128 38/129/129
f 43/130/130 47/131/131 44/132/132
f 44/133/133 45/134/134 39/135/135
f 44/136/136 48/137/137 45/138/138
f 46/139/139 47/140/140 43/141/141
f 47/142/142 48/143/143 44/144/144
f 50/145/145 51/146/146 49/147/147
f 50/148/148 56/149/149 51/150/150
f 51/151/151 52/152/152 49/153/153
f 51/154/154 53/155/155 52/156/156
f 51/157/157 57/158/158 53/159/159
f 53/160/160 54/161/161 52/162/162
f 55/163/163 56/164/164 50/165/165
f 55/166/166 59/167/167 56/168/168
f 56/169/169 57/170/170 51/171/171
f 56/172/172 60/173/173 57/174/174
f 58/175/175 59/176/176 55/177/177
f 59/178/178 60/179/179 56/180/180
f 62/181/181 63/182/182 61/183/183
f 62/184/184 68/185/185 63/186/186
f 63/187/187 64/188/188 61/189/189
f 63/190/190 65/191/191 64/192/192
f 63/193/193 69/194/194 65/195/195
f 65/196/196 66/197/197 64/198/198
f 67/199/199 68/200/200 62/201/201
f 67/202/202 71/203/203 68/204/204
f 68/205/205 69/206/206 63/207/207
f 68/208/208 72/209/209 69/210/210
f 70/211/211 71/212/212 67/213/213
f 71/214/214 72/215/215 68/216/216
f 74/217/217 75/218/218 73/219/219
f 74/220/220 80/221/221 75/222/222
f 75/223/223 76/224/224 73/225/225
f 75/226/226 77/227/227 76/228/228
f 75/229/229 81/230/230 77/231/231
f 77/232/232 78/233/233 76/234/234
f 79/235/235 80/236/236 74/237/237
f 79/238/238 83/239/239 80/240/240
f 80/241/241 81/242/242 75/243/243
f 80/244/244 84/245/245 81/246/246
f 82/247/247 83/248/248 79/249/249
f 83/250/250 84/251/251 80/252/252
f 86/253/253 87/254/254 85/255/255
f 86/256/256 92/257/257 87/258/258
f 87/259/259 88/260/260 85/261/261
f 87/262/262 89/263/263 88/264/264
f 87/265/265 93/266/266 89/267/267
f 89/268/268 90/269/269 88/270/270
f 91/271/271 92/272/272 86/273/273
f 91/274/274 95/275/275 92/276/276
f 92/277/277 93/278/278 87/279/279
f 92/280/280 96/281/281 93/282/282
f 94/283/283 95/284/284 91/285/285
f 95/286/286 96/287/287 92/288/288
