# Wavefront OBJ file
# Exported by Misfit Model 3D 1.3.8
# Mon Jan 12 22:00:04 2015

mtllib cigarettepak.mtl

# 24 Vertices
v -7.125 22.0625 2.953125
v -7.125 -0.0625 2.953125
v 6.875 22.0625 2.953125
v 6.875 -0.0625 2.953125
v 6.875 22.0625 -2.953125
v 6.875 -0.0625 -2.953125
v -7.125 22.0625 -2.953125
v -7.125 -0.0625 -2.953125
v 6.875 22.0625 2.953125
v 6.875 -0.0625 2.953125
v 6.875 22.0625 -2.953125
v 6.875 -0.0625 -2.953125
v -7.125 22.0625 -2.953125
v -7.125 -0.0625 -2.953125
v -7.125 22.0625 2.953125
v -7.125 -0.0625 2.953125
v -7.125 22.0625 -2.953125
v -7.125 22.0625 2.953125
v 6.875 22.0625 -2.953125
v 6.875 22.0625 2.953125
v -7.125 -0.0625 2.953125
v -7.125 -0.0625 -2.953125
v 6.875 -0.0625 2.953125
v 6.875 -0.0625 -2.953125

# 36 Texture Coordinates
vt 0.002852 0.691033
vt 0.241314 1.001649
vt 0.002852 1.001649
vt 0.241314 0.691033
vt 0.241314 1.001649
vt 0.002852 0.691033
vt 0.320203 0.695877
vt 0.565461 1.002084
vt 0.320203 1.002084
vt 0.565461 0.695877
vt 0.565461 1.002084
vt 0.320203 0.695877
vt 0.233228 0.690434
vt 0.326265 1.002074
vt 0.233228 1.002074
vt 0.326265 0.690434
vt 0.326265 1.002074
vt 0.233228 0.690434
vt 0.239281 0.695961
vt 0.321409 0.996732
vt 0.239281 0.996732
vt 0.321409 0.695961
vt 0.321409 0.996732
vt 0.239281 0.695961
vt 0.658492 0.914317
vt 0.859367 0.993855
vt 0.658492 0.993855
vt 0.859367 0.914317
vt 0.859367 0.993855
vt 0.658492 0.914317
vt 0.653839 0.900977
vt 0.86999 0.815499
vt 0.653839 0.815499
vt 0.86999 0.900977
vt 0.86999 0.815499
vt 0.653839 0.900977

# 36 Vertex Normals
vn 0.0 0.0 1.0
vn 0.0 0.0 1.0
vn 0.0 0.0 1.0
vn 0.0 0.0 1.0
vn 0.0 0.0 1.0
vn 0.0 0.0 1.0
vn -0.0 -0.0 -1.0
vn -0.0 -0.0 -1.0
vn -0.0 -0.0 -1.0
vn -0.0 -0.0 -1.0
vn -0.0 -0.0 -1.0
vn -0.0 -0.0 -1.0
vn 1.0 0.0 -0.0
vn 1.0 0.0 -0.0
vn 1.0 0.0 -0.0
vn 1.0 0.0 0.0
vn 1.0 0.0 -0.0
vn 1.0 0.0 -0.0
vn -1.0 -0.0 -0.0
vn -1.0 -0.0 -0.0
vn -1.0 -0.0 -0.0
vn -1.0 -0.0 0.0
vn -1.0 -0.0 -0.0
vn -1.0 -0.0 -0.0
vn -0.0 1.0 0.0
vn -0.0 1.0 0.0
vn -0.0 1.0 0.0
vn 0.0 1.0 0.0
vn -0.0 1.0 0.0
vn -0.0 1.0 0.0
vn 0.0 -1.0 0.0
vn 0.0 -1.0 0.0
vn 0.0 -1.0 0.0
vn 0.0 -1.0 0.0
vn 0.0 -1.0 0.0
vn 0.0 -1.0 0.0

# Regroup07, 12 grouped triangles

usemtl br_smokes.jpg
o Regroup07
g Regroup07

f 2/1/1 3/2/2 1/3/3
f 4/4/4 3/5/5 2/6/6
f 6/7/7 7/8/8 5/9/9
f 8/10/10 7/11/11 6/12/12
f 10/13/13 11/14/14 9/15/15
f 12/16/16 11/17/17 10/18/18
f 14/19/19 15/20/20 13/21/21
f 16/22/22 15/23/23 14/24/24
f 18/25/25 19/26/26 17/27/27
f 20/28/28 19/29/29 18/30/30
f 22/31/31 23/32/32 21/33/33
f 24/34/34 23/35/35 22/36/36
