# Wavefront OBJ file
# Exported by Misfit Model 3D 1.3.8
# Tue Jan 13 00:31:00 2015

mtllib washer2.mtl

# 76 Vertices
v 15.109373 39.390625 -14.171875
v 15.109375 -0.09375 -14.171875
v -13.359377 39.390625 -14.171875
v -13.359375 -0.09375 -14.171875
v 15.109374 39.390625 -9.875
v 15.109375 -0.09375 -9.875
v -13.359377 44.84375 -14.171875
v -13.359377 44.84375 -11.234375
v 15.109373 44.84375 -11.234375
v 15.109373 44.84375 -14.171875
v -13.359375 -0.09375 -9.875
v -13.359376 39.390625 -9.875
v 5.312499 42.5 -9.90625
v 4.468749 44.0 -10.3125
v 3.624999 42.5 -9.90625
v 5.312499 42.234375 -10.875
v 4.468749 43.75 -11.28125
v 2.765624 44.0 -10.3125
v 2.765624 43.75 -11.28125
v 1.921874 42.5 -9.90625
v 1.921874 42.234375 -10.875
v 2.765624 40.984375 -9.5
v 2.765624 40.734375 -10.46875
v 4.468749 40.984375 -9.5
v 4.468749 40.734375 -10.46875
v -12.578126 38.96875 18.5
v -12.578124 0.3125 18.5
v 14.328124 38.96875 18.5
v 14.328126 0.3125 18.5
v -13.359376 39.390625 17.8125
v -13.359374 -0.09375 17.8125
v 15.109376 -0.09375 17.8125
v 15.109374 39.390625 17.8125
v 15.734374 39.046875 17.140625
v 15.734375 0.234375 17.140625
v 15.734374 39.046875 -9.1875
v 15.734375 0.234375 -9.1875
v -13.984376 38.90625 -9.296875
v -13.984375 0.375 -9.296875
v -13.984376 38.90625 17.25
v -13.984375 0.375 17.25
v -13.359376 39.390625 -9.875
v -13.359375 -0.09375 -9.875
v 15.109375 -0.09375 -9.875
v 15.109374 39.390625 -9.875
v -13.359374 -0.09375 17.8125
v -13.359376 39.390625 17.8125
v 15.109374 39.390625 17.8125
v 15.109376 -0.09375 17.8125
v -13.359376 39.390625 -9.875
v -13.359376 39.390625 17.8125
v 15.109374 39.390625 -9.875
v 15.109374 39.390625 17.8125
v 14.328124 38.96875 18.5
v -12.578126 38.96875 18.5
v -13.984376 38.90625 17.25
v -13.984376 38.90625 -9.296875
v 15.734374 39.046875 -9.1875
v 15.734374 39.046875 17.140625
v -13.359377 44.84375 -11.234375
v -13.359376 39.390625 -9.875
v 15.109374 39.390625 -9.875
v 15.109373 44.84375 -11.234375
v -4.921876 42.5 -9.90625
v -5.765626 44.0 -10.3125
v -6.625001 42.5 -9.90625
v -4.921876 42.234375 -10.875
v -5.765626 43.75 -11.28125
v -7.468751 44.0 -10.3125
v -7.468751 43.75 -11.28125
v -8.312501 42.5 -9.90625
v -8.312501 42.234375 -10.875
v -7.468751 40.984375 -9.5
v -7.468751 40.734375 -10.46875
v -5.765626 40.984375 -9.5
v -5.765626 40.734375 -10.46875

# 234 Texture Coordinates
vt 0.121615 0.430739
vt 0.121615 0.614338
vt 0.121615 0.614338
vt 0.121615 0.430739
vt 0.121615 0.614338
vt 0.121615 0.430739
vt 0.392972 0.614338
vt 0.392972 0.430739
vt 0.121615 0.614338
vt 0.392972 0.430739
vt 0.121615 0.430739
vt 0.121615 0.614338
vt 0.306917 0.639691
vt 0.306917 0.639691
vt 0.121615 0.639691
vt 0.306917 0.639691
vt 0.121615 0.639691
vt 0.121615 0.639691
vt 0.392972 0.430739
vt 0.392972 0.614338
vt 0.121615 0.430739
vt 0.392972 0.614338
vt 0.121615 0.614338
vt 0.121615 0.430739
vt 0.121615 0.614338
vt 0.392972 0.614338
vt 0.121615 0.639691
vt 0.392972 0.614338
vt 0.306917 0.639691
vt 0.121615 0.639691
vt 0.392972 0.614338
vt 0.121615 0.614338
vt 0.306917 0.639691
vt 0.121615 0.614338
vt 0.121615 0.639691
vt 0.306917 0.639691
vt 0.121615 0.614338
vt 0.121615 0.614338
vt 0.121615 0.639691
vt 0.121615 0.614338
vt 0.121615 0.639691
vt 0.121615 0.639691
vt 0.412921 0.34549
vt 0.390478 0.306634
vt 0.435364 0.306634
vt 0.435364 0.299968
vt 0.412921 0.34549
vt 0.435364 0.306634
vt 0.412921 0.338823
vt 0.412921 0.34549
vt 0.435364 0.299968
vt 0.368035 0.34549
vt 0.390478 0.306634
vt 0.412921 0.34549
vt 0.412921 0.338823
vt 0.368035 0.338823
vt 0.412921 0.34549
vt 0.368035 0.338823
vt 0.368035 0.34549
vt 0.412921 0.34549
vt 0.345591 0.306634
vt 0.390478 0.306634
vt 0.368035 0.34549
vt 0.368035 0.338823
vt 0.345591 0.306634
vt 0.368035 0.34549
vt 0.345591 0.299968
vt 0.345591 0.306634
vt 0.368035 0.338823
vt 0.368035 0.267779
vt 0.390478 0.306634
vt 0.345591 0.306634
vt 0.345591 0.299968
vt 0.368035 0.261113
vt 0.345591 0.306634
vt 0.368035 0.261113
vt 0.368035 0.267779
vt 0.345591 0.306634
vt 0.412921 0.267779
vt 0.390478 0.306634
vt 0.368035 0.267779
vt 0.368035 0.261113
vt 0.412921 0.267779
vt 0.368035 0.267779
vt 0.412921 0.261113
vt 0.412921 0.267779
vt 0.368035 0.261113
vt 0.435364 0.306634
vt 0.390478 0.306634
vt 0.412921 0.267779
vt 0.412921 0.261113
vt 0.435364 0.299968
vt 0.412921 0.267779
vt 0.435364 0.299968
vt 0.435364 0.306634
vt 0.412921 0.267779
vt 0.020846 0.367286
vt 0.480798 0.990189
vt 0.026706 0.990189
vt 0.474939 0.367286
vt 0.480798 0.990189
vt 0.020846 0.367286
vt 0.015694 0.995652
vt 0.009835 0.361824
vt 0.026706 0.990189
vt 0.009835 0.361824
vt 0.020846 0.367286
vt 0.026706 0.990189
vt 0.48595 0.361824
vt 0.491809 0.995652
vt 0.474939 0.367286
vt 0.491809 0.995652
vt 0.480798 0.990189
vt 0.474939 0.367286
vt 0.472311 0.445143
vt 0.035971 0.613498
vt 0.472311 0.613498
vt 0.035971 0.445143
vt 0.035971 0.613498
vt 0.472311 0.445143
vt 0.034123 0.445787
vt 0.474159 0.612854
vt 0.034123 0.612854
vt 0.474159 0.445787
vt 0.474159 0.612854
vt 0.034123 0.445787
vt 0.024802 0.614966
vt 0.024802 0.443675
vt 0.034123 0.612854
vt 0.024802 0.443675
vt 0.034123 0.445787
vt 0.034123 0.612854
vt 0.024802 0.443675
vt 0.024802 0.614966
vt 0.035971 0.445143
vt 0.024802 0.614966
vt 0.035971 0.613498
vt 0.035971 0.445143
vt 0.48348 0.443675
vt 0.48348 0.614966
vt 0.474159 0.445787
vt 0.48348 0.614966
vt 0.474159 0.612854
vt 0.474159 0.445787
vt 0.48348 0.614966
vt 0.48348 0.443675
vt 0.472311 0.613498
vt 0.48348 0.443675
vt 0.472311 0.445143
vt 0.472311 0.613498
vt 0.203516 0.006433
vt 0.494767 0.21582
vt 0.203516 0.21582
vt 0.494767 0.006433
vt 0.494767 0.21582
vt 0.203516 0.006433
vt 0.494767 0.006433
vt 0.203516 0.006433
vt 0.486864 0.001279
vt 0.203516 0.006433
vt 0.211419 0.001279
vt 0.486864 0.001279
vt 0.203516 0.006433
vt 0.203516 0.21582
vt 0.197124 0.010688
vt 0.203516 0.21582
vt 0.197124 0.211565
vt 0.197124 0.010688
vt 0.494767 0.21582
vt 0.494767 0.006433
vt 0.501159 0.210721
vt 0.494767 0.006433
vt 0.501159 0.011532
vt 0.501159 0.210721
vt 0.033344 0.232063
vt 0.476558 0.228157
vt 0.035297 0.355054
vt 0.476558 0.228157
vt 0.478512 0.351148
vt 0.035297 0.355054
vt 0.412921 0.34549
vt 0.390478 0.306634
vt 0.435364 0.306634
vt 0.435364 0.299968
vt 0.412921 0.34549
vt 0.435364 0.306634
vt 0.412921 0.338823
vt 0.412921 0.34549
vt 0.435364 0.299968
vt 0.368035 0.34549
vt 0.390478 0.306634
vt 0.412921 0.34549
vt 0.412921 0.338823
vt 0.368035 0.338823
vt 0.412921 0.34549
vt 0.368035 0.338823
vt 0.368035 0.34549
vt 0.412921 0.34549
vt 0.345591 0.306634
vt 0.390478 0.306634
vt 0.368035 0.34549
vt 0.368035 0.338823
vt 0.345591 0.306634
vt 0.368035 0.34549
vt 0.345591 0.299968
vt 0.345591 0.306634
vt 0.368035 0.338823
vt 0.368035 0.267779
vt 0.390478 0.306634
vt 0.345591 0.306634
vt 0.345591 0.299968
vt 0.368035 0.261113
vt 0.345591 0.306634
vt 0.368035 0.261113
vt 0.368035 0.267779
vt 0.345591 0.306634
vt 0.412921 0.267779
vt 0.390478 0.306634
vt 0.368035 0.267779
vt 0.368035 0.261113
vt 0.412921 0.267779
vt 0.368035 0.267779
vt 0.412921 0.261113
vt 0.412921 0.267779
vt 0.368035 0.261113
vt 0.435364 0.306634
vt 0.390478 0.306634
vt 0.412921 0.267779
vt 0.412921 0.261113
vt 0.435364 0.299968
vt 0.412921 0.267779
vt 0.435364 0.299968
vt 0.435364 0.306634
vt 0.412921 0.267779

# 234 Vertex Normals
vn 0.0 0.0 -1.0
vn 0.0 0.0 -1.0
vn 0.0 0.0 -1.0
vn 0.0 0.0 -1.0
vn 0.0 0.0 -1.0
vn 0.0 0.0 -1.0
vn 1.0 0.0 -0.0
vn 1.0 0.0 -0.0
vn 1.0 0.0 -0.0
vn 1.0 0.0 -0.0
vn 1.0 0.0 -0.0
vn 1.0 0.0 -0.0
vn 0.0 1.0 0.0
vn 0.0 1.0 0.0
vn 0.0 1.0 0.0
vn 0.0 1.0 0.0
vn 0.0 1.0 0.0
vn 0.0 1.0 0.0
vn -1.0 -0.0 0.0
vn -1.0 -0.0 0.0
vn -1.0 -0.0 0.0
vn -1.0 -0.0 0.0
vn -1.0 -0.0 0.0
vn -1.0 -0.0 0.0
vn -1.0 -0.0 0.0
vn -1.0 -0.0 0.0
vn -1.0 -0.0 0.0
vn -1.0 -0.0 0.0
vn -1.0 -0.0 0.0
vn -1.0 -0.0 0.0
vn 1.0 0.0 -0.0
vn 1.0 0.0 -0.0
vn 1.0 0.0 0.0
vn 1.0 0.0 -0.0
vn 1.0 0.0 0.0
vn 1.0 0.0 0.0
vn 0.0 0.0 -1.0
vn 0.0 0.0 -1.0
vn 0.0 0.0 -1.0
vn 0.0 0.0 -1.0
vn 0.0 0.0 -1.0
vn 0.0 0.0 -1.0
vn 0.0 0.261415 0.965226
vn 0.0 0.260159 0.965566
vn 0.0 0.260159 0.965566
vn 1.0 -0.000008 -0.000014
vn 0.512167 0.831114 -0.216641
vn 0.999998 0.001946 -0.000533
vn 0.513026 0.831143 -0.214489
vn 0.512167 0.831114 -0.216641
vn 1.0 -0.000008 -0.000014
vn 0.0 0.261415 0.965226
vn 0.0 0.260159 0.965566
vn 0.0 0.261415 0.965226
vn 0.513026 0.831143 -0.214489
vn -0.512164 0.83112 -0.216627
vn 0.512167 0.831114 -0.216641
vn -0.512164 0.83112 -0.216627
vn -0.511285 0.832148 -0.214748
vn 0.512167 0.831114 -0.216641
vn 0.0 0.260159 0.965566
vn 0.0 0.260159 0.965566
vn 0.0 0.261415 0.965226
vn -0.512164 0.83112 -0.216627
vn -1.0 0.000008 0.000014
vn -0.511285 0.832148 -0.214748
vn -0.999998 -0.001946 0.000534
vn -1.0 0.000008 0.000014
vn -0.512164 0.83112 -0.216627
vn 0.0 0.258902 0.965904
vn 0.0 0.260159 0.965566
vn 0.0 0.260159 0.965566
vn -0.999998 -0.001946 0.000534
vn -0.512167 -0.831114 0.216642
vn -1.0 0.000008 0.000014
vn -0.512167 -0.831114 0.216642
vn -0.513026 -0.831143 0.214489
vn -1.0 0.000008 0.000014
vn 0.0 0.258902 0.965904
vn 0.0 0.260159 0.965566
vn 0.0 0.258902 0.965904
vn -0.512167 -0.831114 0.216642
vn 0.512164 -0.83112 0.216627
vn -0.513026 -0.831143 0.214489
vn 0.511286 -0.832148 0.214748
vn 0.512164 -0.83112 0.216627
vn -0.512167 -0.831114 0.216642
vn 0.0 0.260159 0.965566
vn 0.0 0.260159 0.965566
vn 0.0 0.258902 0.965904
vn 0.511286 -0.832148 0.214748
vn 1.0 -0.000008 -0.000014
vn 0.512164 -0.83112 0.216627
vn 1.0 -0.000008 -0.000014
vn 0.999998 0.001946 -0.000533
vn 0.512164 -0.83112 0.216627
vn -0.233526 -0.0 0.972351
vn 0.233526 0.0 0.972351
vn -0.467051 -0.0 0.88423
vn 0.467051 0.0 0.88423
vn 0.233526 0.0 0.972351
vn -0.233526 -0.0 0.972351
vn -0.660628 -0.0 0.750714
vn -0.660628 -0.0 0.750713
vn -0.467051 -0.0 0.88423
vn -0.660628 -0.0 0.750713
vn -0.233526 -0.0 0.972351
vn -0.467051 -0.0 0.88423
vn 0.660628 0.0 0.750714
vn 0.660628 0.0 0.750714
vn 0.467051 0.0 0.88423
vn 0.660628 0.0 0.750714
vn 0.233526 0.0 0.972351
vn 0.467051 0.0 0.88423
vn 0.970305 0.0 0.241886
vn 0.971161 0.0 -0.238426
vn 0.875194 0.0 0.483772
vn 0.878983 0.0 -0.476852
vn 0.971161 0.0 -0.238426
vn 0.970305 0.0 0.241886
vn -0.964448 -0.0 -0.264274
vn -0.96334 -0.0 0.268285
vn -0.848904 -0.0 -0.528547
vn -0.843855 -0.0 0.536571
vn -0.96334 -0.0 0.268285
vn -0.964448 -0.0 -0.264274
vn -0.679042 -0.0 -0.734099
vn -0.679042 -0.0 -0.734099
vn -0.848904 -0.0 -0.528547
vn -0.679042 -0.0 -0.734099
vn -0.964448 -0.0 -0.264274
vn -0.848904 -0.0 -0.528547
vn 0.73994 0.0 -0.672673
vn 0.73994 0.0 -0.672673
vn 0.878983 0.0 -0.476852
vn 0.73994 0.0 -0.672673
vn 0.971161 0.0 -0.238426
vn 0.878983 0.0 -0.476852
vn -0.668964 -0.0 0.743295
vn -0.668964 -0.0 0.743294
vn -0.843855 -0.0 0.536571
vn -0.668964 -0.0 0.743294
vn -0.96334 -0.0 0.268285
vn -0.843855 -0.0 0.536571
vn 0.732186 0.0 0.681104
vn 0.732187 0.0 0.681104
vn 0.875194 0.0 0.483772
vn 0.732187 0.0 0.681104
vn 0.970305 0.0 0.241886
vn 0.875194 0.0 0.483772
vn -0.131576 0.965508 0.224681
vn 0.165249 0.986252 -0.0
vn -0.428842 0.903379 0.0
vn 0.255805 0.956711 0.13881
vn 0.165249 0.986252 -0.0
vn -0.131576 0.965508 0.224681
vn 0.255805 0.956711 0.13881
vn -0.131576 0.965508 0.224681
vn 0.0 0.852323 0.523016
vn -0.131576 0.965508 0.224681
vn 0.0 0.852323 0.523016
vn 0.0 0.852323 0.523016
vn -0.131576 0.965508 0.224681
vn -0.428842 0.903379 0.0
vn -0.612572 0.790415 0.0
vn -0.428842 0.903379 0.0
vn -0.612572 0.790415 0.0
vn -0.612572 0.790415 0.0
vn 0.165249 0.986252 -0.0
vn 0.255805 0.956711 0.13881
vn 0.481919 0.876216 0.0
vn 0.255805 0.956711 0.13881
vn 0.481919 0.876216 0.0
vn 0.481919 0.876216 0.0
vn 0.0 0.241881 0.970306
vn 0.0 0.241881 0.970306
vn 0.0 0.241881 0.970306
vn 0.0 0.241881 0.970306
vn 0.0 0.241881 0.970306
vn 0.0 0.241881 0.970306
vn 0.0 0.261415 0.965226
vn 0.0 0.260159 0.965566
vn 0.0 0.260159 0.965566
vn 1.0 -0.000008 -0.000014
vn 0.512167 0.831114 -0.216642
vn 0.999998 0.001946 -0.000533
vn 0.513026 0.831143 -0.214489
vn 0.512167 0.831114 -0.216642
vn 1.0 -0.000008 -0.000014
vn 0.0 0.261415 0.965226
vn 0.0 0.260159 0.965566
vn 0.0 0.261415 0.965226
vn 0.513026 0.831143 -0.214489
vn -0.512164 0.83112 -0.216627
vn 0.512167 0.831114 -0.216642
vn -0.512164 0.83112 -0.216627
vn -0.511286 0.832148 -0.214748
vn 0.512167 0.831114 -0.216642
vn 0.0 0.260159 0.965566
vn 0.0 0.260159 0.965566
vn 0.0 0.261415 0.965226
vn -0.512164 0.83112 -0.216627
vn -1.0 0.000008 0.000014
vn -0.511286 0.832148 -0.214748
vn -0.999998 -0.001946 0.000534
vn -1.0 0.000008 0.000014
vn -0.512164 0.83112 -0.216627
vn 0.0 0.258902 0.965904
vn 0.0 0.260159 0.965566
vn 0.0 0.260159 0.965566
vn -0.999998 -0.001946 0.000534
vn -0.512167 -0.831114 0.216642
vn -1.0 0.000008 0.000014
vn -0.512167 -0.831114 0.216642
vn -0.513026 -0.831143 0.214489
vn -1.0 0.000008 0.000014
vn 0.0 0.258902 0.965904
vn 0.0 0.260159 0.965566
vn 0.0 0.258902 0.965904
vn -0.512167 -0.831114 0.216642
vn 0.512164 -0.83112 0.216627
vn -0.513026 -0.831143 0.214489
vn 0.511285 -0.832148 0.214748
vn 0.512164 -0.83112 0.216627
vn -0.512167 -0.831114 0.216642
vn 0.0 0.260159 0.965566
vn 0.0 0.260159 0.965566
vn 0.0 0.258902 0.965904
vn 0.511285 -0.832148 0.214748
vn 1.0 -0.000008 -0.000014
vn 0.512164 -0.83112 0.216627
vn 1.0 -0.000008 -0.000014
vn 0.999998 0.001946 -0.000533
vn 0.512164 -0.83112 0.216627

# washer1, 78 grouped triangles

usemtl br_washer.jpg
o washer1
g washer1

f 2/1/1 3/2/2 1/3/3
f 4/4/4 3/5/5 2/6/6
f 5/7/7 6/8/8 1/9/9
f 6/10/10 2/11/11 1/12/12
f 8/13/13 9/14/14 7/15/15
f 9/16/16 10/17/17 7/18/18
f 11/19/19 12/20/20 4/21/21
f 12/22/22 3/23/23 4/24/24
f 3/25/25 12/26/26 7/27/27
f 12/28/28 8/29/29 7/30/30
f 5/31/31 1/32/32 9/33/33
f 1/34/34 10/35/35 9/36/36
f 1/37/37 3/38/38 10/39/39
f 3/40/40 7/41/41 10/42/42
f 14/43/43 15/44/44 13/45/45
f 16/46/46 14/47/47 13/48/48
f 17/49/49 14/50/50 16/51/51
f 18/52/52 15/53/53 14/54/54
f 17/55/55 19/56/56 14/57/57
f 19/58/58 18/59/59 14/60/60
f 20/61/61 15/62/62 18/63/63
f 19/64/64 20/65/65 18/66/66
f 21/67/67 20/68/68 19/69/69
f 22/70/70 15/71/71 20/72/72
f 21/73/73 23/74/74 20/75/75
f 23/76/76 22/77/77 20/78/78
f 24/79/79 15/80/80 22/81/81
f 23/82/82 24/83/83 22/84/84
f 25/85/85 24/86/86 23/87/87
f 13/88/88 15/89/89 24/90/90
f 25/91/91 16/92/92 24/93/93
f 16/94/94 13/95/95 24/96/96
f 27/97/97 28/98/98 26/99/99
f 29/100/100 28/101/101 27/102/102
f 30/103/103 31/104/104 26/105/105
f 31/106/106 27/107/107 26/108/108
f 32/109/109 33/110/110 29/111/111
f 33/112/112 28/113/113 29/114/114
f 35/115/115 36/116/116 34/117/117
f 37/118/118 36/119/119 35/120/120
f 39/121/121 40/122/122 38/123/123
f 41/124/124 40/125/125 39/126/126
f 42/127/127 43/128/128 38/129/129
f 43/130/130 39/131/131 38/132/132
f 44/133/133 45/134/134 37/135/135
f 45/136/136 36/137/137 37/138/138
f 46/139/139 47/140/140 41/141/141
f 47/142/142 40/143/143 41/144/144
f 48/145/145 49/146/146 34/147/147
f 49/148/148 35/149/149 34/150/150
f 51/151/151 52/152/152 50/153/153
f 53/154/154 52/155/155 51/156/156
f 53/157/157 51/158/158 54/159/159
f 51/160/160 55/161/161 54/162/162
f 51/163/163 50/164/164 56/165/165
f 50/166/166 57/167/167 56/168/168
f 52/169/169 53/170/170 58/171/171
f 53/172/172 59/173/173 58/174/174
f 61/175/175 62/176/176 60/177/177
f 62/178/178 63/179/179 60/180/180
f 65/181/181 66/182/182 64/183/183
f 67/184/184 65/185/185 64/186/186
f 68/187/187 65/188/188 67/189/189
f 69/190/190 66/191/191 65/192/192
f 68/193/193 70/194/194 65/195/195
f 70/196/196 69/197/197 65/198/198
f 71/199/199 66/200/200 69/201/201
f 70/202/202 71/203/203 69/204/204
f 72/205/205 71/206/206 70/207/207
f 73/208/208 66/209/209 71/210/210
f 72/211/211 74/212/212 71/213/213
f 74/214/214 73/215/215 71/216/216
f 75/217/217 66/218/218 73/219/219
f 74/220/220 75/221/221 73/222/222
f 76/223/223 75/224/224 74/225/225
f 64/226/226 66/227/227 75/228/228
f 76/229/229 67/230/230 75/231/231
f 67/232/232 64/233/233 75/234/234
