# Wavefront OBJ file
# Exported by Misfit Model 3D 1.3.8
# Mon Jan 12 21:56:50 2015

mtllib oldpainting4.mtl

# 32 Vertices
v -17.000002 55.015625 2.96875
v 16.999998 55.015625 2.96875
v -17.000002 55.015625 -0.015625
v 16.999998 55.015625 -0.015625
v -17.000002 55.015625 -0.015625
v 16.999998 55.015625 -0.015625
v -17.0 0.015625 -0.015625
v 17.0 0.015625 -0.015625
v -17.0 0.015625 -0.015625
v 17.0 0.015625 -0.015625
v -17.0 0.015625 2.96875
v 17.0 0.015625 2.96875
v -17.0 0.015625 -0.015625
v -17.0 0.015625 2.96875
v -17.000002 55.015625 -0.015625
v -17.000002 55.015625 2.96875
v 17.0 0.015625 2.96875
v 17.0 0.015625 -0.015625
v 16.999998 55.015625 2.96875
v 16.999998 55.015625 -0.015625
v -16.000002 51.015625 0.96875
v -17.0 0.015625 2.96875
v -16.0 4.015625 0.96875
v -16.0 4.015625 0.96875
v 16.0 4.015625 0.96875
v -16.000002 51.015625 0.96875
v 15.999999 51.015625 0.96875
v 17.0 0.015625 2.96875
v 16.0 4.015625 0.96875
v -17.000002 55.015625 2.96875
v 16.999998 55.015625 2.96875
v 15.999999 51.015625 0.96875

# 60 Texture Coordinates
vt 0.837386 0.453305
vt 0.825873 0.453364
vt 0.825873 0.453364
vt 0.837386 0.453305
vt 0.825873 0.453364
vt 0.837386 0.453305
vt 0.837386 0.453305
vt 0.826202 0.517416
vt 0.825873 0.453364
vt 0.837715 0.517357
vt 0.826202 0.517416
vt 0.837386 0.453305
vt 0.837715 0.517357
vt 0.826202 0.517416
vt 0.826202 0.517416
vt 0.837715 0.517357
vt 0.826202 0.517416
vt 0.837715 0.517357
vt 0.826202 0.517416
vt 0.825873 0.453364
vt 0.826202 0.517416
vt 0.825873 0.453364
vt 0.825873 0.453364
vt 0.826202 0.517416
vt 0.837715 0.517357
vt 0.837386 0.453305
vt 0.837715 0.517357
vt 0.837386 0.453305
vt 0.837386 0.453305
vt 0.837715 0.517357
vt 0.015269 0.656621
vt 0.025473 0.684603
vt 0.022869 0.964858
vt 0.2974 0.684603
vt 0.022869 0.964858
vt 0.025473 0.684603
vt 0.294796 0.964858
vt 0.022869 0.964858
vt 0.2974 0.684603
vt 0.015269 0.656621
vt 0.307604 0.656621
vt 0.025473 0.684603
vt 0.307604 0.656621
vt 0.2974 0.684603
vt 0.025473 0.684603
vt 0.012665 0.99284
vt 0.015269 0.656621
vt 0.022869 0.964858
vt 0.307604 0.656621
vt 0.304999 0.99284
vt 0.2974 0.684603
vt 0.304999 0.99284
vt 0.294796 0.964858
vt 0.2974 0.684603
vt 0.304999 0.99284
vt 0.012665 0.99284
vt 0.294796 0.964858
vt 0.012665 0.99284
vt 0.022869 0.964858
vt 0.294796 0.964858

# 60 Vertex Normals
vn -0.0 1.0 0.0
vn -0.0 1.0 0.0
vn -0.0 1.0 0.0
vn -0.0 1.0 0.0
vn -0.0 1.0 0.0
vn -0.0 1.0 0.0
vn -0.0 -0.0 -1.0
vn -0.0 -0.0 -1.0
vn -0.0 0.0 -1.0
vn -0.0 -0.0 -1.0
vn -0.0 -0.0 -1.0
vn -0.0 -0.0 -1.0
vn 0.0 -1.0 0.0
vn 0.0 -1.0 0.0
vn 0.0 -1.0 0.0
vn 0.0 -1.0 0.0
vn 0.0 -1.0 0.0
vn 0.0 -1.0 0.0
vn -1.0 -0.0 -0.0
vn -1.0 -0.0 -0.0
vn -1.0 -0.0 0.0
vn -1.0 -0.0 -0.0
vn -1.0 -0.0 -0.0
vn -1.0 -0.0 -0.0
vn 1.0 0.0 -0.0
vn 1.0 0.0 -0.0
vn 1.0 0.0 0.0
vn 1.0 0.0 -0.0
vn 1.0 0.0 -0.0
vn 1.0 0.0 -0.0
vn 0.696311 0.174078 0.696311
vn 0.348155 0.348155 0.870388
vn 0.696311 -0.174078 0.696311
vn 0.0 0.0 1.0
vn 0.0 0.0 1.0
vn 0.0 -0.0 1.0
vn 0.0 0.0 1.0
vn 0.0 0.0 1.0
vn 0.0 0.0 1.0
vn 0.696311 0.174078 0.696311
vn -0.348155 0.348155 0.870388
vn 0.348155 0.348155 0.870388
vn -0.348155 0.348155 0.870388
vn -0.696311 0.174078 0.696311
vn 0.348155 0.348155 0.870388
vn 0.348155 -0.348155 0.870388
vn 0.696311 0.174078 0.696311
vn 0.696311 -0.174078 0.696311
vn -0.348155 0.348155 0.870388
vn -0.696311 -0.174078 0.696311
vn -0.696311 0.174078 0.696311
vn -0.696311 -0.174078 0.696311
vn -0.348155 -0.348155 0.870388
vn -0.696311 0.174078 0.696311
vn -0.696311 -0.174078 0.696311
vn 0.348155 -0.348155 0.870388
vn -0.348155 -0.348155 0.870388
vn 0.348155 -0.348155 0.870388
vn 0.696311 -0.174078 0.696311
vn -0.348155 -0.348155 0.870388

# br_painting4, 20 grouped triangles

usemtl br_nimrod4.jpg
o br_painting4
g br_painting4

f 2/1/1 3/2/2 1/3/3
f 4/4/4 3/5/5 2/6/6
f 6/7/7 7/8/8 5/9/9
f 8/10/10 7/11/11 6/12/12
f 10/13/13 11/14/14 9/15/15
f 12/16/16 11/17/17 10/18/18
f 14/19/19 15/20/20 13/21/21
f 16/22/22 15/23/23 14/24/24
f 18/25/25 19/26/26 17/27/27
f 20/28/28 19/29/29 18/30/30
f 22/31/31 23/32/32 21/33/33
f 25/34/34 26/35/35 24/36/36
f 27/37/37 26/38/38 25/39/39
f 22/40/40 28/41/41 23/42/42
f 28/43/43 29/44/44 23/45/45
f 30/46/46 22/47/47 21/48/48
f 28/49/49 31/50/50 29/51/51
f 31/52/52 32/53/53 29/54/54
f 31/55/55 30/56/56 32/57/57
f 30/58/58 21/59/59 32/60/60
