# Wavefront OBJ file
# Exported by Misfit Model 3D 1.3.8
# Mon Jan 12 21:59:20 2015

mtllib cigarette.mtl

# 32 Vertices
v 0.375 0.390625 4.140625
v 0.375 0.390625 -4.09375
v 0.25 0.65625 4.140625
v 0.25 0.65625 -4.09375
v -0.0 0.765625 -4.09375
v 0.0 0.765625 4.140625
v -0.25 0.65625 4.140625
v -0.25 0.65625 -4.09375
v -0.375 0.390625 -4.09375
v -0.375 0.390625 4.140625
v -0.25 0.125 4.140625
v -0.25 0.125 -4.09375
v -0.0 0.015625 -4.09375
v 0.0 0.015625 4.140625
v 0.25 0.125 4.140625
v 0.25 0.125 -4.09375
v 0.375 0.390625 -4.09375
v -0.0 0.765625 -4.09375
v 0.25 0.65625 -4.09375
v -0.25 0.65625 -4.09375
v -0.375 0.390625 -4.09375
v -0.25 0.125 -4.09375
v -0.0 0.015625 -4.09375
v 0.25 0.125 -4.09375
v 0.375 0.390625 4.140625
v 0.25 0.65625 4.140625
v 0.0 0.765625 4.140625
v -0.25 0.65625 4.140625
v -0.375 0.390625 4.140625
v -0.25 0.125 4.140625
v 0.0 0.015625 4.140625
v 0.25 0.125 4.140625

# 84 Texture Coordinates
vt 0.975822 1.000752
vt 0.948739 0.004689
vt 0.975822 0.004689
vt 0.948739 1.000753
vt 0.948739 0.004689
vt 0.975822 1.000752
vt 0.948739 1.000753
vt 0.883354 1.000752
vt 0.948739 0.004689
vt 0.883354 1.000752
vt 0.883354 0.004689
vt 0.948739 0.004689
vt 0.883354 1.000752
vt 0.817971 0.004689
vt 0.883354 0.004689
vt 0.817971 1.000753
vt 0.817971 0.004689
vt 0.883354 1.000752
vt 0.817971 1.000753
vt 0.790887 1.000752
vt 0.817971 0.004689
vt 0.790887 1.000752
vt 0.790887 0.004689
vt 0.817971 0.004689
vt 0.790887 1.000752
vt 0.817971 0.004689
vt 0.790887 0.004689
vt 0.817971 1.000752
vt 0.817971 0.004689
vt 0.790887 1.000752
vt 0.817971 1.000752
vt 0.883354 1.000753
vt 0.817971 0.004689
vt 0.883354 1.000753
vt 0.883354 0.004689
vt 0.817971 0.004689
vt 0.883354 1.000753
vt 0.948739 0.004689
vt 0.883354 0.004689
vt 0.948739 1.000752
vt 0.948739 0.004689
vt 0.883354 1.000753
vt 0.948739 1.000752
vt 0.975822 1.000752
vt 0.948739 0.004689
vt 0.975822 1.000752
vt 0.975822 0.004689
vt 0.948739 0.004689
vt 0.147598 0.161445
vt 0.190354 0.144013
vt 0.208063 0.101928
vt 0.104843 0.144013
vt 0.147598 0.161445
vt 0.208063 0.101928
vt 0.087133 0.101928
vt 0.104843 0.144013
vt 0.208063 0.101928
vt 0.104843 0.059843
vt 0.087133 0.101928
vt 0.208063 0.101928
vt 0.147598 0.042411
vt 0.104843 0.059843
vt 0.208063 0.101928
vt 0.190354 0.059843
vt 0.147598 0.042411
vt 0.208063 0.101928
vt 0.426979 0.146492
vt 0.381746 0.164545
vt 0.445714 0.102907
vt 0.381746 0.164545
vt 0.336515 0.146492
vt 0.445714 0.102907
vt 0.336515 0.146492
vt 0.317779 0.102907
vt 0.445714 0.102907
vt 0.317779 0.102907
vt 0.336515 0.059322
vt 0.445714 0.102907
vt 0.336515 0.059322
vt 0.381746 0.041268
vt 0.445714 0.102907
vt 0.381746 0.041268
vt 0.426979 0.059322
vt 0.445714 0.102907

# 84 Vertex Normals
vn 1.0 0.0 -0.0
vn 0.697342 0.716739 -0.0
vn 1.0 0.0 -0.0
vn 0.697342 0.716739 -0.0
vn 0.697342 0.716739 -0.0
vn 1.0 0.0 -0.0
vn 0.697342 0.716739 -0.0
vn 0.0 1.0 -0.0
vn 0.697342 0.716739 -0.0
vn 0.0 1.0 -0.0
vn 0.0 1.0 0.0
vn 0.697342 0.716739 -0.0
vn 0.0 1.0 -0.0
vn -0.697342 0.716739 0.0
vn 0.0 1.0 0.0
vn -0.697342 0.716739 0.0
vn -0.697342 0.716739 0.0
vn 0.0 1.0 -0.0
vn -0.697342 0.716739 0.0
vn -1.0 -0.0 0.0
vn -0.697342 0.716739 0.0
vn -1.0 -0.0 0.0
vn -1.0 -0.0 0.0
vn -0.697342 0.716739 0.0
vn -1.0 -0.0 0.0
vn -0.697342 -0.716739 0.0
vn -1.0 -0.0 0.0
vn -0.697342 -0.716739 0.0
vn -0.697342 -0.716739 0.0
vn -1.0 -0.0 0.0
vn -0.697342 -0.716739 0.0
vn 0.0 -1.0 -0.0
vn -0.697342 -0.716739 0.0
vn 0.0 -1.0 -0.0
vn 0.0 -1.0 0.0
vn -0.697342 -0.716739 0.0
vn 0.0 -1.0 -0.0
vn 0.697342 -0.716739 -0.0
vn 0.0 -1.0 0.0
vn 0.697342 -0.716739 -0.0
vn 0.697342 -0.716739 -0.0
vn 0.0 -1.0 -0.0
vn 0.697342 -0.716739 -0.0
vn 1.0 0.0 -0.0
vn 0.697342 -0.716739 -0.0
vn 1.0 0.0 -0.0
vn 1.0 0.0 -0.0
vn 0.697342 -0.716739 -0.0
vn 0.0 -0.0 -1.0
vn 0.0 -0.0 -1.0
vn 0.0 -0.0 -1.0
vn 0.0 -0.0 -1.0
vn 0.0 -0.0 -1.0
vn 0.0 -0.0 -1.0
vn 0.0 0.0 -1.0
vn 0.0 -0.0 -1.0
vn 0.0 -0.0 -1.0
vn 0.0 -0.0 -1.0
vn 0.0 0.0 -1.0
vn 0.0 -0.0 -1.0
vn 0.0 0.0 -1.0
vn 0.0 -0.0 -1.0
vn 0.0 -0.0 -1.0
vn 0.0 0.000001 -1.0
vn 0.0 0.0 -1.0
vn 0.0 -0.0 -1.0
vn 0.0 -0.0 1.0
vn 0.0 -0.0 1.0
vn 0.0 -0.0 1.0
vn 0.0 -0.0 1.0
vn 0.0 0.0 1.0
vn 0.0 -0.0 1.0
vn 0.0 0.0 1.0
vn 0.0 -0.0 1.0
vn 0.0 -0.0 1.0
vn 0.0 -0.0 1.0
vn 0.0 -0.0 1.0
vn 0.0 -0.0 1.0
vn 0.0 -0.0 1.0
vn 0.0 -0.0 1.0
vn 0.0 -0.0 1.0
vn 0.0 -0.0 1.0
vn 0.0 -0.000001 1.0
vn 0.0 -0.0 1.0

# br_cig, 28 grouped triangles

usemtl br_ashtray1.jpg
o br_cig
g br_cig

f 2/1/1 3/2/2 1/3/3
f 4/4/4 3/5/5 2/6/6
f 4/7/7 5/8/8 3/9/9
f 5/10/10 6/11/11 3/12/12
f 5/13/13 7/14/14 6/15/15
f 8/16/16 7/17/17 5/18/18
f 8/19/19 9/20/20 7/21/21
f 9/22/22 10/23/23 7/24/24
f 9/25/25 11/26/26 10/27/27
f 12/28/28 11/29/29 9/30/30
f 12/31/31 13/32/32 11/33/33
f 13/34/34 14/35/35 11/36/36
f 13/37/37 15/38/38 14/39/39
f 16/40/40 15/41/41 13/42/42
f 16/43/43 2/44/44 15/45/45
f 2/46/46 1/47/47 15/48/48
f 18/49/49 19/50/50 17/51/51
f 20/52/52 18/53/53 17/54/54
f 21/55/55 20/56/56 17/57/57
f 22/58/58 21/59/59 17/60/60
f 23/61/61 22/62/62 17/63/63
f 24/64/64 23/65/65 17/66/66
f 26/67/67 27/68/68 25/69/69
f 27/70/70 28/71/71 25/72/72
f 28/73/73 29/74/74 25/75/75
f 29/76/76 30/77/77 25/78/78
f 30/79/79 31/80/80 25/81/81
f 31/82/82 32/83/83 25/84/84
