# Wavefront OBJ file
# Exported by Misfit Model 3D 1.3.8
# Tue Jan 13 23:12:43 2015

mtllib painting2.mtl

# 16 Vertices
v 0.484375 24.859375 9.765625
v 0.484375 5.625 9.765625
v 0.484374 24.859375 -9.765625
v 0.484375 5.625 -9.765625
v 1.296875 30.5 15.203125
v 1.296875 0.0 15.203125
v 1.296874 30.5 -15.203125
v 1.296875 0.0 -15.203125
v -0.0 30.5 15.203125
v 0.0 0.0 15.203125
v 1.296875 30.5 15.203125
v 1.296875 0.0 15.203125
v 1.296874 30.5 -15.203125
v 1.296875 0.0 -15.203125
v -0.000001 30.5 -15.203125
v -0.0 0.0 -15.203125

# 54 Texture Coordinates
vt 0.910867 0.61865
vt 0.610049 0.91047
vt 0.910867 0.91047
vt 0.610049 0.61865
vt 0.610049 0.91047
vt 0.910867 0.61865
vt 0.99434 0.995793
vt 0.99434 0.533326
vt 0.910867 0.91047
vt 0.99434 0.533326
vt 0.910867 0.61865
vt 0.910867 0.91047
vt 0.526576 0.995793
vt 0.99434 0.995793
vt 0.610049 0.91047
vt 0.99434 0.995793
vt 0.910867 0.91047
vt 0.610049 0.91047
vt 0.99434 0.533326
vt 0.526576 0.533326
vt 0.910867 0.61865
vt 0.526576 0.533326
vt 0.610049 0.61865
vt 0.910867 0.61865
vt 0.526576 0.533326
vt 0.526576 0.995793
vt 0.610049 0.61865
vt 0.526576 0.995793
vt 0.610049 0.91047
vt 0.610049 0.61865
vt 0.683344 0.542618
vt 0.839118 0.554617
vt 0.683344 0.554617
vt 0.839118 0.542618
vt 0.839118 0.554617
vt 0.683344 0.542618
vt 0.839118 0.542618
vt 0.683344 0.554617
vt 0.839118 0.554617
vt 0.683344 0.542618
vt 0.683344 0.554617
vt 0.839118 0.542618
vt 0.683344 0.554617
vt 0.839118 0.554617
vt 0.683344 0.554617
vt 0.839118 0.554617
vt 0.839118 0.554617
vt 0.683344 0.554617
vt 0.683344 0.542618
vt 0.839118 0.542618
vt 0.683344 0.542618
vt 0.839118 0.542618
vt 0.839118 0.542618
vt 0.683344 0.542618

# 54 Vertex Normals
vn 0.997908 0.057427 -0.029682
vn 0.997917 -0.05727 0.029682
vn 0.996597 -0.03581 -0.074238
vn 0.996594 0.035908 0.074239
vn 0.997917 -0.05727 0.029682
vn 0.997908 0.057427 -0.029682
vn 0.994199 -0.095497 -0.049494
vn 0.993936 0.047879 -0.098989
vn 0.996597 -0.03581 -0.074238
vn 0.993936 0.047879 -0.098989
vn 0.997908 0.057427 -0.029682
vn 0.996597 -0.03581 -0.074238
vn 0.993942 -0.047748 0.098988
vn 0.994199 -0.095497 -0.049494
vn 0.997917 -0.05727 0.029682
vn 0.994199 -0.095497 -0.049494
vn 0.996597 -0.03581 -0.074238
vn 0.997917 -0.05727 0.029682
vn 0.993936 0.047879 -0.098989
vn 0.994173 0.095758 0.049495
vn 0.997908 0.057427 -0.029682
vn 0.994173 0.095758 0.049495
vn 0.996594 0.035908 0.074239
vn 0.997908 0.057427 -0.029682
vn 0.994173 0.095758 0.049495
vn 0.993942 -0.047748 0.098988
vn 0.996594 0.035908 0.074239
vn 0.993942 -0.047748 0.098988
vn 0.997917 -0.05727 0.029682
vn 0.996594 0.035908 0.074239
vn 0.0 0.0 1.0
vn 0.0 0.0 1.0
vn 0.0 0.0 1.0
vn 0.0 0.0 1.0
vn 0.0 0.0 1.0
vn 0.0 0.0 1.0
vn 0.0 0.0 -1.0
vn 0.0 0.0 -1.0
vn 0.0 0.0 -1.0
vn 0.0 0.0 -1.0
vn 0.0 0.0 -1.0
vn 0.0 0.0 -1.0
vn 0.0 1.0 0.0
vn 0.0 1.0 0.0
vn 0.0 1.0 0.0
vn 0.0 1.0 0.0
vn 0.0 1.0 0.0
vn 0.0 1.0 0.0
vn 0.0 -1.0 -0.0
vn 0.0 -1.0 -0.0
vn 0.0 -1.0 -0.0
vn 0.0 -1.0 -0.0
vn 0.0 -1.0 -0.0
vn 0.0 -1.0 -0.0

# paint2, 18 grouped triangles

usemtl br_paintings1.jpg
o paint2
g paint2

f 2/1/1 3/2/2 1/3/3
f 4/4/4 3/5/5 2/6/6
f 5/7/7 6/8/8 1/9/9
f 6/10/10 2/11/11 1/12/12
f 7/13/13 5/14/14 3/15/15
f 5/16/16 1/17/17 3/18/18
f 6/19/19 8/20/20 2/21/21
f 8/22/22 4/23/23 2/24/24
f 8/25/25 7/26/26 4/27/27
f 7/28/28 3/29/29 4/30/30
f 10/31/31 11/32/32 9/33/33
f 12/34/34 11/35/35 10/36/36
f 14/37/37 15/38/38 13/39/39
f 16/40/40 15/41/41 14/42/42
f 9/43/43 13/44/44 15/45/45
f 11/46/46 13/47/47 9/48/48
f 16/49/49 12/50/50 10/51/51
f 14/52/52 12/53/53 16/54/54
