# Wavefront OBJ file
# Exported by Misfit Model 3D 1.3.8
# Mon Jan 12 21:56:31 2015

mtllib oldpainting3.mtl

# 16 Vertices
v 11.9375 16.0 2.0
v 11.9375 0.0 2.0
v 11.9375 16.0 -0.0
v 11.9375 0.0 -0.0
v -12.046875 16.0 0.0
v -12.046875 -0.0 0.0
v -12.046875 16.0 2.0
v -12.046875 -0.0 2.0
v 9.9375 15.46875 1.0
v -12.046875 16.0 2.0
v -10.046875 15.46875 1.0
v -10.046875 0.484375 1.0
v 9.9375 0.484375 1.0
v -12.046875 -0.0 2.0
v 11.9375 16.0 2.0
v 11.9375 0.0 2.0

# 60 Texture Coordinates
vt 0.837386 0.453305
vt 0.825873 0.453364
vt 0.825873 0.453364
vt 0.837386 0.453305
vt 0.825873 0.453364
vt 0.837386 0.453305
vt 0.837386 0.453305
vt 0.826202 0.517416
vt 0.825873 0.453364
vt 0.837715 0.517357
vt 0.826202 0.517416
vt 0.837386 0.453305
vt 0.837715 0.517357
vt 0.826202 0.517416
vt 0.826202 0.517416
vt 0.837715 0.517357
vt 0.826202 0.517416
vt 0.837715 0.517357
vt 0.826202 0.517416
vt 0.825873 0.453364
vt 0.826202 0.517416
vt 0.825873 0.453364
vt 0.825873 0.453364
vt 0.826202 0.517416
vt 0.837715 0.517357
vt 0.837386 0.453305
vt 0.837715 0.517357
vt 0.837386 0.453305
vt 0.837386 0.453305
vt 0.837715 0.517357
vt 0.481166 0.589002
vt 0.513851 0.556828
vt 0.825904 0.556828
vt 0.513851 0.329647
vt 0.825904 0.556828
vt 0.513851 0.556828
vt 0.827206 0.332251
vt 0.825904 0.556828
vt 0.513851 0.329647
vt 0.481166 0.589002
vt 0.486374 0.298774
vt 0.513851 0.556828
vt 0.486374 0.298774
vt 0.513851 0.329647
vt 0.513851 0.556828
vt 0.861194 0.589002
vt 0.481166 0.589002
vt 0.825904 0.556828
vt 0.486374 0.298774
vt 0.859892 0.303983
vt 0.513851 0.329647
vt 0.859892 0.303983
vt 0.827206 0.332251
vt 0.513851 0.329647
vt 0.859892 0.303983
vt 0.861194 0.589002
vt 0.827206 0.332251
vt 0.861194 0.589002
vt 0.825904 0.556828
vt 0.827206 0.332251

# 60 Vertex Normals
vn 1.0 0.0 0.0
vn 1.0 0.0 0.0
vn 1.0 0.0 0.0
vn 1.0 0.0 0.0
vn 1.0 0.0 0.0
vn 1.0 0.0 0.0
vn -0.0 0.0 -1.0
vn -0.0 0.0 -1.0
vn -0.0 0.0 -1.0
vn -0.0 0.0 -1.0
vn -0.0 0.0 -1.0
vn -0.0 0.0 -1.0
vn -1.0 0.0 0.0
vn -1.0 0.0 0.0
vn -1.0 0.0 0.0
vn -1.0 0.0 0.0
vn -1.0 0.0 0.0
vn -1.0 0.0 0.0
vn 0.0 1.0 0.0
vn 0.0 1.0 0.0
vn 0.0 1.0 0.0
vn 0.0 1.0 0.0
vn 0.0 1.0 0.0
vn 0.0 1.0 0.0
vn 0.0 -1.0 -0.0
vn 0.0 -1.0 -0.0
vn 0.0 -1.0 -0.0
vn 0.0 -1.0 -0.0
vn 0.0 -1.0 -0.0
vn 0.0 -1.0 -0.0
vn 0.173052 -0.683452 0.709187
vn 0.256131 -0.252892 0.932975
vn -0.105382 -0.416195 0.903148
vn 0.106525 0.428748 0.897122
vn -0.105382 -0.416195 0.903148
vn 0.256131 -0.252892 0.932975
vn -0.2581 0.259703 0.930558
vn -0.105382 -0.416195 0.903148
vn 0.106525 0.428748 0.897122
vn 0.173052 -0.683452 0.709187
vn 0.349225 0.351394 0.868657
vn 0.256131 -0.252892 0.932975
vn 0.349225 0.351394 0.868657
vn 0.106525 0.428748 0.897122
vn 0.256131 -0.252892 0.932975
vn -0.346103 -0.341726 0.873748
vn 0.173052 -0.683452 0.709187
vn -0.105382 -0.416195 0.903148
vn 0.349225 0.351394 0.868657
vn -0.174613 0.702787 0.689638
vn 0.106525 0.428748 0.897122
vn -0.174613 0.702787 0.689638
vn -0.2581 0.259703 0.930558
vn 0.106525 0.428748 0.897122
vn -0.174613 0.702787 0.689638
vn -0.346103 -0.341726 0.873748
vn -0.2581 0.259703 0.930558
vn -0.346103 -0.341726 0.873748
vn -0.105382 -0.416195 0.903148
vn -0.2581 0.259703 0.930558

# paintings, 20 grouped triangles

usemtl br_nimrod4.jpg
o paintings
g paintings

f 2/1/1 3/2/2 1/3/3
f 4/4/4 3/5/5 2/6/6
f 4/7/7 5/8/8 3/9/9
f 6/10/10 5/11/11 4/12/12
f 6/13/13 7/14/14 5/15/15
f 8/16/16 7/17/17 6/18/18
f 7/19/19 3/20/20 5/21/21
f 1/22/22 3/23/23 7/24/24
f 6/25/25 2/26/26 8/27/27
f 4/28/28 2/29/29 6/30/30
f 10/31/31 11/32/32 9/33/33
f 12/34/34 9/35/35 11/36/36
f 13/37/37 9/38/38 12/39/39
f 10/40/40 14/41/41 11/42/42
f 14/43/43 12/44/44 11/45/45
f 15/46/46 10/47/47 9/48/48
f 14/49/49 16/50/50 12/51/51
f 16/52/52 13/53/53 12/54/54
f 16/55/55 15/56/56 13/57/57
f 15/58/58 9/59/59 13/60/60
