# Wavefront OBJ file
# Exported by Misfit Model 3D 1.3.8
# Mon Jan 12 21:39:55 2015

mtllib basket4.mtl

# 48 Vertices
v -13.640625 18.625 24.546875
v -13.640624 -0.046875 22.0
v 13.640625 18.625 24.546875
v 13.640626 -0.046875 22.0
v 13.640625 18.625 24.546875
v 13.640626 -0.046875 22.0
v 13.640624 18.625 -24.796875
v 13.640624 -0.046875 -22.25
v 13.640624 18.625 -24.796875
v 13.640624 -0.046875 -22.25
v -13.640626 18.625 -24.796875
v -13.640626 -0.046875 -22.25
v -13.640626 18.625 -24.796875
v -13.640626 -0.046875 -22.25
v -13.640625 18.625 24.546875
v -13.640624 -0.046875 22.0
v -13.640624 -0.046875 22.0
v 13.640626 -0.046875 22.0
v -16.265625 21.578125 25.75
v -16.265625 17.21875 25.75
v 16.265625 21.578125 25.75
v 16.265625 17.21875 25.75
v 16.265625 21.578125 25.75
v 16.265625 17.21875 25.75
v 16.265623 21.578125 -27.0
v 16.265623 17.21875 -27.0
v 16.265623 21.578125 -27.0
v 16.265623 17.21875 -27.0
v -16.265627 21.578125 -27.0
v -16.265627 17.21875 -27.0
v -16.265627 21.578125 -27.0
v -16.265627 17.21875 -27.0
v -16.265625 21.578125 25.75
v -16.265625 17.21875 25.75
v -16.265625 17.21875 25.75
v 16.265625 17.21875 25.75
v -15.281251 22.828125 -25.40625
v -15.28125 22.828125 24.15625
v 15.281249 22.828125 -25.40625
v 15.28125 22.828125 24.15625
v -15.281251 22.828125 -25.40625
v -16.265627 21.578125 -27.0
v -16.265625 21.578125 25.75
v -15.28125 22.828125 24.15625
v 15.281249 22.828125 -25.40625
v 16.265623 21.578125 -27.0
v 16.265625 21.578125 25.75
v 15.28125 22.828125 24.15625

# 90 Texture Coordinates
vt 0.348702 0.315729
vt 0.992571 0.654595
vt 0.348702 0.654595
vt 0.992571 0.315729
vt 0.992571 0.654595
vt 0.348702 0.315729
vt 0.348702 0.315729
vt 0.992571 0.654595
vt 0.348702 0.654595
vt 0.992571 0.315729
vt 0.992571 0.654595
vt 0.348702 0.315729
vt 0.348702 0.315729
vt 0.992571 0.654595
vt 0.348702 0.654595
vt 0.992571 0.315729
vt 0.992571 0.654595
vt 0.348702 0.315729
vt 0.348702 0.315729
vt 0.992571 0.654595
vt 0.348702 0.654595
vt 0.992571 0.315729
vt 0.992571 0.654595
vt 0.348702 0.315729
vt 0.348702 0.315729
vt 0.992571 0.654595
vt 0.348702 0.654595
vt 0.992571 0.315729
vt 0.992571 0.654595
vt 0.348702 0.315729
vt 0.345435 0.327867
vt 1.003451 0.657169
vt 0.345435 0.657169
vt 1.003451 0.327867
vt 1.003451 0.657169
vt 0.345435 0.327867
vt 0.345435 0.327867
vt 1.003451 0.657169
vt 0.345435 0.657169
vt 1.003451 0.327867
vt 1.003451 0.657169
vt 0.345435 0.327867
vt 0.345435 0.327867
vt 1.003451 0.657169
vt 0.345435 0.657169
vt 1.003451 0.327867
vt 1.003451 0.657169
vt 0.345435 0.327867
vt 0.345435 0.327867
vt 1.003451 0.657169
vt 0.345435 0.657169
vt 1.003451 0.327867
vt 1.003451 0.657169
vt 0.345435 0.327867
vt 0.345435 0.327867
vt 1.003451 0.657169
vt 0.345435 0.657169
vt 1.003451 0.327867
vt 1.003451 0.657169
vt 0.345435 0.327867
vt 0.36644 0.338164
vt 0.976684 0.641471
vt 0.36644 0.641471
vt 0.976684 0.338164
vt 0.976684 0.641471
vt 0.36644 0.338164
vt 0.34697 0.651219
vt 0.34697 0.328417
vt 0.36644 0.641471
vt 0.34697 0.328417
vt 0.36644 0.338164
vt 0.36644 0.641471
vt 0.996154 0.651219
vt 0.34697 0.651219
vt 0.976684 0.641471
vt 0.34697 0.651219
vt 0.36644 0.641471
vt 0.976684 0.641471
vt 0.34697 0.328417
vt 0.996154 0.328417
vt 0.36644 0.338164
vt 0.996154 0.328417
vt 0.976684 0.338164
vt 0.36644 0.338164
vt 0.996154 0.328417
vt 0.996154 0.651219
vt 0.976684 0.338164
vt 0.996154 0.651219
vt 0.976684 0.641471
vt 0.976684 0.338164

# 90 Vertex Normals
vn 0.0 -0.13515 0.990825
vn 0.0 -0.13515 0.990825
vn 0.0 -0.13515 0.990825
vn 0.0 -0.13515 0.990825
vn 0.0 -0.13515 0.990825
vn 0.0 -0.13515 0.990825
vn 1.0 0.0 -0.0
vn 1.0 0.0 -0.0
vn 1.0 0.0 -0.0
vn 1.0 -0.0 -0.0
vn 1.0 0.0 -0.0
vn 1.0 0.0 -0.0
vn 0.0 -0.13515 -0.990825
vn 0.0 -0.13515 -0.990825
vn 0.0 -0.13515 -0.990825
vn 0.0 -0.13515 -0.990825
vn 0.0 -0.13515 -0.990825
vn 0.0 -0.13515 -0.990825
vn -1.0 -0.0 0.0
vn -1.0 -0.0 0.0
vn -1.0 0.0 0.0
vn -1.0 -0.0 0.0
vn -1.0 -0.0 0.0
vn -1.0 -0.0 0.0
vn 0.0 -1.0 -0.0
vn 0.0 -1.0 -0.0
vn 0.0 -1.0 -0.0
vn 0.0 -1.0 -0.0
vn 0.0 -1.0 -0.0
vn 0.0 -1.0 -0.0
vn 0.0 0.0 1.0
vn 0.0 0.0 1.0
vn 0.0 0.0 1.0
vn 0.0 0.0 1.0
vn 0.0 0.0 1.0
vn 0.0 0.0 1.0
vn 1.0 0.0 -0.0
vn 1.0 0.0 -0.0
vn 1.0 0.0 -0.0
vn 1.0 0.0 -0.0
vn 1.0 0.0 -0.0
vn 1.0 0.0 -0.0
vn 0.0 0.0 -1.0
vn 0.0 0.0 -1.0
vn 0.0 0.0 -1.0
vn 0.0 0.0 -1.0
vn 0.0 0.0 -1.0
vn 0.0 0.0 -1.0
vn -1.0 0.0 0.0
vn -1.0 0.0 0.0
vn -1.0 0.0 0.0
vn -1.0 0.0 0.0
vn -1.0 0.0 0.0
vn -1.0 0.0 0.0
vn 0.0 -1.0 0.0
vn 0.0 -1.0 0.0
vn 0.0 -1.0 0.0
vn 0.0 -1.0 0.0
vn 0.0 -1.0 0.0
vn 0.0 -1.0 0.0
vn 0.0 1.0 0.0
vn 0.0 1.0 0.0
vn 0.0 1.0 0.0
vn 0.0 1.0 0.0
vn 0.0 1.0 0.0
vn 0.0 1.0 0.0
vn -0.298067 0.831786 -0.468281
vn -0.596135 0.767985 0.234141
vn -0.596135 0.767985 -0.234141
vn -0.596135 0.767985 0.234141
vn -0.298067 0.831786 0.468281
vn -0.596135 0.767985 -0.234141
vn 0.596135 0.767985 -0.234141
vn -0.298067 0.831786 -0.468281
vn 0.298068 0.831786 -0.468281
vn -0.298067 0.831786 -0.468281
vn -0.596135 0.767985 -0.234141
vn 0.298068 0.831786 -0.468281
vn -0.596135 0.767985 0.234141
vn 0.298067 0.831786 0.468281
vn -0.298067 0.831786 0.468281
vn 0.298067 0.831786 0.468281
vn 0.596135 0.767985 0.234141
vn -0.298067 0.831786 0.468281
vn 0.298067 0.831786 0.468281
vn 0.596135 0.767985 -0.234141
vn 0.596135 0.767985 0.234141
vn 0.596135 0.767985 -0.234141
vn 0.298068 0.831786 -0.468281
vn 0.596135 0.767985 0.234141

# Regroup04, 30 grouped triangles

usemtl br_baskets.jpg
o Regroup04
g Regroup04

f 2/1/1 3/2/2 1/3/3
f 4/4/4 3/5/5 2/6/6
f 6/7/7 7/8/8 5/9/9
f 8/10/10 7/11/11 6/12/12
f 10/13/13 11/14/14 9/15/15
f 12/16/16 11/17/17 10/18/18
f 14/19/19 15/20/20 13/21/21
f 16/22/22 15/23/23 14/24/24
f 14/25/25 18/26/26 17/27/27
f 8/28/28 18/29/29 14/30/30
f 20/31/31 21/32/32 19/33/33
f 22/34/34 21/35/35 20/36/36
f 24/37/37 25/38/38 23/39/39
f 26/40/40 25/41/41 24/42/42
f 28/43/43 29/44/44 27/45/45
f 30/46/46 29/47/47 28/48/48
f 32/49/49 33/50/50 31/51/51
f 34/52/52 33/53/53 32/54/54
f 32/55/55 36/56/56 35/57/57
f 26/58/58 36/59/59 32/60/60
f 38/61/61 39/62/62 37/63/63
f 40/64/64 39/65/65 38/66/66
f 42/67/67 43/68/68 41/69/69
f 43/70/70 44/71/71 41/72/72
f 46/73/73 42/74/74 45/75/75
f 42/76/76 41/77/77 45/78/78
f 43/79/79 47/80/80 44/81/81
f 47/82/82 48/83/83 44/84/84
f 47/85/85 46/86/86 48/87/87
f 46/88/88 45/89/89 48/90/90
