# Wavefront OBJ file
# Exported by Misfit Model 3D 1.3.8
# Mon Jan 12 21:40:39 2015

mtllib basket6.mtl

# 58 Vertices
v -15.171875 -0.015625 12.03125
v -15.171875 -0.015625 -11.765625
v 15.171875 -0.015625 12.03125
v 15.171875 -0.015625 -11.765625
v -15.171876 35.21875 12.03125
v -15.171875 -0.015625 12.03125
v 15.171874 35.21875 12.03125
v 15.171875 -0.015625 12.03125
v 15.171874 35.21875 12.03125
v 15.171875 -0.015625 12.03125
v 15.171874 35.21875 -11.765625
v 15.171875 -0.015625 -11.765625
v 15.171874 35.21875 -11.765625
v 15.171875 -0.015625 -11.765625
v -15.171876 35.21875 -11.765625
v -15.171875 -0.015625 -11.765625
v -15.171876 35.21875 -11.765625
v -15.171875 -0.015625 -11.765625
v -15.171876 35.21875 12.03125
v -15.171875 -0.015625 12.03125
v -16.15625 36.46875 12.859375
v -16.15625 34.71875 12.859375
v 16.375 36.46875 12.859375
v 16.375 34.71875 12.859375
v 16.375 36.46875 12.859375
v 16.375 34.71875 12.859375
v 16.374998 36.46875 -12.890625
v 16.374998 34.71875 -12.890625
v 16.374998 36.46875 -12.890625
v 16.374998 34.71875 -12.890625
v -16.156252 36.46875 -12.890625
v -16.156252 34.71875 -12.890625
v -16.156252 36.46875 -12.890625
v -16.156252 34.71875 -12.890625
v -16.15625 36.46875 12.859375
v -16.15625 34.71875 12.859375
v -14.984376 37.734375 -12.109375
v -14.984376 37.734375 12.078125
v 15.203124 37.734375 -12.109375
v 15.203124 37.734375 12.078125
v -16.15625 34.71875 12.859375
v 16.375 34.71875 12.859375
v -14.984376 37.734375 -12.109375
v -16.156252 36.46875 -12.890625
v -16.15625 36.46875 12.859375
v -14.984376 37.734375 12.078125
v 15.203124 37.734375 12.078125
v 16.375 36.46875 12.859375
v 16.374998 36.46875 -12.890625
v 15.203124 37.734375 -12.109375
v 15.203124 37.734375 -12.109375
v 16.374998 36.46875 -12.890625
v -16.156252 36.46875 -12.890625
v -14.984376 37.734375 -12.109375
v -14.984376 37.734375 12.078125
v -16.15625 36.46875 12.859375
v 16.375 36.46875 12.859375
v 15.203124 37.734375 12.078125

# 90 Texture Coordinates
vt 0.003656 0.00227
vt 0.266468 0.191287
vt 0.003656 0.191287
vt 0.266468 0.00227
vt 0.266468 0.191287
vt 0.003656 0.00227
vt 0.003656 0.00227
vt 0.266468 0.191287
vt 0.003656 0.191287
vt 0.266468 0.00227
vt 0.266468 0.191287
vt 0.003656 0.00227
vt 0.003656 0.00227
vt 0.266468 0.191287
vt 0.003656 0.191287
vt 0.266468 0.00227
vt 0.266468 0.191287
vt 0.003656 0.00227
vt 0.003656 0.00227
vt 0.266468 0.191287
vt 0.003656 0.191287
vt 0.266468 0.00227
vt 0.266468 0.191287
vt 0.003656 0.00227
vt 0.003656 0.00227
vt 0.266468 0.191287
vt 0.003656 0.191287
vt 0.266468 0.00227
vt 0.266468 0.191287
vt 0.003656 0.00227
vt 0.004128 0.018685
vt 0.244973 0.081452
vt 0.004128 0.081452
vt 0.244973 0.018685
vt 0.244973 0.081452
vt 0.004128 0.018685
vt 0.004128 0.018685
vt 0.244973 0.081452
vt 0.004128 0.081452
vt 0.244973 0.018685
vt 0.244973 0.081452
vt 0.004128 0.018685
vt 0.004128 0.018685
vt 0.244973 0.081452
vt 0.004128 0.081452
vt 0.244973 0.018685
vt 0.244973 0.081452
vt 0.004128 0.018685
vt 0.004128 0.018685
vt 0.244973 0.081452
vt 0.004128 0.081452
vt 0.244973 0.018685
vt 0.244973 0.081452
vt 0.004128 0.018685
vt 0.005227 0.00425
vt 0.265216 0.193404
vt 0.005227 0.193404
vt 0.265216 0.00425
vt 0.265216 0.193404
vt 0.005227 0.00425
vt 0.004128 0.018685
vt 0.244973 0.081452
vt 0.004128 0.081452
vt 0.244973 0.018685
vt 0.244973 0.081452
vt 0.004128 0.018685
vt 0.018783 0.202723
vt 0.349418 0.202723
vt 0.028739 0.224623
vt 0.349418 0.202723
vt 0.339462 0.224623
vt 0.028739 0.224623
vt 0.349418 0.202723
vt 0.018783 0.202723
vt 0.339462 0.224623
vt 0.018783 0.202723
vt 0.028739 0.224623
vt 0.339462 0.224623
vt 0.357734 0.199607
vt 0.03841 0.199607
vt 0.346243 0.220226
vt 0.03841 0.199607
vt 0.049901 0.220226
vt 0.346243 0.220226
vt 0.03841 0.199607
vt 0.357734 0.199607
vt 0.049901 0.220226
vt 0.357734 0.199607
vt 0.346243 0.220226
vt 0.049901 0.220226

# 90 Vertex Normals
vn 0.0 -1.0 0.0
vn 0.0 -1.0 0.0
vn 0.0 -1.0 0.0
vn 0.0 -1.0 0.0
vn 0.0 -1.0 0.0
vn 0.0 -1.0 0.0
vn 0.0 0.0 1.0
vn 0.0 0.0 1.0
vn 0.0 0.0 1.0
vn 0.0 0.0 1.0
vn 0.0 0.0 1.0
vn 0.0 0.0 1.0
vn 1.0 0.0 -0.0
vn 1.0 0.0 -0.0
vn 1.0 0.0 -0.0
vn 1.0 0.0 0.0
vn 1.0 0.0 -0.0
vn 1.0 0.0 -0.0
vn 0.0 -0.0 -1.0
vn 0.0 -0.0 -1.0
vn 0.0 -0.0 -1.0
vn 0.0 0.0 -1.0
vn 0.0 -0.0 -1.0
vn 0.0 -0.0 -1.0
vn -1.0 -0.0 -0.0
vn -1.0 -0.0 -0.0
vn -1.0 -0.0 -0.0
vn -1.0 -0.0 0.0
vn -1.0 -0.0 -0.0
vn -1.0 -0.0 -0.0
vn 0.0 0.0 1.0
vn 0.0 0.0 1.0
vn 0.0 0.0 1.0
vn 0.0 0.0 1.0
vn 0.0 0.0 1.0
vn 0.0 0.0 1.0
vn 1.0 0.0 -0.0
vn 1.0 0.0 -0.0
vn 1.0 0.0 -0.0
vn 1.0 0.0 -0.0
vn 1.0 0.0 -0.0
vn 1.0 0.0 -0.0
vn 0.0 0.0 -1.0
vn 0.0 0.0 -1.0
vn 0.0 0.0 -1.0
vn 0.0 0.0 -1.0
vn 0.0 0.0 -1.0
vn 0.0 0.0 -1.0
vn -1.0 0.0 0.0
vn -1.0 0.0 0.0
vn -1.0 0.0 0.0
vn -1.0 0.0 0.0
vn -1.0 0.0 0.0
vn -1.0 0.0 0.0
vn 0.0 1.0 0.0
vn 0.0 1.0 0.0
vn 0.0 1.0 0.0
vn 0.0 1.0 0.0
vn 0.0 1.0 0.0
vn 0.0 1.0 0.0
vn 0.0 -1.0 0.0
vn 0.0 -1.0 0.0
vn 0.0 -1.0 0.0
vn 0.0 -1.0 0.0
vn 0.0 -1.0 0.0
vn 0.0 -1.0 0.0
vn -0.73376 0.679408 0.0
vn -0.733761 0.679408 0.0
vn -0.733761 0.679408 0.0
vn -0.733761 0.679408 0.0
vn -0.733761 0.679408 -0.0
vn -0.733761 0.679408 0.0
vn 0.73376 0.679408 -0.0
vn 0.733761 0.679408 -0.0
vn 0.733761 0.679408 -0.0
vn 0.733761 0.679408 -0.0
vn 0.733761 0.679408 -0.0
vn 0.733761 0.679408 -0.0
vn 0.0 0.525269 -0.850936
vn 0.0 0.525269 -0.850936
vn 0.0 0.525269 -0.850936
vn 0.0 0.525269 -0.850936
vn 0.0 0.525269 -0.850936
vn 0.0 0.525269 -0.850936
vn 0.0 0.525269 0.850936
vn 0.0 0.525269 0.850936
vn 0.0 0.525269 0.850936
vn 0.0 0.525269 0.850936
vn 0.0 0.525269 0.850936
vn 0.0 0.525269 0.850936

# Regroup11, 30 grouped triangles

usemtl br_baskets.jpg
o Regroup11
g Regroup11

f 2/1/1 3/2/2 1/3/3
f 4/4/4 3/5/5 2/6/6
f 6/7/7 7/8/8 5/9/9
f 8/10/10 7/11/11 6/12/12
f 10/13/13 11/14/14 9/15/15
f 12/16/16 11/17/17 10/18/18
f 14/19/19 15/20/20 13/21/21
f 16/22/22 15/23/23 14/24/24
f 18/25/25 19/26/26 17/27/27
f 20/28/28 19/29/29 18/30/30
f 22/31/31 23/32/32 21/33/33
f 24/34/34 23/35/35 22/36/36
f 26/37/37 27/38/38 25/39/39
f 28/40/40 27/41/41 26/42/42
f 30/43/43 31/44/44 29/45/45
f 32/46/46 31/47/47 30/48/48
f 34/49/49 35/50/50 33/51/51
f 36/52/52 35/53/53 34/54/54
f 38/55/55 39/56/56 37/57/57
f 40/58/58 39/59/59 38/60/60
f 34/61/61 42/62/62 41/63/63
f 28/64/64 42/65/65 34/66/66
f 44/67/67 45/68/68 43/69/69
f 45/70/70 46/71/71 43/72/72
f 48/73/73 49/74/74 47/75/75
f 49/76/76 50/77/77 47/78/78
f 52/79/79 53/80/80 51/81/81
f 53/82/82 54/83/83 51/84/84
f 56/85/85 57/86/86 55/87/87
f 57/88/88 58/89/89 55/90/90
