# Wavefront OBJ file
# Exported by Misfit Model 3D 1.3.8
# Mon Jan 12 18:50:42 2015

mtllib box1.mtl

# 24 Vertices
v 13.171874 20.65625 -10.515625
v 13.171875 -0.015625 -10.515625
v -13.062501 20.65625 -10.515625
v -13.0625 -0.015625 -10.515625
v 13.171875 20.65625 10.765625
v 13.171875 -0.015625 10.765625
v 13.171874 20.65625 -10.515625
v 13.171875 -0.015625 -10.515625
v -13.062501 20.65625 -10.515625
v -13.0625 -0.015625 -10.515625
v -13.0625 20.65625 10.765625
v -13.0625 -0.015625 10.765625
v -13.0625 -0.015625 10.765625
v -13.0625 -0.015625 -10.515625
v 13.171875 -0.015625 10.765625
v 13.171875 -0.015625 -10.515625
v -13.062501 20.65625 -10.515625
v -13.0625 20.65625 10.765625
v 13.171874 20.65625 -10.515625
v 13.171875 20.65625 10.765625
v -13.0625 20.65625 10.765625
v -13.0625 -0.015625 10.765625
v 13.171875 20.65625 10.765625
v 13.171875 -0.015625 10.765625

# 36 Texture Coordinates
vt 0.262049 0.353578
vt 0.008672 0.641476
vt 0.262049 0.641476
vt 0.008672 0.353578
vt 0.008672 0.641476
vt 0.262049 0.353578
vt 0.488752 0.357904
vt 0.266747 0.641006
vt 0.488752 0.641006
vt 0.266747 0.357904
vt 0.266747 0.641006
vt 0.488752 0.357904
vt 0.777591 0.361914
vt 0.995933 0.646749
vt 0.777591 0.646749
vt 0.995933 0.361914
vt 0.995933 0.646749
vt 0.777591 0.361914
vt 0.505506 0.654632
vt 0.767608 0.994576
vt 0.761692 0.653895
vt 0.507515 0.995313
vt 0.767608 0.994576
vt 0.505506 0.654632
vt 0.767832 0.011493
vt 0.50496 0.352142
vt 0.505443 0.010317
vt 0.763443 0.353318
vt 0.50496 0.352142
vt 0.767832 0.011493
vt 0.768697 0.362561
vt 0.994805 0.650269
vt 0.768697 0.650269
vt 0.994805 0.362561
vt 0.994805 0.650269
vt 0.768697 0.362561

# 36 Vertex Normals
vn 0.0 -0.0 -1.0
vn 0.0 -0.0 -1.0
vn 0.0 -0.0 -1.0
vn 0.0 0.0 -1.0
vn 0.0 -0.0 -1.0
vn 0.0 -0.0 -1.0
vn 1.0 0.0 -0.0
vn 1.0 0.0 -0.0
vn 1.0 0.0 -0.0
vn 1.0 0.0 0.0
vn 1.0 0.0 -0.0
vn 1.0 0.0 -0.0
vn -1.0 -0.0 0.0
vn -1.0 -0.0 0.0
vn -1.0 -0.0 0.0
vn -1.0 0.0 0.0
vn -1.0 -0.0 0.0
vn -1.0 -0.0 0.0
vn 0.0 -1.0 0.0
vn 0.0 -1.0 0.0
vn 0.0 -1.0 0.0
vn 0.0 -1.0 0.0
vn 0.0 -1.0 0.0
vn 0.0 -1.0 0.0
vn 0.0 1.0 0.0
vn 0.0 1.0 0.0
vn 0.0 1.0 0.0
vn 0.0 1.0 0.0
vn 0.0 1.0 0.0
vn 0.0 1.0 0.0
vn 0.0 0.0 1.0
vn 0.0 0.0 1.0
vn 0.0 0.0 1.0
vn 0.0 0.0 1.0
vn 0.0 0.0 1.0
vn 0.0 0.0 1.0

# box1, 12 grouped triangles

usemtl br_box1.jpg
o box1
g box1

f 2/1/1 3/2/2 1/3/3
f 4/4/4 3/5/5 2/6/6
f 6/7/7 7/8/8 5/9/9
f 8/10/10 7/11/11 6/12/12
f 10/13/13 11/14/14 9/15/15
f 12/16/16 11/17/17 10/18/18
f 14/19/19 15/20/20 13/21/21
f 16/22/22 15/23/23 14/24/24
f 18/25/25 19/26/26 17/27/27
f 20/28/28 19/29/29 18/30/30
f 22/31/31 23/32/32 21/33/33
f 24/34/34 23/35/35 22/36/36
