# Wavefront OBJ file
# Exported by Misfit Model 3D 1.3.8
# Mon Jan 12 21:59:03 2015

mtllib ashtray.mtl

# 58 Vertices
v -3.265625 0.671875 -3.484375
v -3.265625 0.671875 3.765625
v 3.671875 0.671875 -3.484375
v 3.671875 0.671875 3.765625
v -4.421875 1.6875 -4.859375
v -4.421875 1.6875 4.703125
v 4.828125 1.6875 -4.859375
v 4.828125 1.6875 4.703125
v 4.828125 1.6875 4.703125
v 3.703125 0.03125 3.734375
v 4.828125 1.6875 -4.859375
v 3.703125 0.03125 -3.46875
v -4.421875 1.6875 -4.859375
v -3.296875 0.03125 -3.46875
v -4.421875 1.6875 4.703125
v -3.296875 0.03125 3.734375
v 4.828125 1.6875 -4.859375
v 3.703125 0.03125 -3.46875
v -4.421875 1.6875 -4.859375
v -3.296875 0.03125 -3.46875
v -4.421875 1.6875 4.703125
v -3.296875 0.03125 3.734375
v 4.828125 1.6875 4.703125
v 3.703125 0.03125 3.734375
v 5.296875 2.6875 5.828125
v 2.96875 0.96875 2.109375
v 5.15625 2.8125 5.828125
v 2.828125 1.09375 2.109375
v 2.65625 1.140625 2.203125
v 4.96875 2.84375 5.921875
v 4.859375 2.765625 6.0625
v 2.53125 1.046875 2.34375
v 2.546875 0.90625 2.453125
v 4.859375 2.625 6.171875
v 5.0 2.5 6.171875
v 2.671875 0.796875 2.453125
v 2.859375 0.765625 2.359375
v 5.1875 2.453125 6.078125
v 5.3125 2.546875 5.9375
v 2.984375 0.84375 2.21875
v 5.296875 2.6875 5.828125
v 5.15625 2.8125 5.828125
v 5.078125 2.65625 6.0
v 4.96875 2.84375 5.921875
v 4.859375 2.765625 6.0625
v 4.859375 2.625 6.171875
v 5.0 2.5 6.171875
v 5.1875 2.453125 6.078125
v 5.3125 2.546875 5.9375
v 2.96875 0.96875 2.109375
v 2.75 0.9375 2.28125
v 2.828125 1.09375 2.109375
v 2.65625 1.140625 2.203125
v 2.53125 1.046875 2.34375
v 2.546875 0.90625 2.453125
v 2.671875 0.796875 2.453125
v 2.859375 0.765625 2.359375
v 2.984375 0.84375 2.21875

# 150 Texture Coordinates
vt 0.067154 0.947723
vt 0.457143 0.573107
vt 0.067154 0.573107
vt 0.457143 0.947723
vt 0.457143 0.573107
vt 0.067154 0.947723
vt 0.002475 0.502732
vt 0.002475 0.996475
vt 0.067154 0.573107
vt 0.002475 0.996475
vt 0.067154 0.947723
vt 0.067154 0.573107
vt 0.52182 0.502732
vt 0.002475 0.502732
vt 0.457143 0.573107
vt 0.002475 0.502732
vt 0.067154 0.573107
vt 0.457143 0.573107
vt 0.002475 0.996475
vt 0.52182 0.996475
vt 0.067154 0.947723
vt 0.52182 0.996475
vt 0.457143 0.947723
vt 0.067154 0.947723
vt 0.52182 0.996475
vt 0.52182 0.502732
vt 0.457143 0.947723
vt 0.52182 0.502732
vt 0.457143 0.573107
vt 0.457143 0.947723
vt 0.532049 0.27018
vt 0.02228 0.417707
vt 0.691683 0.417707
vt 0.205182 0.269298
vt 0.02228 0.417707
vt 0.532049 0.27018
vt 0.504961 0.250947
vt 0.076599 0.413251
vt 0.653666 0.413251
vt 0.224828 0.250947
vt 0.076599 0.413251
vt 0.504961 0.250947
vt 0.201052 0.251385
vt 0.69412 0.417772
vt 0.070353 0.412404
vt 0.568534 0.256752
vt 0.69412 0.417772
vt 0.201052 0.251385
vt 0.206551 0.2697
vt 0.66471 0.395706
vt 0.088634 0.391506
vt 0.534791 0.271801
vt 0.66471 0.395706
vt 0.206551 0.2697
vt 0.885336 0.013971
vt 0.835019 0.983767
vt 0.896143 0.983788
vt 0.824214 0.013283
vt 0.835019 0.983767
vt 0.885336 0.013971
vt 0.824214 0.013283
vt 0.798897 0.012999
vt 0.835019 0.983767
vt 0.798897 0.012999
vt 0.809699 0.983757
vt 0.835019 0.983767
vt 0.798897 0.012999
vt 0.835019 0.983767
vt 0.809699 0.983757
vt 0.824214 0.013283
vt 0.835019 0.983767
vt 0.798897 0.012999
vt 0.824214 0.013283
vt 0.885336 0.013971
vt 0.835019 0.983767
vt 0.885336 0.013971
vt 0.896143 0.983788
vt 0.835019 0.983767
vt 0.885336 0.013971
vt 0.95727 0.983811
vt 0.896143 0.983788
vt 0.94254 0.013455
vt 0.95727 0.983811
vt 0.885336 0.013971
vt 0.94254 0.013455
vt 0.967859 0.013742
vt 0.95727 0.983811
vt 0.967859 0.013742
vt 0.982589 0.98382
vt 0.95727 0.983811
vt 0.967859 0.013742
vt 0.95727 0.983811
vt 0.982589 0.98382
vt 0.94254 0.013455
vt 0.95727 0.983811
vt 0.967859 0.013742
vt 0.94254 0.013455
vt 0.885336 0.013971
vt 0.95727 0.983811
vt 0.885336 0.013971
vt 0.896143 0.983788
vt 0.95727 0.983811
vt 0.17997 0.131978
vt 0.145976 0.097086
vt 0.194051 0.097086
vt 0.145976 0.146431
vt 0.145976 0.097086
vt 0.17997 0.131978
vt 0.111982 0.131978
vt 0.145976 0.097086
vt 0.145976 0.146431
vt 0.097901 0.097086
vt 0.145976 0.097086
vt 0.111982 0.131978
vt 0.111982 0.062194
vt 0.145976 0.097086
vt 0.097901 0.097086
vt 0.145976 0.047741
vt 0.145976 0.097086
vt 0.111982 0.062194
vt 0.17997 0.062194
vt 0.145976 0.097086
vt 0.145976 0.047741
vt 0.194051 0.097086
vt 0.145976 0.097086
vt 0.17997 0.062194
vt 0.381296 0.101806
vt 0.416119 0.066145
vt 0.430544 0.101806
vt 0.381296 0.101806
vt 0.381296 0.051373
vt 0.416119 0.066145
vt 0.381296 0.101806
vt 0.346473 0.066145
vt 0.381296 0.051373
vt 0.381296 0.101806
vt 0.332049 0.101806
vt 0.346473 0.066145
vt 0.381296 0.101806
vt 0.346473 0.137467
vt 0.332049 0.101806
vt 0.381296 0.101806
vt 0.381296 0.152239
vt 0.346473 0.137467
vt 0.381296 0.101806
vt 0.416119 0.137467
vt 0.381296 0.152239
vt 0.381296 0.101806
vt 0.430544 0.101806
vt 0.416119 0.137467

# 150 Vertex Normals
vn 0.149563 0.930969 -0.333057
vn -0.144502 0.954685 0.260185
vn 0.365629 0.916094 0.164585
vn -0.374818 0.90331 -0.208668
vn -0.144502 0.954685 0.260185
vn 0.149563 0.930969 -0.333057
vn 0.242315 0.866557 0.436305
vn 0.497505 0.822056 -0.276971
vn 0.365629 0.916094 0.164585
vn 0.497505 0.822056 -0.276971
vn 0.149563 0.930969 -0.333057
vn 0.365629 0.916094 0.164585
vn -0.484631 0.847079 0.218153
vn 0.242315 0.866557 0.436305
vn -0.144502 0.954685 0.260185
vn 0.242315 0.866557 0.436305
vn 0.365629 0.916094 0.164585
vn -0.144502 0.954685 0.260185
vn 0.497505 0.822056 -0.276971
vn -0.248753 0.794526 -0.553941
vn 0.149563 0.930969 -0.333057
vn -0.248753 0.794526 -0.553941
vn -0.374818 0.90331 -0.208668
vn 0.149563 0.930969 -0.333057
vn -0.248753 0.794526 -0.553941
vn -0.484631 0.847079 0.218153
vn -0.374818 0.90331 -0.208668
vn -0.484631 0.847079 0.218153
vn -0.144502 0.954685 0.260185
vn -0.374818 0.90331 -0.208668
vn 0.827217 -0.561883 -0.0
vn 0.827217 -0.561883 -0.0
vn 0.827217 -0.561883 -0.0
vn 0.827217 -0.561883 -0.0
vn 0.827217 -0.561883 -0.0
vn 0.827217 -0.561883 -0.0
vn -0.827217 -0.561883 -0.0
vn -0.827217 -0.561883 -0.0
vn -0.827217 -0.561883 -0.0
vn -0.827217 -0.561883 -0.0
vn -0.827217 -0.561883 -0.0
vn -0.827217 -0.561883 -0.0
vn 0.0 -0.643023 -0.765847
vn 0.0 -0.643023 -0.765847
vn 0.0 -0.643023 -0.765847
vn 0.0 -0.643023 -0.765847
vn 0.0 -0.643023 -0.765847
vn 0.0 -0.643023 -0.765847
vn 0.0 -0.504883 0.863188
vn 0.0 -0.504883 0.863188
vn 0.0 -0.504883 0.863188
vn 0.0 -0.504883 0.863188
vn 0.0 -0.504883 0.863188
vn 0.0 -0.504883 0.863188
vn 0.788505 0.194013 -0.583625
vn 0.272125 0.797746 -0.538097
vn 0.786444 0.199495 -0.584557
vn 0.285638 0.789245 -0.543602
vn 0.272125 0.797746 -0.538097
vn 0.788505 0.194013 -0.583625
vn 0.285638 0.789245 -0.543602
vn -0.325026 0.919678 -0.220343
vn 0.272125 0.797746 -0.538097
vn -0.325026 0.919678 -0.220343
vn -0.334756 0.918079 -0.212296
vn 0.272125 0.797746 -0.538097
vn -0.325026 0.919678 -0.220343
vn -0.78376 0.580093 0.221839
vn -0.334756 0.918079 -0.212296
vn -0.792161 0.562942 0.235749
vn -0.78376 0.580093 0.221839
vn -0.325026 0.919678 -0.220343
vn -0.792161 0.562942 0.235749
vn -0.793708 -0.184314 0.579703
vn -0.78376 0.580093 0.221839
vn -0.793708 -0.184314 0.579703
vn -0.801438 -0.165311 0.574778
vn -0.78376 0.580093 0.221839
vn -0.793708 -0.184314 0.579703
vn -0.271801 -0.799638 0.535447
vn -0.801438 -0.165311 0.574778
vn -0.256215 -0.808052 0.530478
vn -0.271801 -0.799638 0.535447
vn -0.793708 -0.184314 0.579703
vn -0.256215 -0.808052 0.530478
vn 0.314132 -0.922587 0.22395
vn -0.271801 -0.799638 0.535447
vn 0.314132 -0.922587 0.22395
vn 0.312324 -0.923321 0.223455
vn -0.271801 -0.799638 0.535447
vn 0.314132 -0.922587 0.22395
vn 0.783077 -0.579631 -0.225427
vn 0.312324 -0.923321 0.223455
vn 0.775068 -0.59499 -0.212736
vn 0.783077 -0.579631 -0.225427
vn 0.314132 -0.922587 0.22395
vn 0.775068 -0.59499 -0.212736
vn 0.788505 0.194013 -0.583625
vn 0.783077 -0.579631 -0.225427
vn 0.788505 0.194013 -0.583625
vn 0.786444 0.199495 -0.584557
vn 0.783077 -0.579631 -0.225427
vn 0.459412 0.543271 0.702707
vn 0.463637 0.54355 0.69971
vn 0.462849 0.556218 0.690212
vn 0.459382 0.556448 0.69234
vn 0.463637 0.54355 0.69971
vn 0.459412 0.543271 0.702707
vn 0.472075 0.55086 0.688257
vn 0.463637 0.54355 0.69971
vn 0.459382 0.556448 0.69234
vn 0.472091 0.537668 0.698601
vn 0.463637 0.54355 0.69971
vn 0.472075 0.55086 0.688257
vn 0.477921 0.530863 0.69984
vn 0.463637 0.54355 0.69971
vn 0.472091 0.537668 0.698601
vn 0.459917 0.523505 0.71723
vn 0.463637 0.54355 0.69971
vn 0.477921 0.530863 0.69984
vn 0.444869 0.548912 0.707663
vn 0.463637 0.54355 0.69971
vn 0.459917 0.523505 0.71723
vn 0.462849 0.556218 0.690212
vn 0.463637 0.54355 0.69971
vn 0.444869 0.548912 0.707663
vn -0.462278 -0.558022 -0.689138
vn -0.494956 -0.519056 -0.696849
vn -0.450187 -0.580482 -0.678508
vn -0.462278 -0.558022 -0.689138
vn -0.487293 -0.500204 -0.71578
vn -0.494956 -0.519056 -0.696849
vn -0.462278 -0.558022 -0.689138
vn -0.468269 -0.53448 -0.703602
vn -0.487293 -0.500204 -0.71578
vn -0.462278 -0.558022 -0.689138
vn -0.481295 -0.563673 -0.671289
vn -0.468269 -0.53448 -0.703602
vn -0.462278 -0.558022 -0.689138
vn -0.462112 -0.571785 -0.677875
vn -0.481295 -0.563673 -0.671289
vn -0.462278 -0.558022 -0.689138
vn -0.428473 -0.585483 -0.688201
vn -0.462112 -0.571785 -0.677875
vn -0.462278 -0.558022 -0.689138
vn -0.421988 -0.604589 -0.675572
vn -0.428473 -0.585483 -0.688201
vn -0.462278 -0.558022 -0.689138
vn -0.450187 -0.580482 -0.678508
vn -0.421988 -0.604589 -0.675572

# skin, 50 grouped triangles

usemtl br_ashtray1.jpg
o skin
g skin

f 2/1/1 3/2/2 1/3/3
f 4/4/4 3/5/5 2/6/6
f 5/7/7 6/8/8 1/9/9
f 6/10/10 2/11/11 1/12/12
f 7/13/13 5/14/14 3/15/15
f 5/16/16 1/17/17 3/18/18
f 6/19/19 8/20/20 2/21/21
f 8/22/22 4/23/23 2/24/24
f 8/25/25 7/26/26 4/27/27
f 7/28/28 3/29/29 4/30/30
f 10/31/31 11/32/32 9/33/33
f 12/34/34 11/35/35 10/36/36
f 14/37/37 15/38/38 13/39/39
f 16/40/40 15/41/41 14/42/42
f 18/43/43 19/44/44 17/45/45
f 20/46/46 19/47/47 18/48/48
f 22/49/49 23/50/50 21/51/51
f 24/52/52 23/53/53 22/54/54
f 26/55/55 27/56/56 25/57/57
f 28/58/58 27/59/59 26/60/60
f 28/61/61 29/62/62 27/63/63
f 29/64/64 30/65/65 27/66/66
f 29/67/67 31/68/68 30/69/69
f 32/70/70 31/71/71 29/72/72
f 32/73/73 33/74/74 31/75/75
f 33/76/76 34/77/77 31/78/78
f 33/79/79 35/80/80 34/81/81
f 36/82/82 35/83/83 33/84/84
f 36/85/85 37/86/86 35/87/87
f 37/88/88 38/89/89 35/90/90
f 37/91/91 39/92/92 38/93/93
f 40/94/94 39/95/95 37/96/96
f 40/97/97 26/98/98 39/99/99
f 26/100/100 25/101/101 39/102/102
f 42/103/103 43/104/104 41/105/105
f 44/106/106 43/107/107 42/108/108
f 45/109/109 43/110/110 44/111/111
f 46/112/112 43/113/113 45/114/114
f 47/115/115 43/116/116 46/117/117
f 48/118/118 43/119/119 47/120/120
f 49/121/121 43/122/122 48/123/123
f 41/124/124 43/125/125 49/126/126
f 51/127/127 52/128/128 50/129/129
f 51/130/130 53/131/131 52/132/132
f 51/133/133 54/134/134 53/135/135
f 51/136/136 55/137/137 54/138/138
f 51/139/139 56/140/140 55/141/141
f 51/142/142 57/143/143 56/144/144
f 51/145/145 58/146/146 57/147/147
f 51/148/148 50/149/149 58/150/150
