# Wavefront OBJ file
# Exported by Misfit Model 3D 1.3.8
# Mon Jan 12 18:51:01 2015

mtllib box2.mtl

# 36 Vertices
v 29.343748 43.25 -25.578125
v 29.34375 -0.046874 -25.578125
v -30.46875 -0.046876 -25.578125
v -30.468752 43.25 -25.578125
v 29.34375 43.25 26.828125
v -30.46875 43.25 26.828125
v -30.46875 -0.046876 26.828125
v 29.34375 -0.046874 26.828125
v 29.34375 -0.046874 26.828125
v -30.46875 -0.046876 26.828125
v -30.46875 -0.046876 -25.578125
v 29.34375 -0.046874 -25.578125
v 29.34375 -0.046874 -25.578125
v 29.343748 43.25 -25.578125
v 22.96875 31.828125 0.046874
v 29.34375 -0.046874 -25.578125
v 29.34375 43.25 26.828125
v 29.34375 -0.046874 -25.578125
v 29.34375 43.25 26.828125
v 29.34375 -0.046874 26.828125
v -30.468752 43.25 -25.578125
v -24.109375 31.828125 0.046876
v 22.96875 31.828125 0.046874
v 29.343748 43.25 -25.578125
v -30.468752 43.25 -25.578125
v -30.46875 -0.046876 -25.578125
v -30.46875 -0.046876 26.828125
v -30.46875 -0.046876 26.828125
v -30.46875 43.25 26.828125
v -24.109375 31.828125 0.046876
v -30.468752 43.25 -25.578125
v -30.46875 -0.046876 26.828125
v -24.109375 31.828125 0.046876
v -30.46875 43.25 26.828125
v 29.34375 43.25 26.828125
v 22.96875 31.828125 0.046874

# 48 Texture Coordinates
vt 0.996309 0.680214
vt 0.656456 0.680214
vt 0.996309 0.375832
vt 0.656456 0.375832
vt 0.996309 0.375832
vt 0.656456 0.680214
vt 0.309806 0.680214
vt 0.309806 0.375832
vt 0.649659 0.680214
vt 0.649659 0.375832
vt 0.649659 0.680214
vt 0.309806 0.375832
vt 0.34665 0.368463
vt 0.34665 0.0
vt 0.686503 0.368463
vt 0.686503 0.0
vt 0.686503 0.368463
vt 0.34665 0.0
vt 0.297776 0.996893
vt 0.152125 0.916609
vt 0.297776 0.692511
vt 0.152125 0.916609
vt 0.0 0.996893
vt 0.297776 0.692511
vt 0.0 0.996893
vt 0.0 0.692511
vt 0.297776 0.692511
vt 0.30367 0.180226
vt 0.036183 0.180226
vt 0.339853 0.0
vt 0.0 0.0
vt 0.339853 0.0
vt 0.036183 0.180226
vt 0.297776 0.680214
vt 0.0 0.680214
vt 0.297776 0.375832
vt 0.0 0.375832
vt 0.152125 0.456115
vt 0.0 0.680214
vt 0.0 0.680214
vt 0.152125 0.456115
vt 0.297776 0.375832
vt 0.0 0.368463
vt 0.036183 0.180226
vt 0.339853 0.368463
vt 0.30367 0.180226
vt 0.339853 0.368463
vt 0.036183 0.180226

# 48 Vertex Normals
vn 0.0 0.0 -1.0
vn 0.0 0.0 -1.0
vn 0.0 0.0 -1.0
vn 0.0 0.0 -1.0
vn 0.0 0.0 -1.0
vn 0.0 0.0 -1.0
vn 0.0 0.0 1.0
vn 0.0 0.0 1.0
vn 0.0 0.0 1.0
vn 0.0 0.0 1.0
vn 0.0 0.0 1.0
vn 0.0 0.0 1.0
vn 0.0 -1.0 0.0
vn 0.0 -1.0 0.0
vn 0.0 -1.0 0.0
vn 0.0 -1.0 0.0
vn 0.0 -1.0 0.0
vn 0.0 -1.0 0.0
vn 0.97042 0.0 0.241422
vn 0.962867 0.257582 -0.080864
vn 0.97042 0.0 0.241422
vn 0.962867 0.257582 -0.080864
vn 0.791362 0.471304 -0.389381
vn 0.791362 0.471304 -0.389381
vn 1.0 0.0 -0.0
vn 1.0 0.0 -0.0
vn 1.0 0.0 -0.0
vn -0.0 0.999967 0.008084
vn 0.0 0.913375 0.40712
vn 0.0 0.913375 0.40712
vn -0.0 0.913375 0.40712
vn 0.0 0.913375 0.40712
vn 0.0 0.913375 0.40712
vn -1.0 -0.0 -0.0
vn -1.0 -0.0 -0.0
vn -1.0 -0.0 -0.0
vn -0.972946 0.0 -0.231032
vn -0.972946 0.0 -0.231032
vn -0.972946 0.0 -0.231032
vn -0.76339 0.497971 0.411413
vn -0.76339 0.497971 0.411413
vn -0.76339 0.497971 0.411413
vn 0.0 0.919838 -0.392299
vn -0.0 0.919838 -0.392299
vn -0.0 0.919838 -0.392299
vn -0.0 0.999967 0.008084
vn -0.0 0.919838 -0.392299
vn -0.0 0.919838 -0.392299

# Box01, 16 grouped triangles

usemtl br_box2.jpg
o Box01
g Box01

f 2/1/1 3/2/2 1/3/3
f 4/4/4 1/5/5 3/6/6
f 6/7/7 7/8/8 5/9/9
f 8/10/10 5/11/11 7/12/12
f 10/13/13 11/14/14 9/15/15
f 12/16/16 9/17/17 11/18/18
f 14/19/19 15/20/20 13/21/21
f 15/22/22 17/23/23 16/24/24
f 19/25/25 20/26/26 18/27/27
f 22/28/28 23/29/29 21/30/30
f 24/31/31 21/32/32 23/33/33
f 26/34/34 27/35/35 25/36/36
f 29/37/37 30/38/38 28/39/39
f 32/40/40 33/41/41 31/42/42
f 35/43/43 36/44/44 34/45/45
f 22/46/46 34/47/47 36/48/48
