# Wavefront OBJ file
# Exported by Misfit Model 3D 1.3.8
# Sun Feb 01 17:39:29 2015

mtllib tree.mtl

# 16 Vertices
v -25.865313 36.597518 0.0
v -25.865313 -12.627481 0.0
v 26.105013 36.597518 -0.0
v 26.105013 -12.627481 -0.0
v 0.154562 36.597517 24.270399
v 0.154564 -12.627481 24.270397
v 0.085137 36.597518 -24.270397
v 0.085138 -12.62748 -24.270399
v -18.157627 36.597519 -17.251724
v -18.157628 -12.62748 -17.251724
v 18.397328 36.597516 17.251724
v 18.397327 -12.627481 17.251724
v -17.848259 36.597517 17.532945
v -17.848258 -12.627481 17.532944
v 18.087958 36.597518 -17.532944
v 18.08796 -12.62748 -17.532945

# 24 Texture Coordinates
vt 0.0 1.0
vt 0.0 0.0
vt 1.0 0.0
vt 1.0 0.0
vt 1.0 1.0
vt 0.0 1.0
vt 0.0 1.0
vt 0.0 0.0
vt 1.0 0.0
vt 1.0 0.0
vt 1.0 1.0
vt 0.0 1.0
vt 0.0 1.0
vt 0.0 0.0
vt 1.0 0.0
vt 1.0 0.0
vt 1.0 1.0
vt 0.0 1.0
vt 0.0 1.0
vt 0.0 0.0
vt 1.0 0.0
vt 1.0 0.0
vt 1.0 1.0
vt 0.0 1.0

# 24 Vertex Normals
vn 0.0 0.0 1.0
vn 0.0 0.0 1.0
vn 0.0 0.0 1.0
vn 0.0 0.0 1.0
vn 0.0 0.0 1.0
vn 0.0 0.0 1.0
vn 0.999999 0.0 -0.00143
vn 0.999999 0.0 -0.00143
vn 0.999999 0.0 -0.00143
vn 0.999999 0.0 -0.00143
vn 0.999999 0.0 -0.00143
vn 0.999999 0.0 -0.00143
vn -0.686406 0.0 0.727218
vn -0.686406 0.0 0.727218
vn -0.686406 0.0 0.727218
vn -0.686406 0.0 0.727218
vn -0.686406 0.0 0.727218
vn -0.686406 0.0 0.727218
vn 0.698387 -0.0 0.715721
vn 0.698387 -0.0 0.715721
vn 0.698387 -0.0 0.715721
vn 0.698387 -0.0 0.715721
vn 0.698387 -0.0 0.715721
vn 0.698387 -0.0 0.715721

# body, 8 grouped triangles

usemtl skin
o body
g body

f 1/1/1 2/2/2 4/3/3
f 4/4/4 3/5/5 1/6/6
f 5/7/7 6/8/8 8/9/9
f 8/10/10 7/11/11 5/12/12
f 9/13/13 10/14/14 12/15/15
f 12/16/16 11/17/17 9/18/18
f 13/19/19 14/20/20 16/21/21
f 16/22/22 15/23/23 13/24/24
