# Wavefront OBJ file
# Exported by Misfit Model 3D 1.3.8
# Tue Jan 13 17:45:23 2015

mtllib beerbox2.mtl

# 24 Vertices
v -4.390625 5.25 -2.984375
v -4.390625 -0.0 -2.984375
v -4.390625 5.25 3.03125
v -4.390625 -0.0 3.03125
v -4.390625 5.25 3.03125
v -4.390625 -0.0 3.03125
v 4.390625 5.25 3.03125
v 4.390625 0.0 3.03125
v 4.390625 5.25 -2.984375
v 4.390625 0.0 -2.984375
v -4.390625 5.25 -2.984375
v -4.390625 -0.0 -2.984375
v -4.390625 5.25 -2.984375
v -4.390625 5.25 3.03125
v 4.390625 5.25 -2.984375
v 4.390625 5.25 3.03125
v -4.390625 -0.0 3.03125
v -4.390625 -0.0 -2.984375
v 4.390625 0.0 3.03125
v 4.390625 0.0 -2.984375
v 4.390625 5.25 3.03125
v 4.390625 0.0 3.03125
v 4.390625 5.25 -2.984375
v 4.390625 0.0 -2.984375

# 36 Texture Coordinates
vt 0.264624 0.491449
vt 0.503748 0.72606
vt 0.264624 0.72606
vt 0.503748 0.491449
vt 0.503748 0.72606
vt 0.264624 0.491449
vt 0.006446 0.481076
vt 0.249476 0.729035
vt 0.006446 0.729035
vt 0.249476 0.481076
vt 0.249476 0.729035
vt 0.006446 0.481076
vt 0.006446 0.481076
vt 0.249476 0.729035
vt 0.006446 0.729035
vt 0.249476 0.481076
vt 0.249476 0.729035
vt 0.006446 0.481076
vt 0.769996 0.489676
vt 0.995613 0.723138
vt 0.769996 0.723138
vt 0.995613 0.489676
vt 0.995613 0.723138
vt 0.769996 0.489676
vt 0.769996 0.723138
vt 0.995613 0.489676
vt 0.769996 0.489676
vt 0.995613 0.723138
vt 0.995613 0.489676
vt 0.769996 0.723138
vt 0.267649 0.494035
vt 0.498733 0.72792
vt 0.267649 0.72792
vt 0.498733 0.494035
vt 0.498733 0.72792
vt 0.267649 0.494035

# 36 Vertex Normals
vn -1.0 0.0 0.0
vn -1.0 0.0 0.0
vn -1.0 0.0 0.0
vn -1.0 0.0 0.0
vn -1.0 0.0 0.0
vn -1.0 0.0 0.0
vn 0.0 0.0 1.0
vn 0.0 0.0 1.0
vn 0.0 0.0 1.0
vn 0.0 0.0 1.0
vn 0.0 0.0 1.0
vn 0.0 0.0 1.0
vn 0.0 0.0 -1.0
vn 0.0 0.0 -1.0
vn 0.0 0.0 -1.0
vn 0.0 0.0 -1.0
vn 0.0 0.0 -1.0
vn 0.0 0.0 -1.0
vn 0.0 1.0 0.0
vn 0.0 1.0 0.0
vn 0.0 1.0 0.0
vn 0.0 1.0 0.0
vn 0.0 1.0 0.0
vn 0.0 1.0 0.0
vn 0.0 -1.0 0.0
vn 0.0 -1.0 0.0
vn 0.0 -1.0 0.0
vn 0.0 -1.0 -0.0
vn 0.0 -1.0 0.0
vn 0.0 -1.0 0.0
vn 1.0 0.0 0.0
vn 1.0 0.0 0.0
vn 1.0 0.0 0.0
vn 1.0 0.0 0.0
vn 1.0 0.0 0.0
vn 1.0 0.0 0.0

# box2, 12 grouped triangles

usemtl br_beerbox.jpg
o box2
g box2

f 2/1/1 3/2/2 1/3/3
f 4/4/4 3/5/5 2/6/6
f 6/7/7 7/8/8 5/9/9
f 8/10/10 7/11/11 6/12/12
f 10/13/13 11/14/14 9/15/15
f 12/16/16 11/17/17 10/18/18
f 14/19/19 15/20/20 13/21/21
f 16/22/22 15/23/23 14/24/24
f 18/25/25 19/26/26 17/27/27
f 20/28/28 19/29/29 18/30/30
f 22/31/31 23/32/32 21/33/33
f 24/34/34 23/35/35 22/36/36
