# Wavefront OBJ file
# Exported by Misfit Model 3D 1.3.8
# Tue Jan 13 17:45:57 2015

mtllib beerbox3.mtl

# 24 Vertices
v -4.734375 6.375 -3.265625
v -4.734375 -0.0 -3.265625
v -4.734375 6.375 3.28125
v -4.734375 -0.0 3.28125
v -4.734375 6.375 3.28125
v -4.734375 -0.0 3.28125
v 4.78125 6.375 3.28125
v 4.78125 0.0 3.28125
v 4.78125 6.375 -3.265625
v 4.78125 0.0 -3.265625
v -4.734375 6.375 -3.265625
v -4.734375 -0.0 -3.265625
v -4.734375 6.375 -3.265625
v -4.734375 6.375 3.28125
v 4.78125 6.375 -3.265625
v 4.78125 6.375 3.28125
v -4.734375 -0.0 3.28125
v -4.734375 -0.0 -3.265625
v 4.78125 0.0 3.28125
v 4.78125 0.0 -3.265625
v 4.78125 6.375 3.28125
v 4.78125 0.0 3.28125
v 4.78125 6.375 -3.265625
v 4.78125 0.0 -3.265625

# 36 Texture Coordinates
vt 0.512671 0.223871
vt 0.753748 0.464342
vt 0.514624 0.464342
vt 0.751795 0.223871
vt 0.753748 0.464342
vt 0.512671 0.223871
vt 0.258399 0.223263
vt 0.495569 0.46341
vt 0.258399 0.46341
vt 0.495569 0.223263
vt 0.495569 0.46341
vt 0.258399 0.223263
vt 0.258399 0.223263
vt 0.495569 0.46341
vt 0.258399 0.46341
vt 0.495569 0.223263
vt 0.495569 0.46341
vt 0.258399 0.223263
vt 0.76609 0.229911
vt 0.991707 0.463373
vt 0.76609 0.463373
vt 0.991707 0.229911
vt 0.991707 0.463373
vt 0.76609 0.229911
vt 0.76609 0.463373
vt 0.991707 0.229911
vt 0.76609 0.229911
vt 0.991707 0.463373
vt 0.991707 0.229911
vt 0.76609 0.463373
vt 0.51179 0.226457
vt 0.752639 0.460342
vt 0.51179 0.460342
vt 0.752639 0.226457
vt 0.752639 0.460342
vt 0.51179 0.226457

# 36 Vertex Normals
vn -1.0 -0.0 0.0
vn -1.0 -0.0 0.0
vn -1.0 -0.0 0.0
vn -1.0 0.0 0.0
vn -1.0 -0.0 0.0
vn -1.0 -0.0 0.0
vn 0.0 -0.0 1.0
vn 0.0 -0.0 1.0
vn 0.0 -0.0 1.0
vn 0.0 0.0 1.0
vn 0.0 -0.0 1.0
vn 0.0 -0.0 1.0
vn -0.0 -0.0 -1.0
vn -0.0 -0.0 -1.0
vn -0.0 -0.0 -1.0
vn -0.0 -0.0 -1.0
vn -0.0 -0.0 -1.0
vn -0.0 -0.0 -1.0
vn -0.0 1.0 0.0
vn -0.0 1.0 0.0
vn -0.0 1.0 0.0
vn 0.0 1.0 0.0
vn -0.0 1.0 0.0
vn -0.0 1.0 0.0
vn 0.0 -1.0 0.0
vn 0.0 -1.0 0.0
vn 0.0 -1.0 0.0
vn 0.0 -1.0 0.0
vn 0.0 -1.0 0.0
vn 0.0 -1.0 0.0
vn 1.0 0.0 -0.0
vn 1.0 0.0 -0.0
vn 1.0 0.0 -0.0
vn 1.0 0.0 0.0
vn 1.0 0.0 -0.0
vn 1.0 0.0 -0.0

# box3, 12 grouped triangles

usemtl br_beerbox.jpg
o box3
g box3

f 2/1/1 3/2/2 1/3/3
f 4/4/4 3/5/5 2/6/6
f 6/7/7 7/8/8 5/9/9
f 8/10/10 7/11/11 6/12/12
f 10/13/13 11/14/14 9/15/15
f 12/16/16 11/17/17 10/18/18
f 14/19/19 15/20/20 13/21/21
f 16/22/22 15/23/23 14/24/24
f 18/25/25 19/26/26 17/27/27
f 20/28/28 19/29/29 18/30/30
f 22/31/31 23/32/32 21/33/33
f 24/34/34 23/35/35 22/36/36
