# Wavefront OBJ file
# Exported by Misfit Model 3D 1.3.8
# Tue Jan 13 17:45:05 2015

mtllib beerbox.mtl

# 24 Vertices
v 4.21875 5.125 3.28125
v 4.21875 0.0 3.28125
v 4.21875 5.125 -3.234375
v 4.21875 0.0 -3.234375
v -4.265625 5.125 -3.234375
v -4.265625 -0.0 -3.234375
v -4.265625 5.125 3.28125
v -4.265625 -0.0 3.28125
v -4.265625 5.125 3.28125
v -4.265625 -0.0 3.28125
v 4.21875 5.125 3.28125
v 4.21875 0.0 3.28125
v 4.21875 5.125 -3.234375
v 4.21875 0.0 -3.234375
v -4.265625 5.125 -3.234375
v -4.265625 -0.0 -3.234375
v -4.265625 5.125 -3.234375
v -4.265625 5.125 3.28125
v 4.21875 5.125 -3.234375
v 4.21875 5.125 3.28125
v -4.265625 -0.0 3.28125
v -4.265625 -0.0 -3.234375
v 4.21875 0.0 3.28125
v 4.21875 0.0 -3.234375

# 36 Texture Coordinates
vt 0.262816 0.757739
vt 0.499982 0.997602
vt 0.262816 0.997602
vt 0.499982 0.757739
vt 0.499982 0.997602
vt 0.262816 0.757739
vt 0.499982 0.757739
vt 0.262816 0.997602
vt 0.499982 0.997602
vt 0.262816 0.757739
vt 0.262816 0.997602
vt 0.499982 0.757739
vt 0.00254 0.750607
vt 0.245569 0.998566
vt 0.00254 0.998566
vt 0.245569 0.750607
vt 0.245569 0.998566
vt 0.00254 0.750607
vt 0.00254 0.750607
vt 0.245569 0.998566
vt 0.00254 0.998566
vt 0.245569 0.750607
vt 0.245569 0.998566
vt 0.00254 0.750607
vt 0.756324 0.759208
vt 0.991707 0.99267
vt 0.756324 0.99267
vt 0.991707 0.759208
vt 0.991707 0.99267
vt 0.756324 0.759208
vt 0.756324 0.99267
vt 0.991707 0.759208
vt 0.756324 0.759208
vt 0.991707 0.99267
vt 0.991707 0.759208
vt 0.756324 0.99267

# 36 Vertex Normals
vn 1.0 0.0 0.0
vn 1.0 0.0 0.0
vn 1.0 0.0 0.0
vn 1.0 0.0 0.0
vn 1.0 0.0 0.0
vn 1.0 0.0 0.0
vn -1.0 0.0 0.0
vn -1.0 0.0 0.0
vn -1.0 0.0 0.0
vn -1.0 0.0 0.0
vn -1.0 0.0 0.0
vn -1.0 0.0 0.0
vn 0.0 0.0 1.0
vn 0.0 0.0 1.0
vn 0.0 0.0 1.0
vn 0.0 0.0 1.0
vn 0.0 0.0 1.0
vn 0.0 0.0 1.0
vn 0.0 0.0 -1.0
vn 0.0 0.0 -1.0
vn 0.0 0.0 -1.0
vn 0.0 0.0 -1.0
vn 0.0 0.0 -1.0
vn 0.0 0.0 -1.0
vn 0.0 1.0 0.0
vn 0.0 1.0 0.0
vn 0.0 1.0 0.0
vn 0.0 1.0 0.0
vn 0.0 1.0 0.0
vn 0.0 1.0 0.0
vn 0.0 -1.0 -0.0
vn 0.0 -1.0 -0.0
vn 0.0 -1.0 -0.0
vn 0.0 -1.0 -0.0
vn 0.0 -1.0 -0.0
vn 0.0 -1.0 -0.0

# box1, 12 grouped triangles

usemtl br_beerbox.jpg
o box1
g box1

f 2/1/1 3/2/2 1/3/3
f 4/4/4 3/5/5 2/6/6
f 6/7/7 7/8/8 5/9/9
f 8/10/10 7/11/11 6/12/12
f 10/13/13 11/14/14 9/15/15
f 12/16/16 11/17/17 10/18/18
f 14/19/19 15/20/20 13/21/21
f 16/22/22 15/23/23 14/24/24
f 18/25/25 19/26/26 17/27/27
f 20/28/28 19/29/29 18/30/30
f 22/31/31 23/32/32 21/33/33
f 24/34/34 23/35/35 22/36/36
