# Wavefront OBJ file
# Exported by Misfit Model 3D 1.3.8
# Tue Jan 13 23:12:29 2015

mtllib painting.mtl

# 12 Vertices
v -0.0 30.5 15.203125
v 0.0 0.0 15.203125
v 1.296875 30.5 15.203125
v 1.296875 0.0 15.203125
v 0.484375 24.859375 9.765625
v 0.484375 5.625 9.765625
v 0.484374 24.859375 -9.765625
v 0.484375 5.625 -9.765625
v 1.296874 30.5 -15.203125
v 1.296875 0.0 -15.203125
v -0.000001 30.5 -15.203125
v -0.0 0.0 -15.203125

# 54 Texture Coordinates
vt 0.488925 0.530102
vt 0.488925 0.990774
vt 0.488925 0.990774
vt 0.488925 0.530102
vt 0.488925 0.990774
vt 0.488925 0.530102
vt 0.403969 0.615094
vt 0.097808 0.905782
vt 0.403969 0.905782
vt 0.097808 0.615094
vt 0.097808 0.905782
vt 0.403969 0.615094
vt 0.012852 0.530102
vt 0.012852 0.990774
vt 0.012852 0.990774
vt 0.012852 0.530102
vt 0.012852 0.990774
vt 0.012852 0.530102
vt 0.488925 0.990774
vt 0.012852 0.990774
vt 0.012852 0.990774
vt 0.488925 0.990774
vt 0.012852 0.990774
vt 0.488925 0.990774
vt 0.012852 0.530102
vt 0.488925 0.530102
vt 0.488925 0.530102
vt 0.012852 0.530102
vt 0.488925 0.530102
vt 0.012852 0.530102
vt 0.488925 0.990774
vt 0.488925 0.530102
vt 0.403969 0.905782
vt 0.488925 0.530102
vt 0.403969 0.615094
vt 0.403969 0.905782
vt 0.012852 0.990774
vt 0.488925 0.990774
vt 0.097808 0.905782
vt 0.488925 0.990774
vt 0.403969 0.905782
vt 0.097808 0.905782
vt 0.488925 0.530102
vt 0.012852 0.530102
vt 0.403969 0.615094
vt 0.012852 0.530102
vt 0.097808 0.615094
vt 0.403969 0.615094
vt 0.012852 0.530102
vt 0.012852 0.990774
vt 0.097808 0.615094
vt 0.012852 0.990774
vt 0.097808 0.905782
vt 0.097808 0.615094

# 54 Vertex Normals
vn 0.0 0.0 1.0
vn 0.0 0.0 1.0
vn 0.0 0.0 1.0
vn 0.0 0.0 1.0
vn 0.0 0.0 1.0
vn 0.0 0.0 1.0
vn 0.997908 0.057427 -0.029682
vn 0.997917 -0.05727 0.029682
vn 0.996597 -0.03581 -0.074238
vn 0.996594 0.035908 0.074239
vn 0.997917 -0.05727 0.029682
vn 0.997908 0.057427 -0.029682
vn 0.0 0.0 -1.0
vn 0.0 0.0 -1.0
vn 0.0 0.0 -1.0
vn 0.0 0.0 -1.0
vn 0.0 0.0 -1.0
vn 0.0 0.0 -1.0
vn 0.0 1.0 0.0
vn 0.0 1.0 0.0
vn 0.0 1.0 0.0
vn 0.0 1.0 0.0
vn 0.0 1.0 0.0
vn 0.0 1.0 0.0
vn 0.0 -1.0 -0.0
vn 0.0 -1.0 -0.0
vn 0.0 -1.0 -0.0
vn 0.0 -1.0 -0.0
vn 0.0 -1.0 -0.0
vn 0.0 -1.0 -0.0
vn 0.994199 -0.095497 -0.049494
vn 0.993936 0.047879 -0.098989
vn 0.996597 -0.03581 -0.074238
vn 0.993936 0.047879 -0.098989
vn 0.997908 0.057427 -0.029682
vn 0.996597 -0.03581 -0.074238
vn 0.993942 -0.047748 0.098988
vn 0.994199 -0.095497 -0.049494
vn 0.997917 -0.05727 0.029682
vn 0.994199 -0.095497 -0.049494
vn 0.996597 -0.03581 -0.074238
vn 0.997917 -0.05727 0.029682
vn 0.993936 0.047879 -0.098989
vn 0.994173 0.095758 0.049495
vn 0.997908 0.057427 -0.029682
vn 0.994173 0.095758 0.049495
vn 0.996594 0.035908 0.074239
vn 0.997908 0.057427 -0.029682
vn 0.994173 0.095758 0.049495
vn 0.993942 -0.047748 0.098988
vn 0.996594 0.035908 0.074239
vn 0.993942 -0.047748 0.098988
vn 0.997917 -0.05727 0.029682
vn 0.996594 0.035908 0.074239

# Box01, 18 grouped triangles

usemtl br_paintings1.jpg
o Box01
g Box01

f 2/1/1 3/2/2 1/3/3
f 4/4/4 3/5/5 2/6/6
f 6/7/7 7/8/8 5/9/9
f 8/10/10 7/11/11 6/12/12
f 10/13/13 11/14/14 9/15/15
f 12/16/16 11/17/17 10/18/18
f 1/19/19 9/20/20 11/21/21
f 3/22/22 9/23/23 1/24/24
f 12/25/25 4/26/26 2/27/27
f 10/28/28 4/29/29 12/30/30
f 3/31/31 4/32/32 5/33/33
f 4/34/34 6/35/35 5/36/36
f 9/37/37 3/38/38 7/39/39
f 3/40/40 5/41/41 7/42/42
f 4/43/43 10/44/44 6/45/45
f 10/46/46 8/47/47 6/48/48
f 10/49/49 9/50/50 8/51/51
f 9/52/52 7/53/53 8/54/54
