# Wavefront OBJ file
# Exported by Misfit Model 3D 1.3.8
# Sun Jan 10 12:01:02 2010

mtllib HEK.mtl

# 78 Vertices
v -47.10772 28.518267 -1.655497
v -44.152619 29.272054 -1.655497
v -44.152618 -0.000001 -1.655497
v -47.107719 -0.000001 -1.655497
v -44.522007 29.523316 -1.655497
v 47.086125 28.51827 1.655503
v 44.131024 29.272056 1.655503
v 44.131024 0.125632 1.655503
v 47.086125 0.125632 1.655503
v 44.500411 29.523319 1.655503
v -44.152619 29.272054 1.655505
v -44.522007 29.523316 1.655505
v -47.10772 28.518267 1.655505
v -44.152618 -0.000001 1.655505
v -47.107719 -0.000001 1.655505
v 44.131024 29.272056 1.655503
v -43.413844 32.035939 1.655505
v -44.152619 29.272054 1.655505
v -44.522007 29.523316 1.655505
v 43.761636 32.035942 1.655503
v 44.500411 29.523319 1.655503
v 43.761636 32.035942 -1.655499
v 44.500411 29.523319 -1.655499
v 44.131024 29.272056 -1.655499
v -44.152619 29.272054 -1.655497
v -43.413844 32.035939 -1.655497
v -44.522007 29.523316 -1.655497
v 44.131024 29.272056 -1.655499
v 44.500411 29.523319 -1.655499
v 47.086125 28.51827 -1.655499
v 44.131024 0.125632 -1.655499
v 47.086125 0.125632 -1.655499
v 44.131024 0.125632 -1.655499
v 47.086125 0.125632 -1.655499
v 47.086125 0.125632 1.655503
v -44.152618 -0.000001 1.655505
v -47.107719 -0.000001 1.655505
v -47.107719 -0.000001 -1.655497
v 44.131024 29.272056 1.655503
v -44.152619 29.272054 1.655505
v 44.131024 0.125632 -1.655499
v -44.152619 29.272054 -1.655497
v 47.086125 28.51827 -1.655499
v 44.500411 29.523319 -1.655499
v 44.500411 29.523319 1.655503
v 47.086125 28.51827 1.655503
v -47.10772 28.518267 -1.655497
v -44.522007 29.523316 -1.655497
v -47.10772 28.518267 1.655505
v -44.522007 29.523316 1.655505
v -45.999557 16.583309 -0.73361
v 45.977962 16.583312 -0.733612
v 45.977962 16.583312 0.733616
v -45.999557 18.090883 -0.73361
v 45.977962 18.090885 -0.733612
v 45.977962 16.583312 -0.733612
v -45.999557 18.090883 0.733618
v 45.977962 18.090885 0.733616
v -45.999557 16.583309 0.733618
v 1.28206 0.125631 1.278959
v 1.28206 0.125631 -1.278953
v 1.282059 30.653998 -1.278953
v -1.303654 0.125631 -1.278953
v 1.28206 0.125631 -1.278953
v 1.28206 0.125631 1.278959
v -1.303655 30.653998 -1.278953
v -1.303654 0.125631 1.278959
v 1.282059 30.653998 1.278959
v -1.303655 30.653998 1.278959
v -1.303654 0.125631 -1.278953
v 44.131024 0.125632 1.655503
v -44.152618 -0.000001 -1.655497
v 44.131024 29.272056 -1.655499
v -44.152618 -0.000001 -1.655497
v -45.999557 16.583309 -0.73361
v -1.303654 0.125631 1.278959
v -1.303655 30.653998 1.278959
v -1.303654 0.125631 1.278959

# 186 Texture Coordinates
vt 0.540039 0.702148
vt 0.537109 0.120117
vt 0.484375 0.688477
vt 0.484375 0.688477
vt 0.537109 0.120117
vt 0.480469 0.120117
vt 0.53418 0.708984
vt 0.540039 0.702148
vt 0.484375 0.688477
vt 0.194336 0.706055
vt 0.189453 0.125
vt 0.138672 0.692383
vt 0.138672 0.692383
vt 0.189453 0.125
vt 0.133789 0.125
vt 0.188477 0.712891
vt 0.194336 0.706055
vt 0.138672 0.692383
vt 0.369141 0.709961
vt 0.417969 0.689453
vt 0.362305 0.703125
vt 0.362305 0.703125
vt 0.417969 0.689453
vt 0.358398 0.121094
vt 0.358398 0.121094
vt 0.417969 0.689453
vt 0.415039 0.121094
vt 0.0625 0.944336
vt 0.055664 0.990234
vt 0.949219 0.987305
vt 0.052734 0.984375
vt 0.055664 0.990234
vt 0.0625 0.944336
vt 0.942383 0.941406
vt 0.0625 0.944336
vt 0.949219 0.987305
vt 0.953125 0.982422
vt 0.942383 0.941406
vt 0.949219 0.987305
vt 0.953125 0.84668
vt 0.949219 0.841797
vt 0.942383 0.887695
vt 0.942383 0.887695
vt 0.949219 0.841797
vt 0.055664 0.84375
vt 0.0625 0.889648
vt 0.942383 0.887695
vt 0.055664 0.84375
vt 0.051758 0.849609
vt 0.0625 0.889648
vt 0.055664 0.84375
vt 0.023438 0.713867
vt 0.072266 0.693359
vt 0.016602 0.707031
vt 0.016602 0.707031
vt 0.072266 0.693359
vt 0.012695 0.125977
vt 0.012695 0.125977
vt 0.072266 0.693359
vt 0.068359 0.125977
vt 0.068359 0.125977
vt 0.072266 0.693359
vt 0.133789 0.125
vt 0.703125 0.655273
vt 0.588867 0.655273
vt 0.703125 0.751953
vt 0.588867 0.270508
vt 0.703125 0.270508
vt 0.588867 0.172852
vt 0.949219 0.787109
vt 0.055664 0.790039
vt 0.949219 0.841797
vt 0.189453 0.125
vt 0.194336 0.706055
vt 0.255859 0.124023
vt 0.362305 0.703125
vt 0.358398 0.121094
vt 0.296875 0.704102
vt 0.992188 0.896484
vt 0.96875 0.875
vt 0.942383 0.887695
vt 0.942383 0.887695
vt 0.942383 0.941406
vt 0.992188 0.896484
vt 0.942383 0.887695
vt 0.0625 0.889648
vt 0.942383 0.941406
vt 0.990234 0.947266
vt 0.942383 0.941406
vt 0.964844 0.960938
vt 0.484375 0.688477
vt 0.480469 0.120117
vt 0.417969 0.689453
vt 0.0625 0.889648
vt 0.036133 0.876953
vt 0.012695 0.898438
vt 0.0625 0.944336
vt 0.0625 0.889648
vt 0.014648 0.950195
vt 0.0625 0.944336
vt 0.014648 0.950195
vt 0.040039 0.962891
vt 0.022461 0.020508
vt 0.022461 0.041992
vt 0.980469 0.020508
vt 0.022461 0.083984
vt 0.022461 0.105469
vt 0.980469 0.083984
vt 0.022461 0.0625
vt 0.022461 0.083984
vt 0.980469 0.0625
vt 0.022461 0.041992
vt 0.022461 0.0625
vt 0.980469 0.041992
vt 0.874023 0.771484
vt 0.874023 0.125977
vt 0.820313 0.771484
vt 0.672852 0.301758
vt 0.584961 0.301758
vt 0.672852 0.389648
vt 0.874023 0.125977
vt 0.874023 0.771484
vt 0.927734 0.125977
vt 0.820313 0.771484
vt 0.820313 0.125977
vt 0.766602 0.771484
vt 0.927734 0.125977
vt 0.927734 0.771484
vt 0.982422 0.125977
vt 0.072266 0.693359
vt 0.138672 0.692383
vt 0.133789 0.125
vt 0.588867 0.655273
vt 0.588867 0.751953
vt 0.703125 0.751953
vt 0.703125 0.270508
vt 0.703125 0.172852
vt 0.588867 0.172852
vt 0.055664 0.790039
vt 0.055664 0.84375
vt 0.949219 0.841797
vt 0.194336 0.706055
vt 0.260742 0.705078
vt 0.255859 0.124023
vt 0.358398 0.121094
vt 0.291992 0.12207
vt 0.296875 0.704102
vt 0.942383 0.941406
vt 0.990234 0.947266
vt 0.992188 0.896484
vt 0.0625 0.889648
vt 0.0625 0.944336
vt 0.942383 0.941406
vt 0.480469 0.120117
vt 0.415039 0.121094
vt 0.417969 0.689453
vt 0.0625 0.889648
vt 0.012695 0.898438
vt 0.014648 0.950195
vt 0.022461 0.041992
vt 0.980469 0.041992
vt 0.980469 0.020508
vt 0.022461 0.105469
vt 0.980469 0.105469
vt 0.980469 0.083984
vt 0.022461 0.083984
vt 0.980469 0.083984
vt 0.980469 0.0625
vt 0.022461 0.0625
vt 0.980469 0.0625
vt 0.980469 0.041992
vt 0.874023 0.125977
vt 0.820313 0.125977
vt 0.820313 0.771484
vt 0.584961 0.301758
vt 0.584961 0.389648
vt 0.672852 0.389648
vt 0.874023 0.771484
vt 0.927734 0.771484
vt 0.927734 0.125977
vt 0.820313 0.125977
vt 0.766602 0.125977
vt 0.766602 0.771484
vt 0.927734 0.771484
vt 0.982422 0.771484
vt 0.982422 0.125977

# 186 Vertex Normals
vn -0.0 -0.0 -1.0
vn -0.0 0.0 -1.0
vn -0.0 -0.0 -1.0
vn -0.0 -0.0 -1.0
vn -0.0 0.0 -1.0
vn -0.0 0.0 -1.0
vn -0.0 -0.0 -1.0
vn -0.0 -0.0 -1.0
vn -0.0 -0.0 -1.0
vn 0.0 -0.0 1.0
vn 0.0 0.0 1.0
vn 0.0 -0.0 1.0
vn 0.0 -0.0 1.0
vn 0.0 0.0 1.0
vn 0.0 0.0 1.0
vn 0.0 -0.0 1.0
vn 0.0 -0.0 1.0
vn 0.0 -0.0 1.0
vn 0.0 0.0 1.0
vn 0.0 0.0 1.0
vn 0.0 0.0 1.0
vn 0.0 0.0 1.0
vn 0.0 0.0 1.0
vn 0.0 -0.0 1.0
vn 0.0 -0.0 1.0
vn 0.0 0.0 1.0
vn 0.0 -0.0 1.0
vn 0.0 0.0 1.0
vn 0.0 0.0 1.0
vn 0.0 0.0 1.0
vn 0.0 0.0 1.0
vn 0.0 0.0 1.0
vn 0.0 0.0 1.0
vn 0.0 0.0 1.0
vn 0.0 0.0 1.0
vn 0.0 0.0 1.0
vn 0.0 0.0 1.0
vn 0.0 0.0 1.0
vn 0.0 0.0 1.0
vn 0.0 -0.0 -1.0
vn -0.0 -0.0 -1.0
vn -0.0 0.0 -1.0
vn -0.0 0.0 -1.0
vn -0.0 -0.0 -1.0
vn -0.0 -0.0 -1.0
vn -0.0 0.0 -1.0
vn -0.0 0.0 -1.0
vn -0.0 -0.0 -1.0
vn 0.0 -0.0 -1.0
vn -0.0 0.0 -1.0
vn -0.0 -0.0 -1.0
vn -0.0 0.0 -1.0
vn -0.0 0.0 -1.0
vn -0.0 0.0 -1.0
vn -0.0 0.0 -1.0
vn -0.0 0.0 -1.0
vn -0.0 0.0 -1.0
vn -0.0 0.0 -1.0
vn -0.0 0.0 -1.0
vn -0.0 0.0 -1.0
vn 1.0 0.0 0.0
vn 1.0 0.0 0.0
vn 1.0 0.0 0.0
vn 0.0 -1.0 0.0
vn 0.0 -1.0 0.0
vn 0.0 -1.0 0.0
vn 0.0 -1.0 -0.0
vn 0.0 -1.0 -0.0
vn 0.0 -1.0 -0.0
vn 0.0 -1.0 0.0
vn 0.0 -1.0 0.0
vn 0.0 -1.0 0.0
vn -1.0 0.0 -0.000001
vn -1.0 0.0 -0.000001
vn -1.0 0.0 -0.000001
vn 1.0 0.0 -0.0
vn 1.0 0.0 -0.0
vn 1.0 0.0 -0.0
vn -0.0 -0.0 -1.0
vn -0.0 -0.0 -1.0
vn -0.0 0.0 -1.0
vn 0.395684 0.918387 -0.0
vn 0.395684 0.918387 0.0
vn 0.726782 0.686869 0.0
vn 0.395684 0.918387 -0.0
vn -0.371371 0.928485 -0.0
vn 0.395684 0.918387 0.0
vn 0.0 0.0 1.0
vn 0.0 0.0 1.0
vn 0.0 0.0 1.0
vn -1.0 0.0 -0.0
vn -1.0 0.0 -0.0
vn -1.0 0.0 -0.0
vn -0.0 0.0 -1.0
vn -0.0 0.0 -1.0
vn -0.0 0.0 -1.0
vn -0.371371 0.928485 -0.0
vn -0.371371 0.928485 -0.0
vn -0.689624 0.724168 -0.0
vn 0.0 0.0 1.0
vn -0.0 0.0 1.0
vn -0.0 0.0 1.0
vn 0.0 -1.0 0.0
vn 0.0 -1.0 0.0
vn 0.0 -1.0 0.0
vn -0.0 0.0 -1.0
vn -0.0 -0.0 -1.0
vn -0.0 -0.0 -1.0
vn -0.0 1.0 0.0
vn -0.0 1.0 0.0
vn -0.0 1.0 0.0
vn 0.0 0.0 1.0
vn 0.0 -0.0 1.0
vn 0.0 -0.0 1.0
vn 1.0 0.0 -0.0
vn 1.0 0.0 -0.0
vn 1.0 0.0 -0.0
vn 0.0 -1.0 0.0
vn 0.0 -1.0 0.0
vn 0.0 -1.0 0.0
vn 0.0 -0.0 -1.0
vn 0.0 0.0 -1.0
vn 0.0 0.0 -1.0
vn 0.0 0.0 1.0
vn 0.0 -0.0 1.0
vn 0.0 -0.0 1.0
vn -1.0 -0.0 -0.0
vn -1.0 -0.0 0.0
vn -1.0 -0.0 0.0
vn 1.0 0.0 0.0
vn 1.0 0.0 0.0
vn 1.0 0.0 0.0
vn 0.0 -1.0 0.0
vn 0.0 -1.0 0.0
vn 0.0 -1.0 0.0
vn 0.0 -1.0 -0.0
vn 0.0 -1.0 -0.0
vn 0.0 -1.0 -0.0
vn 0.0 -1.0 0.0
vn 0.0 -1.0 0.0
vn 0.0 -1.0 0.0
vn -1.0 0.0 -0.000001
vn -1.0 0.0 -0.000001
vn -1.0 0.0 -0.000001
vn 1.0 0.0 -0.0
vn 1.0 0.0 -0.0
vn 1.0 0.0 -0.0
vn 0.395684 0.918387 0.0
vn 0.726782 0.686869 0.0
vn 0.726782 0.686869 0.0
vn -0.371371 0.928485 -0.0
vn -0.371371 0.928485 -0.0
vn 0.395684 0.918387 0.0
vn -1.0 0.0 -0.0
vn -1.0 0.0 -0.0
vn -1.0 0.0 -0.0
vn -0.371371 0.928485 -0.0
vn -0.689624 0.724168 0.0
vn -0.689624 0.724168 -0.0
vn 0.0 -1.0 0.0
vn 0.0 -1.0 0.0
vn 0.0 -1.0 0.0
vn -0.0 -0.0 -1.0
vn -0.0 -0.0 -1.0
vn -0.0 -0.0 -1.0
vn -0.0 1.0 0.0
vn -0.0 1.0 0.0
vn -0.0 1.0 0.0
vn 0.0 -0.0 1.0
vn 0.0 -0.0 1.0
vn 0.0 -0.0 1.0
vn 1.0 0.0 -0.0
vn 1.0 0.0 -0.0
vn 1.0 0.0 -0.0
vn 0.0 -1.0 0.0
vn 0.0 -1.0 0.0
vn 0.0 -1.0 0.0
vn 0.0 0.0 -1.0
vn 0.0 0.0 -1.0
vn 0.0 0.0 -1.0
vn 0.0 -0.0 1.0
vn 0.0 -0.0 1.0
vn 0.0 -0.0 1.0
vn -1.0 -0.0 0.0
vn -1.0 -0.0 0.0
vn -1.0 -0.0 0.0

# Group, 62 grouped triangles

usemtl hek.png
o Group
g Group

f 2/1/1 3/2/2 1/3/3
f 1/4/4 3/5/5 4/6/6
f 5/7/7 2/8/8 1/9/9
f 7/10/10 8/11/11 6/12/12
f 6/13/13 8/14/14 9/15/15
f 10/16/16 7/17/17 6/18/18
f 12/19/19 13/20/20 11/21/21
f 11/22/22 13/23/23 14/24/24
f 14/25/25 13/26/26 15/27/27
f 17/28/28 18/29/29 16/30/30
f 19/31/31 18/32/32 17/33/33
f 20/34/34 17/35/35 16/36/36
f 21/37/37 20/38/38 16/39/39
f 23/40/40 24/41/41 22/42/42
f 22/43/43 24/44/44 25/45/45
f 26/46/46 22/47/47 25/48/48
f 27/49/49 26/50/50 25/51/51
f 29/52/52 30/53/53 28/54/54
f 28/55/55 30/56/56 31/57/57
f 31/58/58 30/59/59 32/60/60
f 32/61/61 30/62/62 9/63/63
f 34/64/64 35/65/65 33/66/66
f 37/67/67 38/68/68 36/69/69
f 39/70/70 40/71/71 24/72/72
f 8/73/73 7/74/74 41/75/75
f 11/76/76 14/77/77 42/78/78
f 43/79/79 44/80/80 22/81/81
f 22/82/82 20/83/83 43/84/84
f 22/85/85 26/86/86 20/87/87
f 46/88/88 20/89/89 45/90/90
f 1/91/91 4/92/92 13/93/93
f 26/94/94 48/95/95 47/96/96
f 17/97/97 26/98/98 49/99/99
f 17/100/100 49/101/101 50/102/102
f 52/103/103 53/104/104 51/105/105
f 55/106/106 56/107/107 54/108/108
f 58/109/109 55/110/110 57/111/111
f 53/112/112 58/113/113 59/114/114
f 61/115/115 62/116/116 60/117/117
f 64/118/118 65/119/119 63/120/120
f 62/121/121 61/122/122 66/123/123
f 60/124/124 68/125/125 67/126/126
f 66/127/127 70/128/128 69/129/129
f 30/130/130 6/131/131 9/132/132
f 35/133/133 71/134/134 33/135/135
f 38/136/136 72/137/137 36/138/138
f 40/139/139 25/140/140 24/141/141
f 7/142/142 73/143/143 41/144/144
f 14/145/145 74/146/146 42/147/147
f 20/148/148 46/149/149 43/150/150
f 26/151/151 17/152/152 20/153/153
f 4/154/154 15/155/155 13/156/156
f 26/157/157 47/158/158 49/159/159
f 53/160/160 59/161/161 51/162/162
f 56/163/163 75/164/164 54/165/165
f 55/166/166 54/167/167 57/168/168
f 58/169/169 57/170/170 59/171/171
f 62/172/172 68/173/173 60/174/174
f 65/175/175 76/176/176 63/177/177
f 61/178/178 70/179/179 66/180/180
f 68/181/181 77/182/182 67/183/183
f 70/184/184 78/185/185 69/186/186
