# Wavefront OBJ file
# Exported by Misfit Model 3D 1.3.8
# Tue Jan 13 22:10:33 2015

mtllib fridge.mtl

# 156 Vertices
v 13.796873 49.96875 -12.40625
v 13.796875 -0.015625 -12.40625
v -12.796877 49.96875 -12.40625
v -12.796875 -0.015625 -12.40625
v -12.187501 49.578125 11.96875
v -12.796876 49.96875 11.078125
v -12.796875 -0.015625 11.078125
v -12.1875 0.359375 11.96875
v 13.796875 -0.015625 11.078125
v 13.1875 0.359375 11.96875
v 13.796874 49.96875 11.078125
v 13.187499 49.578125 11.96875
v -11.765626 49.1875 14.0
v -11.765626 32.265625 14.0
v 13.140624 49.1875 14.0
v 13.140624 32.265625 14.0
v -12.359376 49.59375 11.734375
v -12.359376 49.59375 13.453125
v 13.749999 49.59375 11.734375
v 13.749999 49.59375 13.453125
v -12.359376 31.84375 13.453125
v -12.359376 31.84375 11.734375
v 13.749999 31.84375 13.453125
v 13.749999 31.84375 11.734375
v -12.359376 49.59375 13.453125
v -11.765626 32.265625 14.0
v 13.140624 49.1875 14.0
v 13.749999 49.59375 13.453125
v 13.749999 31.84375 13.453125
v 13.140624 32.265625 14.0
v -11.625 30.921875 14.0
v -11.625 1.515625 14.0
v 12.75 30.921875 14.0
v 12.75 1.515625 14.0
v -12.218751 31.65625 11.734375
v -12.218751 31.65625 13.453125
v 13.343749 31.65625 11.734375
v 13.343749 31.65625 13.453125
v -12.21875 0.796875 13.453125
v -12.21875 0.796875 11.734375
v 13.34375 0.796875 13.453125
v 13.34375 0.796875 11.734375
v -12.218751 31.65625 13.453125
v -11.625 1.515625 14.0
v 12.75 30.921875 14.0
v 13.343749 31.65625 13.453125
v 13.34375 0.796875 13.453125
v 12.75 1.515625 14.0
v 13.749999 49.59375 13.453125
v 13.749999 31.84375 13.453125
v 13.749999 49.59375 11.734375
v 13.749999 31.84375 11.734375
v -12.359376 49.59375 11.734375
v -12.359376 31.84375 11.734375
v -12.359376 49.59375 13.453125
v -12.359376 31.84375 13.453125
v 13.343749 31.65625 13.453125
v 13.34375 0.796875 13.453125
v 13.343749 31.65625 11.734375
v 13.34375 0.796875 11.734375
v -12.218751 31.65625 11.734375
v -12.21875 0.796875 11.734375
v -12.218751 31.65625 13.453125
v -12.21875 0.796875 13.453125
v 13.796874 49.96875 11.078125
v 13.796875 -0.015625 11.078125
v 13.796873 49.96875 -12.40625
v 13.796875 -0.015625 -12.40625
v -12.796877 49.96875 -12.40625
v -12.796875 -0.015625 -12.40625
v -12.796876 49.96875 11.078125
v -12.796875 -0.015625 11.078125
v -12.796877 49.96875 -12.40625
v -12.796876 49.96875 11.078125
v 13.796873 49.96875 -12.40625
v 13.796874 49.96875 11.078125
v 13.187499 49.578125 11.96875
v 13.796874 49.96875 11.078125
v -12.796876 49.96875 11.078125
v -12.187501 49.578125 11.96875
v -11.140625 30.3125 15.6875
v -11.140625 29.53125 15.6875
v -10.078125 30.3125 15.6875
v -10.078125 29.53125 15.6875
v -5.25 30.3125 15.6875
v -5.25 29.53125 15.6875
v -5.25 30.3125 14.609375
v -5.25 29.53125 14.609375
v -11.140625 30.3125 14.609375
v -11.140625 29.53125 14.609375
v -11.140625 30.3125 15.6875
v -11.140625 29.53125 15.6875
v -11.140625 30.3125 15.6875
v -10.078125 30.3125 14.609375
v -10.078125 30.3125 15.6875
v -11.140625 29.53125 15.6875
v -10.078125 29.53125 15.6875
v -10.078125 29.53125 14.609375
v -6.53125 30.3125 15.6875
v -10.078125 30.3125 15.6875
v -10.078125 29.53125 15.6875
v -6.53125 29.53125 15.6875
v -6.53125 30.3125 14.609375
v -10.078125 30.3125 14.609375
v -10.078125 29.53125 14.609375
v -6.53125 29.53125 14.609375
v -5.25 29.53125 15.6875
v -5.25 30.3125 14.609375
v -5.25 29.53125 14.609375
v -5.25 29.53125 13.765625
v -6.53125 29.53125 13.765625
v -6.53125 30.3125 13.765625
v -5.25 30.3125 13.765625
v -10.078125 30.3125 13.734375
v -10.078125 29.53125 13.734375
v -11.140625 30.3125 13.734375
v -11.140625 29.53125 14.609375
v -11.140625 29.53125 13.734375
v -11.21875 33.453125 15.6875
v -11.21875 32.671875 15.6875
v -10.140625 33.453125 15.6875
v -10.140625 32.671875 15.6875
v -5.328125 33.453125 15.6875
v -5.328125 32.671875 15.6875
v -5.328125 33.453125 14.609375
v -5.328125 32.671875 14.609375
v -11.218751 33.453125 14.609375
v -11.218751 32.671875 14.609375
v -11.21875 33.453125 15.6875
v -11.21875 32.671875 15.6875
v -11.21875 33.453125 15.6875
v -10.140626 33.453125 14.609375
v -10.140625 33.453125 15.6875
v -11.21875 32.671875 15.6875
v -10.140625 32.671875 15.6875
v -10.140626 32.671875 14.609375
v -6.59375 33.453125 15.6875
v -10.140625 33.453125 15.6875
v -10.140625 32.671875 15.6875
v -6.59375 32.671875 15.6875
v -6.59375 33.453125 14.609375
v -10.140626 33.453125 14.609375
v -10.140626 32.671875 14.609375
v -6.59375 32.671875 14.609375
v -5.328125 32.671875 15.6875
v -5.328125 33.453125 14.609375
v -5.328125 32.671875 14.609375
v -5.328125 32.671875 13.765625
v -6.59375 32.671875 13.765625
v -6.59375 33.453125 13.765625
v -5.328125 33.453125 13.765625
v -10.140626 33.453125 13.734375
v -10.140626 32.671875 13.734375
v -11.218751 33.453125 13.734375
v -11.218751 32.671875 14.609375
v -11.218751 32.671875 13.734375

# 384 Texture Coordinates
vt 0.955572 0.027365
vt 0.56225 0.640929
vt 0.955572 0.640929
vt 0.56225 0.027365
vt 0.56225 0.640929
vt 0.955572 0.027365
vt 0.56225 0.640929
vt 0.56225 0.027365
vt 0.571325 0.636136
vt 0.56225 0.027365
vt 0.571325 0.032158
vt 0.571325 0.636136
vt 0.56225 0.027365
vt 0.955572 0.027365
vt 0.571325 0.032158
vt 0.955572 0.027365
vt 0.946497 0.032158
vt 0.571325 0.032158
vt 0.955572 0.027365
vt 0.955572 0.640929
vt 0.946497 0.032158
vt 0.955572 0.640929
vt 0.946497 0.636136
vt 0.946497 0.032158
vt 0.550318 0.662035
vt 0.955837 0.984433
vt 0.549667 0.984433
vt 0.956488 0.662035
vt 0.955837 0.984433
vt 0.550318 0.662035
vt 0.539841 0.992712
vt 0.965662 0.992712
vt 0.539841 0.992712
vt 0.965662 0.992712
vt 0.965662 0.992712
vt 0.539841 0.992712
vt 0.540492 0.653756
vt 0.966313 0.653756
vt 0.540492 0.653756
vt 0.966313 0.653756
vt 0.966313 0.653756
vt 0.540492 0.653756
vt 0.539841 0.992712
vt 0.540492 0.653756
vt 0.549667 0.984433
vt 0.540492 0.653756
vt 0.550318 0.662035
vt 0.549667 0.984433
vt 0.965662 0.992712
vt 0.539841 0.992712
vt 0.955837 0.984433
vt 0.539841 0.992712
vt 0.549667 0.984433
vt 0.955837 0.984433
vt 0.540492 0.653756
vt 0.966313 0.653756
vt 0.550318 0.662035
vt 0.966313 0.653756
vt 0.956488 0.662035
vt 0.550318 0.662035
vt 0.966313 0.653756
vt 0.965662 0.992712
vt 0.956488 0.662035
vt 0.965662 0.992712
vt 0.955837 0.984433
vt 0.956488 0.662035
vt 0.551876 0.030503
vt 0.949552 0.619048
vt 0.551876 0.619048
vt 0.949552 0.030503
vt 0.949552 0.619048
vt 0.551876 0.030503
vt 0.542256 0.633436
vt 0.959172 0.633436
vt 0.542256 0.633436
vt 0.959172 0.633436
vt 0.959172 0.633436
vt 0.542256 0.633436
vt 0.542256 0.016115
vt 0.959172 0.016115
vt 0.542256 0.016115
vt 0.959172 0.016115
vt 0.959172 0.016115
vt 0.542256 0.016115
vt 0.542256 0.633436
vt 0.542256 0.016115
vt 0.551876 0.619048
vt 0.542256 0.016115
vt 0.551876 0.030503
vt 0.551876 0.619048
vt 0.959172 0.633436
vt 0.542256 0.633436
vt 0.949552 0.619048
vt 0.542256 0.633436
vt 0.551876 0.619048
vt 0.949552 0.619048
vt 0.542256 0.016115
vt 0.959172 0.016115
vt 0.551876 0.030503
vt 0.959172 0.016115
vt 0.949552 0.030503
vt 0.551876 0.030503
vt 0.959172 0.016115
vt 0.959172 0.633436
vt 0.949552 0.030503
vt 0.959172 0.633436
vt 0.949552 0.619048
vt 0.949552 0.030503
vt 0.903491 0.657507
vt 0.83722 0.897177
vt 0.903491 0.897177
vt 0.83722 0.657507
vt 0.83722 0.897177
vt 0.903491 0.657507
vt 0.83722 0.657507
vt 0.903491 0.897177
vt 0.83722 0.897177
vt 0.903491 0.657507
vt 0.903491 0.897177
vt 0.83722 0.657507
vt 0.903491 0.238281
vt 0.83722 0.654778
vt 0.903491 0.654778
vt 0.83722 0.238281
vt 0.83722 0.654778
vt 0.903491 0.238281
vt 0.83722 0.238281
vt 0.903491 0.654778
vt 0.83722 0.654778
vt 0.903491 0.238281
vt 0.903491 0.654778
vt 0.83722 0.238281
vt 0.950457 0.207116
vt 0.557494 0.620766
vt 0.950457 0.620766
vt 0.557494 0.207116
vt 0.557494 0.620766
vt 0.950457 0.207116
vt 0.557494 0.207116
vt 0.950457 0.620766
vt 0.557494 0.620766
vt 0.950457 0.207116
vt 0.950457 0.620766
vt 0.557494 0.207116
vt 0.575873 0.689109
vt 0.94016 0.973283
vt 0.575873 0.973283
vt 0.94016 0.689109
vt 0.94016 0.973283
vt 0.575873 0.689109
vt 0.94016 0.689109
vt 0.575873 0.689109
vt 0.931755 0.678313
vt 0.575873 0.689109
vt 0.584277 0.678313
vt 0.931755 0.678313
vt 0.04697 0.634823
vt 0.072056 0.647749
vt 0.04697 0.647749
vt 0.072056 0.634823
vt 0.072056 0.647749
vt 0.04697 0.634823
vt 0.184869 0.634823
vt 0.184869 0.647749
vt 0.184869 0.647749
vt 0.184869 0.634823
vt 0.184869 0.647749
vt 0.184869 0.634823
vt 0.04697 0.634823
vt 0.04697 0.647749
vt 0.04697 0.647749
vt 0.04697 0.634823
vt 0.04697 0.647749
vt 0.04697 0.634823
vt 0.04697 0.647749
vt 0.072056 0.647749
vt 0.04697 0.647749
vt 0.072056 0.647749
vt 0.072056 0.647749
vt 0.04697 0.647749
vt 0.04697 0.634823
vt 0.072056 0.634823
vt 0.04697 0.634823
vt 0.072056 0.634823
vt 0.072056 0.634823
vt 0.04697 0.634823
vt 0.072056 0.647749
vt 0.072056 0.634823
vt 0.155069 0.647749
vt 0.072056 0.634823
vt 0.155069 0.634823
vt 0.155069 0.647749
vt 0.072056 0.647749
vt 0.072056 0.647749
vt 0.155069 0.647749
vt 0.072056 0.647749
vt 0.155069 0.647749
vt 0.155069 0.647749
vt 0.072056 0.634823
vt 0.072056 0.634823
vt 0.155069 0.634823
vt 0.072056 0.634823
vt 0.155069 0.634823
vt 0.155069 0.634823
vt 0.155069 0.647749
vt 0.155069 0.634823
vt 0.184869 0.647749
vt 0.155069 0.634823
vt 0.184869 0.634823
vt 0.184869 0.647749
vt 0.155069 0.647749
vt 0.155069 0.647749
vt 0.184869 0.647749
vt 0.155069 0.647749
vt 0.184869 0.647749
vt 0.184869 0.647749
vt 0.155069 0.634823
vt 0.155069 0.634823
vt 0.184869 0.634823
vt 0.155069 0.634823
vt 0.184869 0.634823
vt 0.184869 0.634823
vt 0.184869 0.634823
vt 0.155069 0.634823
vt 0.184868 0.634823
vt 0.155069 0.634823
vt 0.155069 0.634823
vt 0.184868 0.634823
vt 0.155069 0.634823
vt 0.155069 0.647749
vt 0.155069 0.634823
vt 0.155069 0.647749
vt 0.155069 0.647749
vt 0.155069 0.634823
vt 0.155069 0.647749
vt 0.184869 0.647749
vt 0.155069 0.647749
vt 0.184869 0.647749
vt 0.184868 0.647749
vt 0.155069 0.647749
vt 0.184869 0.647749
vt 0.184869 0.634823
vt 0.184868 0.647749
vt 0.184869 0.634823
vt 0.184868 0.634823
vt 0.184868 0.647749
vt 0.072056 0.647749
vt 0.072056 0.634823
vt 0.072056 0.647749
vt 0.072056 0.634823
vt 0.072056 0.634823
vt 0.072056 0.647749
vt 0.04697 0.647749
vt 0.072056 0.647749
vt 0.046969 0.647749
vt 0.072056 0.647749
vt 0.072056 0.647749
vt 0.046969 0.647749
vt 0.072056 0.634823
vt 0.04697 0.634823
vt 0.072056 0.634823
vt 0.04697 0.634823
vt 0.046969 0.634823
vt 0.072056 0.634823
vt 0.04697 0.634823
vt 0.04697 0.647749
vt 0.046969 0.634823
vt 0.04697 0.647749
vt 0.046969 0.647749
vt 0.046969 0.634823
vt 0.058675 0.701473
vt 0.081479 0.714943
vt 0.058675 0.714943
vt 0.081479 0.701473
vt 0.081479 0.714943
vt 0.058675 0.701473
vt 0.184034 0.701474
vt 0.184034 0.714943
vt 0.184034 0.714943
vt 0.184034 0.701474
vt 0.184034 0.714943
vt 0.184034 0.701474
vt 0.058675 0.701473
vt 0.058675 0.714943
vt 0.058675 0.714943
vt 0.058675 0.701473
vt 0.058675 0.714943
vt 0.058675 0.701473
vt 0.058675 0.714943
vt 0.081479 0.714943
vt 0.058675 0.714943
vt 0.081479 0.714943
vt 0.081479 0.714943
vt 0.058675 0.714943
vt 0.058675 0.701473
vt 0.081479 0.701473
vt 0.058675 0.701473
vt 0.081479 0.701473
vt 0.081479 0.701473
vt 0.058675 0.701473
vt 0.081479 0.714943
vt 0.081479 0.701473
vt 0.156944 0.714943
vt 0.081479 0.701473
vt 0.156944 0.701474
vt 0.156944 0.714943
vt 0.081479 0.714943
vt 0.081479 0.714943
vt 0.156944 0.714943
vt 0.081479 0.714943
vt 0.156944 0.714943
vt 0.156944 0.714943
vt 0.081479 0.701473
vt 0.081479 0.701473
vt 0.156944 0.701474
vt 0.081479 0.701473
vt 0.156944 0.701474
vt 0.156944 0.701474
vt 0.156944 0.714943
vt 0.156944 0.701474
vt 0.184034 0.714943
vt 0.156944 0.701474
vt 0.184034 0.701474
vt 0.184034 0.714943
vt 0.156944 0.714943
vt 0.156944 0.714943
vt 0.184034 0.714943
vt 0.156944 0.714943
vt 0.184034 0.714943
vt 0.184034 0.714943
vt 0.156944 0.701474
vt 0.156944 0.701474
vt 0.184034 0.701474
vt 0.156944 0.701474
vt 0.184034 0.701474
vt 0.184034 0.701474
vt 0.184034 0.701474
vt 0.156944 0.701474
vt 0.184034 0.701474
vt 0.156944 0.701474
vt 0.156944 0.701474
vt 0.184034 0.701474
vt 0.156944 0.701474
vt 0.156944 0.714943
vt 0.156944 0.701474
vt 0.156944 0.714943
vt 0.156944 0.714943
vt 0.156944 0.701474
vt 0.156944 0.714943
vt 0.184034 0.714943
vt 0.156944 0.714943
vt 0.184034 0.714943
vt 0.184034 0.714943
vt 0.156944 0.714943
vt 0.184034 0.714943
vt 0.184034 0.701474
vt 0.184034 0.714943
vt 0.184034 0.701474
vt 0.184034 0.701474
vt 0.184034 0.714943
vt 0.081479 0.714943
vt 0.081479 0.701473
vt 0.08148 0.714943
vt 0.081479 0.701473
vt 0.08148 0.701474
vt 0.08148 0.714943
vt 0.058675 0.714943
vt 0.081479 0.714943
vt 0.058674 0.714943
vt 0.081479 0.714943
vt 0.08148 0.714943
vt 0.058674 0.714943
vt 0.081479 0.701473
vt 0.058675 0.701473
vt 0.08148 0.701474
vt 0.058675 0.701473
vt 0.058674 0.701474
vt 0.08148 0.701474
vt 0.058675 0.701473
vt 0.058675 0.714943
vt 0.058674 0.701474
vt 0.058675 0.714943
vt 0.058674 0.714943
vt 0.058674 0.701474

# 384 Vertex Normals
vn 0.0 0.0 -1.0
vn 0.0 0.0 -1.0
vn 0.0 0.0 -1.0
vn 0.0 0.0 -1.0
vn 0.0 0.0 -1.0
vn 0.0 0.0 -1.0
vn -0.825307 -0.0 0.564684
vn -0.680904 -0.380189 0.625961
vn -0.825307 -0.0 0.564684
vn -0.680904 -0.380189 0.625961
vn -0.340452 -0.760377 0.5531
vn -0.825307 -0.0 0.564684
vn -0.680904 -0.380189 0.625961
vn 0.340452 -0.760377 0.5531
vn -0.340452 -0.760377 0.5531
vn 0.340452 -0.760377 0.5531
vn 0.680904 -0.380189 0.625961
vn -0.340452 -0.760377 0.5531
vn 0.340452 -0.760377 0.5531
vn 0.825307 0.0 0.564684
vn 0.680904 -0.380189 0.625961
vn 0.825307 0.0 0.564684
vn 0.825307 0.0 0.564684
vn 0.680904 -0.380189 0.625961
vn 0.0 0.0 1.0
vn 0.0 0.0 1.0
vn -0.392957 0.232808 0.889598
vn 0.0 0.0 1.0
vn 0.0 0.0 1.0
vn 0.0 0.0 1.0
vn 0.0 1.0 0.0
vn 0.0 1.0 0.0
vn 0.0 1.0 0.0
vn 0.0 1.0 0.0
vn 0.0 1.0 0.0
vn 0.0 1.0 0.0
vn 0.0 -1.0 0.0
vn 0.0 -1.0 0.0
vn 0.0 -0.946515 0.322659
vn 0.0 -1.0 0.0
vn 0.0 -1.0 0.0
vn 0.0 -1.0 0.0
vn -0.260674 0.617747 0.741915
vn -0.519711 -0.3037 0.79854
vn -0.392957 0.232808 0.889598
vn -0.519711 -0.3037 0.79854
vn -0.259856 -0.607399 0.750694
vn -0.392957 0.232808 0.889598
vn 0.513199 0.3084 0.800947
vn -0.260674 0.617747 0.741915
vn 0.256599 0.6168 0.74412
vn -0.260674 0.617747 0.741915
vn -0.392957 0.232808 0.889598
vn 0.256599 0.6168 0.74412
vn -0.442392 -0.585017 0.679739
vn 0.255787 -0.606452 0.752854
vn -0.259856 -0.607399 0.750694
vn 0.255787 -0.606452 0.752854
vn 0.511574 -0.303226 0.803957
vn -0.259856 -0.607399 0.750694
vn 0.255787 -0.606452 0.752854
vn 0.513199 0.3084 0.800947
vn 0.511574 -0.303226 0.803957
vn 0.513199 0.3084 0.800947
vn 0.256599 0.6168 0.74412
vn 0.511574 -0.303226 0.803957
vn 0.0 0.0 1.0
vn 0.0 0.0 1.0
vn -0.377162 0.166254 0.911103
vn 0.0 0.0 1.0
vn 0.0 0.0 1.0
vn 0.0 0.0 1.0
vn 0.0 1.0 0.0
vn 0.0 1.0 0.0
vn 0.0 1.0 0.0
vn 0.0 1.0 0.0
vn 0.0 1.0 0.0
vn 0.0 1.0 0.0
vn 0.0 -1.0 0.0
vn 0.0 -1.0 0.0
vn 0.0 -0.895969 0.444116
vn 0.0 -1.0 0.0
vn 0.0 -1.0 0.0
vn 0.0 -1.0 0.0
vn -0.249725 0.440318 0.862414
vn -0.500071 -0.22348 0.836651
vn -0.377162 0.166254 0.911103
vn -0.500071 -0.22348 0.836651
vn -0.250036 -0.44696 0.8589
vn -0.377162 0.166254 0.911103
vn 0.49945 0.220159 0.837902
vn -0.249725 0.440318 0.862414
vn 0.249725 0.440318 0.862414
vn -0.249725 0.440318 0.862414
vn -0.377162 0.166254 0.911103
vn 0.249725 0.440318 0.862414
vn -0.438394 -0.519466 0.733461
vn 0.250036 -0.44696 0.8589
vn -0.250036 -0.44696 0.8589
vn 0.250036 -0.44696 0.8589
vn 0.500072 -0.22348 0.836651
vn -0.250036 -0.44696 0.8589
vn 0.250036 -0.44696 0.8589
vn 0.49945 0.220159 0.837902
vn 0.500072 -0.22348 0.836651
vn 0.49945 0.220159 0.837902
vn 0.249725 0.440318 0.862414
vn 0.500072 -0.22348 0.836651
vn 1.0 0.0 0.0
vn 1.0 0.0 0.0
vn 1.0 0.0 0.0
vn 1.0 0.0 0.0
vn 1.0 0.0 0.0
vn 1.0 0.0 0.0
vn -1.0 0.0 0.0
vn -1.0 0.0 0.0
vn -1.0 0.0 0.0
vn -1.0 0.0 0.0
vn -1.0 0.0 0.0
vn -1.0 0.0 0.0
vn 1.0 0.0 0.0
vn 1.0 0.0 0.0
vn 1.0 0.0 0.0
vn 1.0 0.0 0.0
vn 1.0 0.0 0.0
vn 1.0 0.0 0.0
vn -1.0 -0.0 0.0
vn -1.0 -0.0 0.0
vn -1.0 -0.0 0.0
vn -1.0 -0.0 0.0
vn -1.0 -0.0 0.0
vn -1.0 -0.0 0.0
vn 1.0 0.0 -0.0
vn 1.0 0.0 -0.0
vn 1.0 0.0 -0.0
vn 1.0 0.0 0.0
vn 1.0 0.0 -0.0
vn 1.0 0.0 -0.0
vn -1.0 -0.0 0.0
vn -1.0 -0.0 0.0
vn -1.0 -0.0 0.0
vn -1.0 -0.0 0.0
vn -1.0 -0.0 0.0
vn -1.0 -0.0 0.0
vn 0.0 1.0 0.0
vn 0.0 1.0 0.0
vn 0.0 1.0 0.0
vn 0.0 1.0 0.0
vn 0.0 1.0 0.0
vn 0.0 1.0 0.0
vn 0.0 0.915788 0.401662
vn 0.0 0.915788 0.401662
vn 0.0 0.915788 0.401662
vn 0.0 0.915788 0.401662
vn 0.0 0.915788 0.401662
vn 0.0 0.915788 0.401662
vn 0.0 0.0 1.0
vn 0.0 0.0 1.0
vn 0.0 0.0 1.0
vn 0.0 0.0 1.0
vn 0.0 0.0 1.0
vn 0.0 0.0 1.0
vn 1.0 0.0 -0.0
vn 1.0 0.0 -0.0
vn 1.0 0.0 -0.0
vn 1.0 0.0 -0.0
vn 1.0 0.0 -0.0
vn 1.0 0.0 -0.0
vn -1.0 0.0 0.0
vn -1.0 0.0 0.0
vn -1.0 0.0 0.0
vn -1.0 0.0 0.0
vn -1.0 0.0 0.0
vn -1.0 0.0 0.0
vn 0.0 1.0 0.0
vn 0.0 1.0 0.0
vn 0.0 1.0 0.0
vn 0.0 1.0 0.0
vn 0.0 1.0 0.0
vn 0.0 1.0 0.0
vn 0.0 -1.0 0.0
vn 0.0 -1.0 0.0
vn 0.0 -1.0 0.0
vn 0.0 -1.0 0.0
vn 0.0 -1.0 0.0
vn 0.0 -1.0 0.0
vn 0.0 0.0 1.0
vn 0.0 -0.0 1.0
vn 0.0 -0.0 1.0
vn 0.0 -0.0 1.0
vn 0.0 -0.0 1.0
vn 0.0 -0.0 1.0
vn 0.0 1.0 0.0
vn 0.0 1.0 0.0
vn 0.0 1.0 0.0
vn 0.0 1.0 0.0
vn 0.0 1.0 0.0
vn 0.0 1.0 0.0
vn 0.0 -1.0 0.0
vn 0.0 -1.0 0.0
vn 0.0 -1.0 0.0
vn 0.0 -1.0 0.0
vn 0.0 -1.0 0.0
vn 0.0 -1.0 0.0
vn 0.0 -0.0 1.0
vn 0.0 -0.0 1.0
vn 0.0 0.0 1.0
vn 0.0 -0.0 1.0
vn 0.0 0.0 1.0
vn 0.0 0.0 1.0
vn 0.0 1.0 0.0
vn 0.0 1.0 0.0
vn 0.0 1.0 0.0
vn 0.0 1.0 0.0
vn 0.0 1.0 0.0
vn 0.0 1.0 0.0
vn 0.0 -1.0 0.0
vn 0.0 -1.0 0.0
vn 0.0 -1.0 0.0
vn 0.0 -1.0 0.0
vn 0.0 -1.0 0.0
vn 0.0 -1.0 0.0
vn 0.0 -1.0 0.0
vn 0.0 -1.0 0.0
vn 0.0 -1.0 0.0
vn 0.0 -1.0 0.0
vn 0.0 -1.0 0.0
vn 0.0 -1.0 0.0
vn -1.0 0.0 -0.0
vn -1.0 0.0 -0.0
vn -1.0 0.0 -0.0
vn -1.0 0.0 -0.0
vn -1.0 0.0 -0.0
vn -1.0 0.0 -0.0
vn 0.0 1.0 0.0
vn 0.0 1.0 0.0
vn 0.0 1.0 0.0
vn 0.0 1.0 0.0
vn 0.0 1.0 0.0
vn 0.0 1.0 0.0
vn 1.0 0.0 0.0
vn 1.0 0.0 0.0
vn 1.0 0.0 0.0
vn 1.0 0.0 0.0
vn 1.0 0.0 0.0
vn 1.0 0.0 0.0
vn 1.0 0.0 0.0
vn 1.0 0.0 0.0
vn 1.0 0.0 0.0
vn 1.0 0.0 0.0
vn 1.0 0.0 0.0
vn 1.0 0.0 0.0
vn 0.0 1.0 0.0
vn 0.0 1.0 0.0
vn 0.0 1.0 0.0
vn 0.0 1.0 0.0
vn 0.0 1.0 0.0
vn 0.0 1.0 0.0
vn 0.0 -1.0 0.0
vn 0.0 -1.0 0.0
vn 0.0 -1.0 0.0
vn 0.0 -1.0 0.0
vn 0.0 -1.0 0.0
vn 0.0 -1.0 0.0
vn -1.0 0.0 0.0
vn -1.0 0.0 0.0
vn -1.0 0.0 0.0
vn -1.0 0.0 0.0
vn -1.0 0.0 0.0
vn -1.0 0.0 0.0
vn 0.0 0.0 1.0
vn 0.0 0.0 1.0
vn 0.0 0.0 1.0
vn 0.0 0.0 1.0
vn 0.0 0.0 1.0
vn 0.0 0.0 1.0
vn 1.0 0.0 -0.0
vn 1.0 0.0 -0.0
vn 1.0 0.0 -0.0
vn 1.0 0.0 -0.0
vn 1.0 0.0 -0.0
vn 1.0 0.0 -0.0
vn -1.0 0.0 0.000001
vn -1.0 0.0 0.000001
vn -1.0 0.0 0.0
vn -1.0 0.0 0.000001
vn -1.0 0.0 0.000001
vn -1.0 0.0 0.000001
vn 0.0 1.0 0.0
vn 0.0 1.0 0.0
vn 0.0 1.0 0.0
vn 0.0 1.0 0.0
vn 0.0 1.0 0.0
vn 0.0 1.0 0.0
vn 0.0 -1.0 0.0
vn 0.0 -1.0 0.0
vn 0.0 -1.0 0.0
vn 0.0 -1.0 0.0
vn 0.0 -1.0 0.0
vn 0.0 -1.0 0.0
vn 0.0 0.0 1.0
vn 0.0 -0.0 1.0
vn 0.0 -0.0 1.0
vn 0.0 -0.0 1.0
vn 0.0 -0.0 1.0
vn 0.0 -0.0 1.0
vn 0.0 1.0 0.0
vn 0.0 1.0 0.0
vn 0.0 1.0 0.0
vn 0.0 1.0 0.0
vn 0.0 1.0 0.0
vn 0.0 1.0 0.0
vn 0.0 -1.0 0.0
vn 0.0 -1.0 0.0
vn 0.0 -1.0 0.0
vn 0.0 -1.0 0.0
vn 0.0 -1.0 0.0
vn 0.0 -1.0 0.0
vn 0.0 -0.0 1.0
vn 0.0 -0.0 1.0
vn 0.0 0.0 1.0
vn 0.0 -0.0 1.0
vn 0.0 0.0 1.0
vn 0.0 0.0 1.0
vn 0.0 1.0 0.0
vn 0.0 1.0 0.0
vn 0.0 1.0 0.0
vn 0.0 1.0 0.0
vn 0.0 1.0 0.0
vn 0.0 1.0 0.0
vn 0.0 -1.0 0.0
vn 0.0 -1.0 0.0
vn 0.0 -1.0 0.0
vn 0.0 -1.0 0.0
vn 0.0 -1.0 0.0
vn 0.0 -1.0 0.0
vn 0.0 -1.0 0.0
vn 0.0 -1.0 0.0
vn 0.0 -1.0 0.0
vn 0.0 -1.0 0.0
vn 0.0 -1.0 0.0
vn 0.0 -1.0 0.0
vn -1.0 0.0 -0.0
vn -1.0 0.0 -0.0
vn -1.0 0.0 -0.0
vn -1.0 0.0 -0.0
vn -1.0 0.0 -0.0
vn -1.0 0.0 -0.0
vn 0.0 1.0 0.0
vn 0.0 1.0 0.0
vn 0.0 1.0 0.0
vn 0.0 1.0 0.0
vn 0.0 1.0 0.0
vn 0.0 1.0 0.0
vn 1.0 0.0 0.0
vn 1.0 0.0 0.0
vn 1.0 0.0 0.0
vn 1.0 0.0 0.0
vn 1.0 0.0 0.0
vn 1.0 0.0 0.0
vn 1.0 0.0 0.0
vn 1.0 0.0 0.0
vn 1.0 0.0 0.0
vn 1.0 0.0 0.0
vn 1.0 0.0 0.0
vn 1.0 0.0 0.0
vn 0.0 1.0 0.0
vn 0.0 1.0 0.0
vn 0.0 1.0 0.0
vn 0.0 1.0 0.0
vn 0.0 1.0 0.0
vn 0.0 1.0 0.0
vn 0.0 -1.0 0.0
vn 0.0 -1.0 0.0
vn 0.0 -1.0 0.0
vn 0.0 -1.0 0.0
vn 0.0 -1.0 0.0
vn 0.0 -1.0 0.0
vn -1.0 0.0 -0.0
vn -1.0 0.0 0.0
vn -1.0 0.0 -0.0
vn -1.0 0.0 0.0
vn -1.0 0.0 -0.0
vn -1.0 0.0 -0.0

# br_freezer2, 128 grouped triangles

usemtl br_freezer2.jpg
o br_freezer2
g br_freezer2

f 2/1/1 3/2/2 1/3/3
f 4/4/4 3/5/5 2/6/6
f 6/7/7 7/8/8 5/9/9
f 7/10/10 8/11/11 5/12/12
f 7/13/13 9/14/14 8/15/15
f 9/16/16 10/17/17 8/18/18
f 9/19/19 11/20/20 10/21/21
f 11/22/22 12/23/23 10/24/24
f 14/25/25 15/26/26 13/27/27
f 16/28/28 15/29/29 14/30/30
f 18/31/31 19/32/32 17/33/33
f 20/34/34 19/35/35 18/36/36
f 22/37/37 23/38/38 21/39/39
f 24/40/40 23/41/41 22/42/42
f 25/43/43 21/44/44 13/45/45
f 21/46/46 26/47/47 13/48/48
f 28/49/49 25/50/50 27/51/51
f 25/52/52 13/53/53 27/54/54
f 21/55/55 29/56/56 26/57/57
f 29/58/58 30/59/59 26/60/60
f 29/61/61 28/62/62 30/63/63
f 28/64/64 27/65/65 30/66/66
f 32/67/67 33/68/68 31/69/69
f 34/70/70 33/71/71 32/72/72
f 36/73/73 37/74/74 35/75/75
f 38/76/76 37/77/77 36/78/78
f 40/79/79 41/80/80 39/81/81
f 42/82/82 41/83/83 40/84/84
f 43/85/85 39/86/86 31/87/87
f 39/88/88 44/89/89 31/90/90
f 46/91/91 43/92/92 45/93/93
f 43/94/94 31/95/95 45/96/96
f 39/97/97 47/98/98 44/99/99
f 47/100/100 48/101/101 44/102/102
f 47/103/103 46/104/104 48/105/105
f 46/106/106 45/107/107 48/108/108
f 50/109/109 51/110/110 49/111/111
f 52/112/112 51/113/113 50/114/114
f 54/115/115 55/116/116 53/117/117
f 56/118/118 55/119/119 54/120/120
f 58/121/121 59/122/122 57/123/123
f 60/124/124 59/125/125 58/126/126
f 62/127/127 63/128/128 61/129/129
f 64/130/130 63/131/131 62/132/132
f 66/133/133 67/134/134 65/135/135
f 68/136/136 67/137/137 66/138/138
f 70/139/139 71/140/140 69/141/141
f 72/142/142 71/143/143 70/144/144
f 74/145/145 75/146/146 73/147/147
f 76/148/148 75/149/149 74/150/150
f 78/151/151 79/152/152 77/153/153
f 79/154/154 80/155/155 77/156/156
f 82/157/157 83/158/158 81/159/159
f 84/160/160 83/161/161 82/162/162
f 86/163/163 87/164/164 85/165/165
f 88/166/166 87/167/167 86/168/168
f 90/169/169 91/170/170 89/171/171
f 92/172/172 91/173/173 90/174/174
f 93/175/175 94/176/176 89/177/177
f 95/178/178 94/179/179 93/180/180
f 90/181/181 97/182/182 96/183/183
f 98/184/184 97/185/185 90/186/186
f 100/187/187 101/188/188 99/189/189
f 101/190/190 102/191/191 99/192/192
f 104/193/193 100/194/194 103/195/195
f 100/196/196 99/197/197 103/198/198
f 101/199/199 105/200/200 102/201/201
f 105/202/202 106/203/203 102/204/204
f 99/205/205 102/206/206 85/207/207
f 102/208/208 107/209/209 85/210/210
f 103/211/211 99/212/212 108/213/213
f 99/214/214 85/215/215 108/216/216
f 102/217/217 106/218/218 107/219/219
f 106/220/220 109/221/221 107/222/222
f 109/223/223 106/224/224 110/225/225
f 106/226/226 111/227/227 110/228/228
f 106/229/229 103/230/230 111/231/231
f 103/232/232 112/233/233 111/234/234
f 103/235/235 108/236/236 112/237/237
f 108/238/238 113/239/239 112/240/240
f 108/241/241 109/242/242 113/243/243
f 109/244/244 110/245/245 113/246/246
f 104/247/247 105/248/248 114/249/249
f 105/250/250 115/251/251 114/252/252
f 89/253/253 104/254/254 116/255/255
f 104/256/256 114/257/257 116/258/258
f 105/259/259 117/260/260 115/261/261
f 117/262/262 118/263/263 115/264/264
f 117/265/265 89/266/266 118/267/267
f 89/268/268 116/269/269 118/270/270
f 120/271/271 121/272/272 119/273/273
f 122/274/274 121/275/275 120/276/276
f 124/277/277 125/278/278 123/279/279
f 126/280/280 125/281/281 124/282/282
f 128/283/283 129/284/284 127/285/285
f 130/286/286 129/287/287 128/288/288
f 131/289/289 132/290/290 127/291/291
f 133/292/292 132/293/293 131/294/294
f 128/295/295 135/296/296 134/297/297
f 136/298/298 135/299/299 128/300/300
f 138/301/301 139/302/302 137/303/303
f 139/304/304 140/305/305 137/306/306
f 142/307/307 138/308/308 141/309/309
f 138/310/310 137/311/311 141/312/312
f 139/313/313 143/314/314 140/315/315
f 143/316/316 144/317/317 140/318/318
f 137/319/319 140/320/320 123/321/321
f 140/322/322 145/323/323 123/324/324
f 141/325/325 137/326/326 146/327/327
f 137/328/328 123/329/329 146/330/330
f 140/331/331 144/332/332 145/333/333
f 144/334/334 147/335/335 145/336/336
f 147/337/337 144/338/338 148/339/339
f 144/340/340 149/341/341 148/342/342
f 144/343/343 141/344/344 149/345/345
f 141/346/346 150/347/347 149/348/348
f 141/349/349 146/350/350 150/351/351
f 146/352/352 151/353/353 150/354/354
f 146/355/355 147/356/356 151/357/357
f 147/358/358 148/359/359 151/360/360
f 142/361/361 143/362/362 152/363/363
f 143/364/364 153/365/365 152/366/366
f 127/367/367 142/368/368 154/369/369
f 142/370/370 152/371/371 154/372/372
f 143/373/373 155/374/374 153/375/375
f 155/376/376 156/377/377 153/378/378
f 155/379/379 127/380/380 156/381/381
f 127/382/382 154/383/383 156/384/384
